<svg width="261" height="158" viewBox="0 0 261 158" fill="none" xmlns="http://www.w3.org/2000/svg">
<g clip-path="url(#clip0_234_16575)">
<rect y="0.105469" width="261" height="157" rx="4" fill="#F7F5FF"/>
<path d="M-35.5 78.1055H296.5" stroke="black" stroke-dasharray="4 4"/>
<path d="M130.5 -56.8945L130.5 156.105" stroke="black"/>
<path d="M190 78.1055C190 111.531 163.573 138.605 131 138.605C98.4269 138.605 72 111.531 72 78.1055C72 44.6804 98.4269 17.6055 131 17.6055C163.573 17.6055 190 44.6804 190 78.1055Z" fill="#F7F5FF" stroke="black"/>
<circle cx="190.5" cy="78.1055" r="6" fill="black"/>
<circle cx="72.5" cy="78.1055" r="6" fill="black"/>
<path d="M110.334 110.105V106.865L136.974 80.4055C139.494 77.8855 141.384 75.6955 142.644 73.8355C143.904 71.9155 144.744 70.1455 145.164 68.5255C145.644 66.9055 145.884 65.3155 145.884 63.7555C145.884 59.7955 144.534 56.6755 141.834 54.3955C139.134 52.0555 135.174 50.8855 129.954 50.8855C125.994 50.8855 122.514 51.4855 119.514 52.6855C116.574 53.8855 114.024 55.7155 111.864 58.1755L108.624 55.2955C111.024 52.5355 114.054 50.4055 117.714 48.9055C121.434 47.4055 125.634 46.6555 130.314 46.6555C134.454 46.6555 138.024 47.3455 141.024 48.7255C144.084 50.0455 146.424 51.9655 148.044 54.4855C149.724 56.9455 150.564 59.8855 150.564 63.3055C150.564 65.3455 150.264 67.3555 149.664 69.3355C149.124 71.2555 148.104 73.2955 146.604 75.4555C145.164 77.6155 143.064 80.0755 140.304 82.8355L115.284 107.765L113.754 105.965H153.624V110.105H110.334Z" fill="#242424"/>
</g>
<defs>
<clipPath id="clip0_234_16575">
<rect y="0.105469" width="261" height="157" rx="4" fill="white"/>
</clipPath>
</defs>
</svg>
