<svg width="208" height="115" viewBox="0 0 208 115" fill="none" xmlns="http://www.w3.org/2000/svg">
<g clip-path="url(#clip0_304_365)">
<rect x="0.5" y="0.568359" width="207" height="114" rx="4" fill="#F7F5FF"/>
<path d="M-24.5 57.5684H218.5" stroke="black" stroke-dasharray="4 4"/>
<path d="M96.5 -41.4316L96.5 114.568" stroke="black"/>
<path d="M140 57.5684C140 82.1611 120.732 102.068 97 102.068C73.2676 102.068 54 82.1611 54 57.5684C54 32.9756 73.2676 13.0684 97 13.0684C120.732 13.0684 140 32.9756 140 57.5684Z" fill="#F7F5FF" stroke="black"/>
<ellipse cx="140.5" cy="57.0684" rx="4" ry="4.5" fill="black"/>
<circle cx="54" cy="57.0684" r="4.5" fill="black"/>
<path d="M84.9816 76.5684V74.6964L100.374 59.4084C101.83 57.9524 102.922 56.687 103.65 55.6124C104.378 54.503 104.863 53.4804 105.106 52.5444C105.383 51.6084 105.522 50.6897 105.522 49.7884C105.522 47.5004 104.742 45.6977 103.182 44.3804C101.622 43.0284 99.3336 42.3524 96.3176 42.3524C94.0296 42.3524 92.0189 42.699 90.2856 43.3924C88.5869 44.0857 87.1136 45.143 85.8656 46.5644L83.9936 44.9004C85.3803 43.3057 87.1309 42.075 89.2456 41.2084C91.3949 40.3417 93.8216 39.9084 96.5256 39.9084C98.9176 39.9084 100.98 40.307 102.714 41.1044C104.482 41.867 105.834 42.9764 106.77 44.4324C107.74 45.8537 108.226 47.5524 108.226 49.5284C108.226 50.707 108.052 51.8684 107.706 53.0124C107.394 54.1217 106.804 55.3004 105.938 56.5484C105.106 57.7964 103.892 59.2177 102.298 60.8124L87.8416 75.2164L86.9576 74.1764H109.994V76.5684H84.9816Z" fill="black"/>
</g>
<defs>
<clipPath id="clip0_304_365">
<rect x="0.5" y="0.568359" width="207" height="114" rx="4" fill="white"/>
</clipPath>
</defs>
</svg>
