<svg width="560" height="187" viewBox="0 0 560 187" fill="none" xmlns="http://www.w3.org/2000/svg">
<g clip-path="url(#clip0_234_16293)">
<rect width="560" height="187" rx="4" fill="#D3FFDD"/>
<path d="M0 30H560" stroke="black" stroke-dasharray="4 4"/>
<path d="M226 -135.25L226 225.25" stroke="black"/>
<path d="M0 93H560" stroke="black"/>
<path d="M0 157H560" stroke="black" stroke-dasharray="4 4"/>
<circle cx="100.5" cy="93.5" r="12.5" fill="#D3FFDD"/>
<path d="M37 184.5L134.158 44.2164C134.561 43.6342 135.425 43.6441 135.814 44.2353L174.149 102.377C174.334 102.657 174.647 102.826 174.984 102.826H197.271C197.706 102.826 198.09 103.106 198.223 103.52L208.128 134.292C208.418 135.192 209.678 135.225 210.015 134.343L225.302 94.3048C225.547 93.6646 226.348 93.4544 226.875 93.892L256.079 118.131C256.559 118.529 257.282 118.396 257.588 117.853L307.213 29.8942C307.577 29.2504 308.489 29.2096 308.908 29.8184L343.803 80.4878C344.163 81.01 344.911 81.07 345.349 80.6117L368.743 56.143C369.138 55.7294 369.799 55.7313 370.192 56.1471L428.697 118.046C429.119 118.493 429.839 118.457 430.215 117.972L521.5 0" stroke="black"/>
<circle cx="308.5" cy="29.5" r="12.5" fill="#D3FFDD"/>
<circle cx="430.5" cy="116.5" r="12.5" fill="#D3FFDD"/>
<circle cx="308.265" cy="29.2647" r="6.26471" fill="black"/>
<circle cx="430.265" cy="116.265" r="6.26471" fill="black"/>
<circle cx="100.265" cy="93.2647" r="6.26471" fill="black"/>
<circle cx="226.5" cy="93.5" r="12.5" fill="#D3FFDD"/>
<circle cx="226.265" cy="93.2647" r="6.26471" fill="black"/>
<path d="M308 -135.25L308 225.25" stroke="black"/>
<path d="M430 -135.25L430 225.25" stroke="black"/>
</g>
<defs>
<clipPath id="clip0_234_16293">
<rect width="560" height="187" rx="4" fill="white"/>
</clipPath>
</defs>
</svg>
