<svg width="360" height="187" viewBox="0 0 360 187" fill="none" xmlns="http://www.w3.org/2000/svg">
<g clip-path="url(#clip0_119_6052)">
<rect width="360" height="187" rx="4" fill="#D3FFDD"/>
<path d="M0 30H360.5" stroke="black" stroke-dasharray="4 4"/>
<path d="M180 -135.25L180 225.25" stroke="black"/>
<path d="M0 93H360.5" stroke="black"/>
<path d="M0 157H360.5" stroke="black" stroke-dasharray="4 4"/>
<circle cx="54.5" cy="93.5" r="12.5" fill="#D3FFDD"/>
<path d="M-9 184.5L88.1575 44.2164C88.5607 43.6342 89.4247 43.6441 89.8145 44.2353L128.149 102.377C128.334 102.657 128.647 102.826 128.984 102.826H151.271C151.706 102.826 152.09 103.106 152.223 103.52L162.128 134.292C162.418 135.192 163.678 135.225 164.015 134.343L179.302 94.3048C179.547 93.6646 180.348 93.4544 180.875 93.892L210.079 118.131C210.559 118.529 211.282 118.396 211.588 117.853L261.213 29.8942C261.577 29.2504 262.489 29.2096 262.908 29.8184L297.803 80.4878C298.163 81.01 298.911 81.07 299.349 80.6117L322.546 56.3485C323.008 55.866 323.803 55.9623 324.136 56.5409L360 118.896" stroke="black"/>
<circle cx="262.5" cy="29.5" r="12.5" fill="#D3FFDD"/>
<circle cx="262.265" cy="29.2647" r="6.26471" fill="black"/>
<circle cx="54.2647" cy="93.2647" r="6.26471" fill="black"/>
<circle cx="180.5" cy="93.5" r="12.5" fill="#D3FFDD"/>
<circle cx="180.265" cy="93.2647" r="6.26471" fill="black"/>
<path d="M262 -135.25L262 225.25" stroke="black"/>
</g>
<defs>
<clipPath id="clip0_119_6052">
<rect width="360" height="187" rx="4" fill="white"/>
</clipPath>
</defs>
</svg>
