<svg width="560" height="187" viewBox="0 0 560 187" fill="none" xmlns="http://www.w3.org/2000/svg">
<g clip-path="url(#clip0_234_16313)">
<rect width="560" height="187" rx="4" fill="#D3FFDD"/>
<path d="M0 93L134 93" stroke="black" stroke-dasharray="4 4"/>
<mask id="mask0_234_16313" style="mask-type:alpha" maskUnits="userSpaceOnUse" x="133" y="-19" width="225" height="225">
<circle cx="245.56" cy="93.4998" r="112.404" transform="rotate(-180 245.56 93.4998)" fill="#D9D9D9"/>
</mask>
<g mask="url(#mask0_234_16313)">
<path d="M133.157 18.0547L357.964 18.0547" stroke="black"/>
<path d="M133.157 55.4524L357.964 55.4524" stroke="black"/>
<path d="M133.548 92.8501L245.589 92.8501" stroke="black" stroke-dasharray="4 4"/>
<path d="M246.339 92.8501L358.38 92.8501" stroke="black"/>
<path d="M133.157 130.248L357.964 130.248" stroke="black"/>
<path d="M133.157 167.646L357.964 167.646" stroke="black"/>
</g>
<mask id="mask1_234_16313" style="mask-type:alpha" maskUnits="userSpaceOnUse" x="244" y="-19" width="226" height="225">
<circle cx="357.315" cy="93.4998" r="112.404" transform="rotate(-180 357.315 93.4998)" fill="#D9D9D9"/>
</mask>
<g mask="url(#mask1_234_16313)">
<path d="M392.686 -19.5535L392.686 205.254" stroke="black"/>
<path d="M426.912 -19.5537L426.912 205.254" stroke="black"/>
<path d="M357.57 -19.5535L357.57 205.254" stroke="black"/>
<path d="M322.235 -19.5537L322.235 205.254" stroke="black"/>
<path d="M266.834 -19.5537L266.834 205.254" stroke="black"/>
</g>
<path d="M351 93L560 93" stroke="black" stroke-dasharray="4 4"/>
<path d="M51 93L298 -4" stroke="black" stroke-dasharray="4 4"/>
<path fill-rule="evenodd" clip-rule="evenodd" d="M301.27 -4.45508C335.188 15.0144 358.033 51.5922 358.033 93.5058C358.033 135.419 335.188 171.997 301.27 191.467C267.352 171.997 244.507 135.419 244.507 93.5057C244.507 51.5922 267.352 15.0144 301.27 -4.45508Z" fill="black"/>
<path fill-rule="evenodd" clip-rule="evenodd" d="M301.818 -3.21729C335.401 16.0596 358.02 52.2757 358.02 93.7748C358.02 135.274 335.401 171.49 301.818 190.767C268.236 171.49 245.616 135.274 245.616 93.7748C245.616 52.2757 268.236 16.0596 301.818 -3.21729Z" fill="#D3FFDD"/>
<mask id="mask2_234_16313" style="mask-type:alpha" maskUnits="userSpaceOnUse" x="245" y="-4" width="114" height="196">
<path fill-rule="evenodd" clip-rule="evenodd" d="M302.046 -3.58911C335.759 15.7627 358.466 52.1196 358.466 93.7799C358.466 135.44 335.759 171.797 302.046 191.149C268.333 171.797 245.626 135.44 245.626 93.7799C245.626 52.1196 268.333 15.7627 302.046 -3.58911Z" fill="#ACDCFF"/>
</mask>
<g mask="url(#mask2_234_16313)">
<path d="M316.763 -12.6541C310.697 22.6382 289.522 101.936 253.347 136.787" stroke="black"/>
<path d="M277.059 0.0290527C273.566 29.0717 261.619 94.6565 241.767 124.655" stroke="black"/>
<path d="M343.232 10.5061C341.027 23.3731 331.542 56.3861 311.249 85.5022C285.882 121.897 265.479 142.301 256.656 168.219" stroke="black"/>
<path d="M360.878 34.2183C360.878 40.1003 353.709 60.6875 325.034 95.9798C296.359 131.272 284.779 173.182 282.573 189.725" stroke="black"/>
<path d="M368.046 65.6506C359.958 76.4957 341.577 104.362 332.754 129.066C323.931 153.771 317.681 175.388 315.659 183.108" stroke="black"/>
<path d="M255.001 153.33C275.772 151.859 321.836 152.447 339.923 166.564" stroke="black"/>
<path d="M252.244 141.198C273.75 133.662 324.372 123.111 354.812 141.198" stroke="black"/>
<path d="M247.281 132.375C272.096 120.979 330.218 101.605 364.187 115.28" stroke="black"/>
<path d="M224.672 111.972C232.576 113.626 257.317 113.957 293.051 102.046C328.784 90.1346 367.495 90.0978 382.384 91.5683" stroke="black"/>
<path d="M225.223 82.1938C238.09 85.6862 273.64 90.5757 312.903 82.1938C352.165 73.8118 377.421 75.025 385.142 76.6793" stroke="black"/>
<path d="M227.43 40.2844C254.634 51.3133 321.175 69.8417 369.702 55.7248" stroke="black"/>
<path d="M256.104 1.68311C275.956 13.4472 326.579 37.196 370.253 38.0783" stroke="black"/>
</g>
<path d="M298 191L51 94" stroke="black" stroke-dasharray="4 4"/>
<ellipse cx="61" cy="92.5" rx="14" ry="13.5" fill="#D3FFDD"/>
<ellipse cx="61.5" cy="93" rx="6.5" ry="7" fill="black"/>
<path d="M245.5 93.5C245.5 31.6441 295.644 -18.5 357.5 -18.5C419.356 -18.5 469.5 31.6441 469.5 93.5C469.5 155.356 419.356 205.5 357.5 205.5C295.644 205.5 245.5 155.356 245.5 93.5Z" stroke="black"/>
<path d="M133.5 93.5C133.5 31.6441 183.644 -18.5 245.5 -18.5C307.356 -18.5 357.5 31.6441 357.5 93.5C357.5 155.356 307.356 205.5 245.5 205.5C183.644 205.5 133.5 155.356 133.5 93.5Z" stroke="black"/>
<ellipse cx="358" cy="92.5" rx="14" ry="13.5" fill="#D3FFDD"/>
<ellipse cx="358.5" cy="93" rx="6.5" ry="7" fill="black"/>
</g>
<defs>
<clipPath id="clip0_234_16313">
<rect width="560" height="187" rx="4" fill="white"/>
</clipPath>
</defs>
</svg>
