<svg width="523" height="371" viewBox="0 0 523 371" fill="none" xmlns="http://www.w3.org/2000/svg">
<path d="M28.0307 98.5821C24.455 123.192 31.6668 178.872 89.1194 204.715C146.572 230.558 193.34 199.881 209.542 181.312" stroke="black"/>
<circle cx="287.5" cy="194.191" r="87.5" fill="#D3FFDD" stroke="black"/>
<circle cx="74.5" cy="63.1914" r="62.5" fill="#D3FFDD" stroke="black" stroke-dasharray="4 4"/>
<circle cx="93" cy="296.691" r="73" fill="#D3FFDD" stroke="black" stroke-dasharray="4 4"/>
<path d="M20.5 112.583L27.0929 107.194" stroke="black"/>
<path d="M259.12 184.191L256.395 180.27L257.602 179.522L260.811 184.191H259.12ZM253.796 184.191V176.141H255.268V184.191H253.796ZM254.819 180.799V179.511H257.533V180.799H254.819ZM257.74 180.339L256.372 180.155L259.12 176.141H260.707L257.74 180.339ZM264.323 184.272C263.694 184.272 263.135 184.138 262.644 183.869C262.153 183.593 261.766 183.218 261.482 182.742C261.199 182.267 261.057 181.727 261.057 181.121C261.057 180.508 261.199 179.967 261.482 179.499C261.766 179.024 262.153 178.652 262.644 178.384C263.135 178.116 263.694 177.981 264.323 177.981C264.959 177.981 265.523 178.116 266.013 178.384C266.512 178.652 266.899 179.02 267.175 179.488C267.459 179.956 267.6 180.5 267.6 181.121C267.6 181.727 267.459 182.267 267.175 182.742C266.899 183.218 266.512 183.593 266.013 183.869C265.523 184.138 264.959 184.272 264.323 184.272ZM264.323 183.041C264.676 183.041 264.99 182.965 265.266 182.811C265.542 182.658 265.757 182.436 265.91 182.144C266.071 181.853 266.151 181.512 266.151 181.121C266.151 180.722 266.071 180.381 265.91 180.097C265.757 179.806 265.542 179.584 265.266 179.43C264.99 179.277 264.679 179.2 264.334 179.2C263.982 179.2 263.667 179.277 263.391 179.43C263.123 179.584 262.908 179.806 262.747 180.097C262.586 180.381 262.506 180.722 262.506 181.121C262.506 181.512 262.586 181.853 262.747 182.144C262.908 182.436 263.123 182.658 263.391 182.811C263.667 182.965 263.978 183.041 264.323 183.041ZM269.02 184.191V178.05H270.458V180.546H273.551V178.05H274.989V184.191H273.551V181.765H270.458V184.191H269.02ZM276.915 184.191V178.05H278.353V182.972H281.285V178.05H282.723V184.191H276.915ZM282.309 185.56V184.157L282.642 184.191H281.285V182.972H283.654V185.56H282.309ZM287.798 184.272C287.115 184.272 286.517 184.138 286.004 183.869C285.498 183.593 285.103 183.218 284.819 182.742C284.543 182.267 284.405 181.727 284.405 181.121C284.405 180.508 284.539 179.967 284.808 179.499C285.084 179.024 285.459 178.652 285.935 178.384C286.418 178.116 286.966 177.981 287.579 177.981C288.177 177.981 288.71 178.112 289.178 178.372C289.645 178.633 290.013 179.001 290.282 179.476C290.55 179.952 290.684 180.511 290.684 181.155C290.684 181.217 290.68 181.286 290.673 181.362C290.673 181.439 290.669 181.512 290.661 181.581H285.544V180.626H289.902L289.339 180.925C289.346 180.573 289.273 180.262 289.12 179.994C288.967 179.726 288.756 179.515 288.488 179.361C288.227 179.208 287.924 179.131 287.579 179.131C287.226 179.131 286.916 179.208 286.648 179.361C286.387 179.515 286.18 179.729 286.027 180.005C285.881 180.274 285.808 180.592 285.808 180.96V181.19C285.808 181.558 285.892 181.884 286.061 182.167C286.23 182.451 286.467 182.67 286.774 182.823C287.081 182.976 287.433 183.053 287.832 183.053C288.177 183.053 288.488 182.999 288.764 182.892C289.04 182.785 289.285 182.616 289.5 182.386L290.27 183.271C289.994 183.593 289.645 183.843 289.224 184.019C288.81 184.188 288.334 184.272 287.798 184.272ZM292.256 184.191V178.05H298.144V184.191H296.718V178.936L297.052 179.269H293.36L293.694 178.936V184.191H292.256ZM300.084 184.191V178.05H301.521V182.972H304.454V178.05H305.891V184.191H300.084ZM305.477 185.56V184.157L305.811 184.191H304.454V182.972H306.823V185.56H305.477ZM308.102 184.191V178.05H309.54V182.098L312.932 178.05H314.243V184.191H312.806V180.143L309.425 184.191H308.102ZM320.076 184.191V182.098L320.283 182.34H318.443C317.599 182.34 316.936 182.164 316.453 181.811C315.978 181.451 315.74 180.933 315.74 180.258C315.74 179.538 315.993 178.99 316.499 178.614C317.013 178.238 317.695 178.05 318.546 178.05H321.364V184.191H320.076ZM315.66 184.191L317.316 181.845H318.788L317.201 184.191H315.66ZM320.076 181.638V178.878L320.283 179.258H318.592C318.148 179.258 317.803 179.342 317.557 179.511C317.32 179.672 317.201 179.936 317.201 180.304C317.201 180.994 317.649 181.339 318.546 181.339H320.283L320.076 181.638ZM263.215 200.272C262.717 200.272 262.261 200.157 261.847 199.927C261.441 199.697 261.115 199.352 260.869 198.892C260.632 198.424 260.513 197.834 260.513 197.121C260.513 196.4 260.628 195.81 260.858 195.35C261.096 194.89 261.418 194.549 261.824 194.326C262.23 194.096 262.694 193.981 263.215 193.981C263.821 193.981 264.354 194.112 264.814 194.372C265.282 194.633 265.65 194.997 265.918 195.465C266.194 195.933 266.332 196.485 266.332 197.121C266.332 197.757 266.194 198.313 265.918 198.788C265.65 199.256 265.282 199.62 264.814 199.881C264.354 200.142 263.821 200.272 263.215 200.272ZM259.811 202.422V194.05H261.18V195.499L261.134 197.132L261.249 198.765V202.422H259.811ZM263.054 199.041C263.399 199.041 263.706 198.965 263.974 198.811C264.25 198.658 264.469 198.436 264.63 198.144C264.791 197.853 264.871 197.512 264.871 197.121C264.871 196.722 264.791 196.381 264.63 196.097C264.469 195.806 264.25 195.584 263.974 195.43C263.706 195.277 263.399 195.2 263.054 195.2C262.709 195.2 262.399 195.277 262.123 195.43C261.847 195.584 261.628 195.806 261.467 196.097C261.306 196.381 261.226 196.722 261.226 197.121C261.226 197.512 261.306 197.853 261.467 198.144C261.628 198.436 261.847 198.658 262.123 198.811C262.399 198.965 262.709 199.041 263.054 199.041ZM271.41 200.191V198.949L271.33 198.685V196.511C271.33 196.09 271.203 195.764 270.95 195.534C270.697 195.296 270.314 195.177 269.8 195.177C269.455 195.177 269.114 195.231 268.777 195.338C268.447 195.446 268.167 195.595 267.937 195.787L267.374 194.74C267.703 194.487 268.094 194.3 268.547 194.177C269.007 194.047 269.482 193.981 269.973 193.981C270.862 193.981 271.548 194.196 272.031 194.625C272.522 195.047 272.767 195.703 272.767 196.592V200.191H271.41ZM269.478 200.272C269.018 200.272 268.616 200.195 268.271 200.042C267.926 199.881 267.657 199.662 267.466 199.386C267.282 199.103 267.19 198.785 267.19 198.432C267.19 198.087 267.27 197.776 267.431 197.5C267.6 197.224 267.872 197.006 268.248 196.845C268.623 196.684 269.122 196.603 269.743 196.603H271.525V197.558H269.846C269.355 197.558 269.026 197.638 268.857 197.799C268.688 197.953 268.604 198.144 268.604 198.374C268.604 198.635 268.708 198.842 268.915 198.995C269.122 199.149 269.409 199.225 269.777 199.225C270.13 199.225 270.444 199.145 270.72 198.984C271.004 198.823 271.207 198.585 271.33 198.271L271.571 199.133C271.433 199.494 271.184 199.774 270.824 199.973C270.471 200.172 270.022 200.272 269.478 200.272ZM276.411 200.295C276.978 200.295 277.48 200.214 277.917 200.053C278.362 199.892 278.711 199.67 278.964 199.386C279.217 199.095 279.343 198.762 279.343 198.386C279.343 197.918 279.148 197.55 278.757 197.282C278.366 197.006 277.829 196.868 277.147 196.868L277.101 197.178C277.499 197.178 277.852 197.113 278.159 196.983C278.473 196.853 278.718 196.672 278.895 196.442C279.079 196.205 279.171 195.94 279.171 195.649C279.171 195.296 279.044 194.99 278.791 194.729C278.538 194.468 278.193 194.269 277.756 194.131C277.319 193.993 276.821 193.935 276.261 193.958C275.893 193.966 275.521 194.02 275.146 194.119C274.778 194.211 274.398 194.346 274.007 194.522L274.375 195.58C274.713 195.434 275.042 195.323 275.364 195.246C275.694 195.17 276.012 195.131 276.319 195.131C276.61 195.131 276.859 195.162 277.066 195.223C277.273 195.277 277.43 195.361 277.538 195.476C277.653 195.584 277.71 195.71 277.71 195.856C277.71 196.002 277.664 196.128 277.572 196.235C277.48 196.343 277.346 196.423 277.17 196.477C277.001 196.531 276.794 196.557 276.549 196.557H275.479V197.523H276.664C277.055 197.523 277.354 197.589 277.561 197.719C277.775 197.842 277.883 198.026 277.883 198.271C277.883 198.44 277.818 198.589 277.687 198.719C277.565 198.85 277.388 198.949 277.158 199.018C276.928 199.08 276.652 199.11 276.33 199.11C275.955 199.11 275.579 199.064 275.203 198.972C274.828 198.88 274.49 198.75 274.191 198.581L273.789 199.651C274.157 199.858 274.567 200.019 275.019 200.134C275.479 200.241 275.943 200.295 276.411 200.295ZM280.824 200.191V194.05H283.825C284.569 194.05 285.151 194.188 285.573 194.464C286.002 194.74 286.217 195.131 286.217 195.637C286.217 196.136 286.018 196.527 285.619 196.81C285.22 197.086 284.691 197.224 284.032 197.224L284.205 196.868C284.948 196.868 285.5 197.006 285.861 197.282C286.229 197.55 286.413 197.945 286.413 198.466C286.413 199.011 286.209 199.436 285.803 199.743C285.397 200.042 284.78 200.191 283.952 200.191H280.824ZM282.192 199.145H283.837C284.228 199.145 284.523 199.084 284.722 198.961C284.921 198.831 285.021 198.635 285.021 198.374C285.021 198.098 284.929 197.895 284.745 197.765C284.561 197.635 284.274 197.569 283.883 197.569H282.192V199.145ZM282.192 196.615H283.699C284.067 196.615 284.343 196.55 284.527 196.419C284.718 196.281 284.814 196.09 284.814 195.844C284.814 195.591 284.718 195.404 284.527 195.281C284.343 195.158 284.067 195.097 283.699 195.097H282.192V196.615ZM287.944 200.191V194.05H289.381V198.098L292.774 194.05H294.085V200.191H292.647V196.143L289.266 200.191H287.944ZM297.295 200.191V194.924L297.628 195.269H295.133V194.05H300.883V195.269H298.399L298.732 194.924V200.191H297.295ZM301.926 200.191V194.05H303.363V198.098L306.756 194.05H308.067V200.191H306.629V196.143L303.248 200.191H301.926ZM313.899 200.191V198.098L314.106 198.34H312.266C311.423 198.34 310.759 198.164 310.276 197.811C309.801 197.451 309.563 196.933 309.563 196.258C309.563 195.538 309.816 194.99 310.322 194.614C310.836 194.238 311.518 194.05 312.369 194.05H315.187V200.191H313.899ZM309.483 200.191L311.139 197.845H312.611L311.024 200.191H309.483ZM313.899 197.638V194.878L314.106 195.258H312.415C311.971 195.258 311.626 195.342 311.38 195.511C311.143 195.672 311.024 195.936 311.024 196.304C311.024 196.994 311.472 197.339 312.369 197.339H314.106L313.899 197.638ZM252.688 216.191V210.924L253.021 211.269H250.526V210.05H256.276V211.269H253.792L254.125 210.924V216.191H252.688ZM259.912 216.272C259.23 216.272 258.632 216.138 258.118 215.869C257.612 215.593 257.217 215.218 256.934 214.742C256.658 214.267 256.52 213.727 256.52 213.121C256.52 212.508 256.654 211.967 256.922 211.499C257.198 211.024 257.574 210.652 258.049 210.384C258.532 210.116 259.08 209.981 259.694 209.981C260.292 209.981 260.825 210.112 261.292 210.372C261.76 210.633 262.128 211.001 262.396 211.476C262.665 211.952 262.799 212.511 262.799 213.155C262.799 213.217 262.795 213.286 262.787 213.362C262.787 213.439 262.783 213.512 262.776 213.581H257.658V212.626H262.017L261.453 212.925C261.461 212.573 261.388 212.262 261.235 211.994C261.081 211.726 260.871 211.515 260.602 211.361C260.342 211.208 260.039 211.131 259.694 211.131C259.341 211.131 259.031 211.208 258.762 211.361C258.502 211.515 258.295 211.729 258.141 212.005C257.996 212.274 257.923 212.592 257.923 212.96V213.19C257.923 213.558 258.007 213.884 258.176 214.167C258.344 214.451 258.582 214.67 258.889 214.823C259.195 214.976 259.548 215.053 259.947 215.053C260.292 215.053 260.602 214.999 260.878 214.892C261.154 214.785 261.4 214.616 261.614 214.386L262.385 215.271C262.109 215.593 261.76 215.843 261.338 216.019C260.924 216.188 260.449 216.272 259.912 216.272ZM267.775 216.272C267.277 216.272 266.821 216.157 266.407 215.927C266 215.697 265.674 215.352 265.429 214.892C265.191 214.424 265.073 213.834 265.073 213.121C265.073 212.4 265.188 211.81 265.418 211.35C265.655 210.89 265.977 210.549 266.384 210.326C266.79 210.096 267.254 209.981 267.775 209.981C268.381 209.981 268.914 210.112 269.374 210.372C269.841 210.633 270.209 210.997 270.478 211.465C270.754 211.933 270.892 212.485 270.892 213.121C270.892 213.757 270.754 214.313 270.478 214.788C270.209 215.256 269.841 215.62 269.374 215.881C268.914 216.142 268.381 216.272 267.775 216.272ZM264.371 218.422V210.05H265.74V211.499L265.694 213.132L265.809 214.765V218.422H264.371ZM267.614 215.041C267.959 215.041 268.266 214.965 268.534 214.811C268.81 214.658 269.029 214.436 269.19 214.144C269.351 213.853 269.431 213.512 269.431 213.121C269.431 212.722 269.351 212.381 269.19 212.097C269.029 211.806 268.81 211.584 268.534 211.43C268.266 211.277 267.959 211.2 267.614 211.2C267.269 211.2 266.959 211.277 266.683 211.43C266.407 211.584 266.188 211.806 266.027 212.097C265.866 212.381 265.786 212.722 265.786 213.121C265.786 213.512 265.866 213.853 266.027 214.144C266.188 214.436 266.407 214.658 266.683 214.811C266.959 214.965 267.269 215.041 267.614 215.041ZM275.726 216.272C275.228 216.272 274.772 216.157 274.358 215.927C273.951 215.697 273.626 215.352 273.38 214.892C273.143 214.424 273.024 213.834 273.024 213.121C273.024 212.4 273.139 211.81 273.369 211.35C273.606 210.89 273.928 210.549 274.335 210.326C274.741 210.096 275.205 209.981 275.726 209.981C276.332 209.981 276.865 210.112 277.325 210.372C277.792 210.633 278.16 210.997 278.429 211.465C278.705 211.933 278.843 212.485 278.843 213.121C278.843 213.757 278.705 214.313 278.429 214.788C278.16 215.256 277.792 215.62 277.325 215.881C276.865 216.142 276.332 216.272 275.726 216.272ZM272.322 218.422V210.05H273.691V211.499L273.645 213.132L273.76 214.765V218.422H272.322ZM275.565 215.041C275.91 215.041 276.217 214.965 276.485 214.811C276.761 214.658 276.98 214.436 277.141 214.144C277.302 213.853 277.382 213.512 277.382 213.121C277.382 212.722 277.302 212.381 277.141 212.097C276.98 211.806 276.761 211.584 276.485 211.43C276.217 211.277 275.91 211.2 275.565 211.2C275.22 211.2 274.91 211.277 274.634 211.43C274.358 211.584 274.139 211.806 273.978 212.097C273.817 212.381 273.737 212.722 273.737 213.121C273.737 213.512 273.817 213.853 273.978 214.144C274.139 214.436 274.358 214.658 274.634 214.811C274.91 214.965 275.22 215.041 275.565 215.041ZM280.273 216.191V210.05H281.711V214.098L285.103 210.05H286.414V216.191H284.977V212.143L281.596 216.191H280.273ZM289.625 216.191V210.924L289.958 211.269H287.463V210.05H293.213V211.269H290.729L291.062 210.924V216.191H289.625ZM296.723 216.272C296.094 216.272 295.534 216.138 295.044 215.869C294.553 215.593 294.166 215.218 293.882 214.742C293.599 214.267 293.457 213.727 293.457 213.121C293.457 212.508 293.599 211.967 293.882 211.499C294.166 211.024 294.553 210.652 295.044 210.384C295.534 210.116 296.094 209.981 296.723 209.981C297.359 209.981 297.923 210.116 298.413 210.384C298.912 210.652 299.299 211.02 299.575 211.488C299.858 211.956 300 212.5 300 213.121C300 213.727 299.858 214.267 299.575 214.742C299.299 215.218 298.912 215.593 298.413 215.869C297.923 216.138 297.359 216.272 296.723 216.272ZM296.723 215.041C297.075 215.041 297.39 214.965 297.666 214.811C297.942 214.658 298.156 214.436 298.31 214.144C298.471 213.853 298.551 213.512 298.551 213.121C298.551 212.722 298.471 212.381 298.31 212.097C298.156 211.806 297.942 211.584 297.666 211.43C297.39 211.277 297.079 211.2 296.734 211.2C296.382 211.2 296.067 211.277 295.791 211.43C295.523 211.584 295.308 211.806 295.147 212.097C294.986 212.381 294.906 212.722 294.906 213.121C294.906 213.512 294.986 213.853 295.147 214.144C295.308 214.436 295.523 214.658 295.791 214.811C296.067 214.965 296.378 215.041 296.723 215.041ZM304.824 216.272C304.326 216.272 303.87 216.157 303.456 215.927C303.05 215.697 302.724 215.352 302.478 214.892C302.241 214.424 302.122 213.834 302.122 213.121C302.122 212.4 302.237 211.81 302.467 211.35C302.705 210.89 303.027 210.549 303.433 210.326C303.839 210.096 304.303 209.981 304.824 209.981C305.43 209.981 305.963 210.112 306.423 210.372C306.891 210.633 307.259 210.997 307.527 211.465C307.803 211.933 307.941 212.485 307.941 213.121C307.941 213.757 307.803 214.313 307.527 214.788C307.259 215.256 306.891 215.62 306.423 215.881C305.963 216.142 305.43 216.272 304.824 216.272ZM301.42 218.422V210.05H302.789V211.499L302.743 213.132L302.858 214.765V218.422H301.42ZM304.663 215.041C305.008 215.041 305.315 214.965 305.583 214.811C305.859 214.658 306.078 214.436 306.239 214.144C306.4 213.853 306.48 213.512 306.48 213.121C306.48 212.722 306.4 212.381 306.239 212.097C306.078 211.806 305.859 211.584 305.583 211.43C305.315 211.277 305.008 211.2 304.663 211.2C304.318 211.2 304.008 211.277 303.732 211.43C303.456 211.584 303.237 211.806 303.076 212.097C302.915 212.381 302.835 212.722 302.835 213.121C302.835 213.512 302.915 213.853 303.076 214.144C303.237 214.436 303.456 214.658 303.732 214.811C304.008 214.965 304.318 215.041 304.663 215.041ZM309.372 216.191V210.05H310.809V214.098L314.202 210.05H315.513V216.191H314.075V212.143L310.694 216.191H309.372ZM317.446 216.191V210.05H318.884V214.098L322.276 210.05H323.587V216.191H322.15V212.143L318.769 216.191H317.446Z" fill="black"/>
<path d="M392.84 299.639C391.881 299.639 391.061 299.505 390.379 299.237C389.696 298.961 389.171 298.562 388.803 298.041C388.435 297.52 388.251 296.891 388.251 296.155C388.251 295.419 388.435 294.794 388.803 294.28C389.171 293.759 389.696 293.36 390.379 293.084C391.061 292.808 391.881 292.67 392.84 292.67C392.847 292.67 392.866 292.67 392.897 292.67C392.928 292.67 392.958 292.67 392.989 292.67C393.02 292.67 393.039 292.67 393.047 292.67C394.013 292.67 394.837 292.808 395.519 293.084C396.201 293.36 396.727 293.759 397.095 294.28C397.463 294.794 397.647 295.419 397.647 296.155C397.647 296.891 397.463 297.52 397.095 298.041C396.734 298.562 396.213 298.961 395.531 299.237C394.848 299.505 394.032 299.639 393.081 299.639C393.066 299.639 393.039 299.639 393.001 299.639C392.97 299.639 392.935 299.639 392.897 299.639C392.866 299.639 392.847 299.639 392.84 299.639ZM392.932 298.972C392.947 298.972 392.962 298.972 392.978 298.972C392.993 298.972 393.004 298.972 393.012 298.972C393.817 298.965 394.503 298.854 395.071 298.639C395.646 298.417 396.083 298.098 396.382 297.684C396.681 297.263 396.83 296.753 396.83 296.155C396.83 295.549 396.677 295.039 396.37 294.625C396.071 294.211 395.638 293.897 395.071 293.682C394.511 293.46 393.832 293.349 393.035 293.349C393.027 293.349 393.012 293.349 392.989 293.349C392.966 293.349 392.947 293.349 392.932 293.349C392.119 293.349 391.425 293.456 390.85 293.671C390.275 293.886 389.834 294.204 389.528 294.625C389.221 295.039 389.068 295.549 389.068 296.155C389.068 296.768 389.221 297.286 389.528 297.707C389.842 298.121 390.287 298.436 390.862 298.65C391.444 298.865 392.134 298.972 392.932 298.972ZM392.552 300.467V291.865H393.346V300.467H392.552ZM399.383 300.191V294.154H400.199V298.949L404.236 294.154H404.96V300.191H404.144V295.384L400.119 300.191H399.383ZM407.3 300.191V294.154H408.117V296.822H411.923V294.154H412.74V300.191H411.923V297.523H408.117V300.191H407.3ZM418.81 300.191V298.857L418.775 298.639V296.408C418.775 295.894 418.63 295.499 418.338 295.223C418.055 294.947 417.629 294.809 417.062 294.809C416.671 294.809 416.299 294.875 415.946 295.005C415.594 295.135 415.295 295.308 415.049 295.522L414.681 294.913C414.988 294.652 415.356 294.453 415.785 294.315C416.215 294.169 416.667 294.096 417.142 294.096C417.924 294.096 418.526 294.292 418.948 294.683C419.377 295.066 419.592 295.653 419.592 296.442V300.191H418.81ZM416.728 300.249C416.276 300.249 415.881 300.176 415.544 300.03C415.214 299.877 414.961 299.67 414.785 299.409C414.608 299.141 414.52 298.834 414.52 298.489C414.52 298.175 414.593 297.891 414.739 297.638C414.892 297.378 415.137 297.171 415.475 297.017C415.82 296.856 416.28 296.776 416.855 296.776H418.936V297.385H416.878C416.295 297.385 415.889 297.489 415.659 297.696C415.436 297.903 415.325 298.16 415.325 298.466C415.325 298.811 415.459 299.087 415.728 299.294C415.996 299.501 416.372 299.605 416.855 299.605C417.315 299.605 417.71 299.501 418.039 299.294C418.377 299.08 418.622 298.773 418.775 298.374L418.959 298.938C418.806 299.337 418.538 299.655 418.154 299.892C417.779 300.13 417.303 300.249 416.728 300.249ZM421.765 300.191V294.154H422.582V296.822H426.388V294.154H427.205V300.191H426.388V297.523H422.582V300.191H421.765ZM432.056 300.249C431.458 300.249 430.921 300.119 430.446 299.858C429.978 299.59 429.61 299.225 429.342 298.765C429.073 298.298 428.939 297.765 428.939 297.167C428.939 296.561 429.073 296.028 429.342 295.568C429.61 295.108 429.978 294.748 430.446 294.487C430.921 294.227 431.458 294.096 432.056 294.096C432.569 294.096 433.033 294.196 433.447 294.395C433.861 294.595 434.187 294.894 434.425 295.292L433.815 295.706C433.608 295.4 433.351 295.174 433.045 295.028C432.738 294.882 432.404 294.809 432.044 294.809C431.615 294.809 431.228 294.909 430.883 295.108C430.538 295.3 430.265 295.572 430.066 295.925C429.867 296.278 429.767 296.692 429.767 297.167C429.767 297.642 429.867 298.056 430.066 298.409C430.265 298.762 430.538 299.038 430.883 299.237C431.228 299.429 431.615 299.524 432.044 299.524C432.404 299.524 432.738 299.452 433.045 299.306C433.351 299.16 433.608 298.938 433.815 298.639L434.425 299.053C434.187 299.444 433.861 299.743 433.447 299.95C433.033 300.149 432.569 300.249 432.056 300.249ZM438.388 300.249C437.806 300.249 437.281 300.119 436.813 299.858C436.353 299.59 435.989 299.225 435.72 298.765C435.452 298.298 435.318 297.765 435.318 297.167C435.318 296.561 435.452 296.028 435.72 295.568C435.989 295.108 436.353 294.748 436.813 294.487C437.273 294.227 437.798 294.096 438.388 294.096C438.986 294.096 439.515 294.227 439.975 294.487C440.443 294.748 440.807 295.108 441.068 295.568C441.336 296.028 441.47 296.561 441.47 297.167C441.47 297.765 441.336 298.298 441.068 298.765C440.807 299.225 440.443 299.59 439.975 299.858C439.508 300.119 438.979 300.249 438.388 300.249ZM438.388 299.524C438.825 299.524 439.213 299.429 439.55 299.237C439.887 299.038 440.152 298.762 440.343 298.409C440.543 298.049 440.642 297.635 440.642 297.167C440.642 296.692 440.543 296.278 440.343 295.925C440.152 295.572 439.887 295.3 439.55 295.108C439.213 294.909 438.829 294.809 438.4 294.809C437.971 294.809 437.587 294.909 437.25 295.108C436.913 295.3 436.644 295.572 436.445 295.925C436.246 296.278 436.146 296.692 436.146 297.167C436.146 297.635 436.246 298.049 436.445 298.409C436.644 298.762 436.913 299.038 437.25 299.237C437.587 299.429 437.967 299.524 438.388 299.524ZM443.215 300.191V294.154H445.883C446.566 294.154 447.102 294.284 447.493 294.545C447.892 294.806 448.091 295.189 448.091 295.695C448.091 296.186 447.904 296.565 447.528 296.833C447.152 297.094 446.658 297.224 446.044 297.224L446.205 296.983C446.926 296.983 447.455 297.117 447.792 297.385C448.13 297.654 448.298 298.041 448.298 298.547C448.298 299.068 448.107 299.475 447.723 299.766C447.348 300.05 446.761 300.191 445.964 300.191H443.215ZM444.009 299.547H445.929C446.443 299.547 446.83 299.467 447.091 299.306C447.359 299.137 447.493 298.869 447.493 298.501C447.493 298.133 447.375 297.865 447.137 297.696C446.899 297.527 446.524 297.443 446.01 297.443H444.009V299.547ZM444.009 296.833H445.826C446.294 296.833 446.65 296.745 446.895 296.569C447.148 296.393 447.275 296.136 447.275 295.798C447.275 295.461 447.148 295.208 446.895 295.039C446.65 294.871 446.294 294.786 445.826 294.786H444.009V296.833ZM453.961 300.191V298.857L453.927 298.639V296.408C453.927 295.894 453.781 295.499 453.49 295.223C453.206 294.947 452.78 294.809 452.213 294.809C451.822 294.809 451.45 294.875 451.098 295.005C450.745 295.135 450.446 295.308 450.201 295.522L449.833 294.913C450.139 294.652 450.507 294.453 450.937 294.315C451.366 294.169 451.818 294.096 452.294 294.096C453.076 294.096 453.677 294.292 454.099 294.683C454.528 295.066 454.743 295.653 454.743 296.442V300.191H453.961ZM451.88 300.249C451.427 300.249 451.032 300.176 450.695 300.03C450.365 299.877 450.112 299.67 449.936 299.409C449.76 299.141 449.672 298.834 449.672 298.489C449.672 298.175 449.744 297.891 449.89 297.638C450.043 297.378 450.289 297.171 450.626 297.017C450.971 296.856 451.431 296.776 452.006 296.776H454.088V297.385H452.029C451.446 297.385 451.04 297.489 450.81 297.696C450.588 297.903 450.477 298.16 450.477 298.466C450.477 298.811 450.611 299.087 450.879 299.294C451.147 299.501 451.523 299.605 452.006 299.605C452.466 299.605 452.861 299.501 453.191 299.294C453.528 299.08 453.773 298.773 453.927 298.374L454.111 298.938C453.957 299.337 453.689 299.655 453.306 299.892C452.93 300.13 452.455 300.249 451.88 300.249ZM460.815 300.191V298.018L460.965 298.19H458.918C458.143 298.19 457.538 298.022 457.101 297.684C456.664 297.347 456.445 296.856 456.445 296.212C456.445 295.522 456.679 295.009 457.147 294.671C457.614 294.326 458.239 294.154 459.021 294.154H461.563V300.191H460.815ZM456.399 300.191L458.055 297.868H458.906L457.285 300.191H456.399ZM460.815 297.776V294.625L460.965 294.867H459.044C458.484 294.867 458.047 294.974 457.733 295.189C457.426 295.404 457.273 295.752 457.273 296.235C457.273 297.132 457.844 297.581 458.987 297.581H460.965L460.815 297.776ZM466.901 300.191V294.154H467.729L470.466 298.788H470.121L472.904 294.154H473.663V300.191H472.915V295.085L473.065 295.154L470.466 299.455H470.098L467.476 295.108L467.648 295.074V300.191H466.901ZM478.47 300.249C477.887 300.249 477.362 300.119 476.894 299.858C476.434 299.59 476.07 299.225 475.802 298.765C475.534 298.298 475.399 297.765 475.399 297.167C475.399 296.561 475.534 296.028 475.802 295.568C476.07 295.108 476.434 294.748 476.894 294.487C477.354 294.227 477.88 294.096 478.47 294.096C479.068 294.096 479.597 294.227 480.057 294.487C480.525 294.748 480.889 295.108 481.149 295.568C481.418 296.028 481.552 296.561 481.552 297.167C481.552 297.765 481.418 298.298 481.149 298.765C480.889 299.225 480.525 299.59 480.057 299.858C479.589 300.119 479.06 300.249 478.47 300.249ZM478.47 299.524C478.907 299.524 479.294 299.429 479.631 299.237C479.969 299.038 480.233 298.762 480.425 298.409C480.624 298.049 480.724 297.635 480.724 297.167C480.724 296.692 480.624 296.278 480.425 295.925C480.233 295.572 479.969 295.3 479.631 295.108C479.294 294.909 478.911 294.809 478.481 294.809C478.052 294.809 477.669 294.909 477.331 295.108C476.994 295.3 476.726 295.572 476.526 295.925C476.327 296.278 476.227 296.692 476.227 297.167C476.227 297.635 476.327 298.049 476.526 298.409C476.726 298.762 476.994 299.038 477.331 299.237C477.669 299.429 478.048 299.524 478.47 299.524ZM487.403 299.8V294.867H484.494L484.425 296.212C484.409 296.619 484.383 297.017 484.344 297.408C484.314 297.799 484.256 298.16 484.172 298.489C484.095 298.811 483.984 299.076 483.838 299.283C483.693 299.482 483.505 299.597 483.275 299.628L482.458 299.478C482.696 299.486 482.891 299.402 483.045 299.225C483.198 299.041 483.317 298.792 483.401 298.478C483.486 298.164 483.547 297.807 483.585 297.408C483.624 297.002 483.654 296.588 483.677 296.166L483.758 294.154H488.22V299.8H487.403ZM482.205 301.652V299.478H489.163V301.652H488.392V300.191H482.976V301.652H482.205ZM493.342 300.249C492.713 300.249 492.161 300.119 491.686 299.858C491.21 299.59 490.838 299.225 490.57 298.765C490.302 298.298 490.168 297.765 490.168 297.167C490.168 296.569 490.294 296.04 490.547 295.58C490.808 295.12 491.16 294.76 491.605 294.499C492.057 294.231 492.563 294.096 493.123 294.096C493.69 294.096 494.193 294.227 494.63 294.487C495.074 294.74 495.423 295.101 495.676 295.568C495.929 296.028 496.056 296.561 496.056 297.167C496.056 297.205 496.052 297.247 496.044 297.293C496.044 297.332 496.044 297.374 496.044 297.42H490.789V296.81H495.607L495.285 297.052C495.285 296.615 495.189 296.228 494.998 295.89C494.814 295.545 494.561 295.277 494.239 295.085C493.917 294.894 493.545 294.798 493.123 294.798C492.709 294.798 492.337 294.894 492.008 295.085C491.678 295.277 491.421 295.545 491.237 295.89C491.053 296.235 490.961 296.63 490.961 297.075V297.201C490.961 297.661 491.061 298.068 491.26 298.42C491.467 298.765 491.751 299.038 492.111 299.237C492.479 299.429 492.897 299.524 493.365 299.524C493.733 299.524 494.074 299.459 494.388 299.329C494.71 299.199 494.986 298.999 495.216 298.731L495.676 299.26C495.408 299.582 495.07 299.827 494.664 299.996C494.265 300.165 493.825 300.249 493.342 300.249ZM496.635 300.18L496.693 299.478C496.747 299.486 496.796 299.498 496.842 299.513C496.896 299.521 496.942 299.524 496.98 299.524C497.226 299.524 497.421 299.432 497.567 299.248C497.72 299.064 497.835 298.819 497.912 298.512C497.989 298.206 498.042 297.861 498.073 297.477C498.104 297.086 498.13 296.695 498.153 296.304L498.257 294.154H502.684V300.191H501.868V294.625L502.075 294.867H498.786L498.981 294.614L498.889 296.362C498.866 296.883 498.824 297.382 498.763 297.857C498.709 298.332 498.621 298.75 498.498 299.11C498.383 299.471 498.222 299.754 498.015 299.961C497.808 300.161 497.544 300.26 497.222 300.26C497.13 300.26 497.034 300.253 496.934 300.237C496.842 300.222 496.743 300.203 496.635 300.18ZM507.604 296.281C508.363 296.289 508.938 296.458 509.329 296.787C509.728 297.117 509.927 297.592 509.927 298.213C509.927 298.857 509.713 299.352 509.283 299.697C508.862 300.042 508.248 300.211 507.443 300.203L505.005 300.191V294.154H505.822V296.258L507.604 296.281ZM507.397 299.582C507.957 299.59 508.379 299.478 508.662 299.248C508.954 299.011 509.099 298.666 509.099 298.213C509.099 297.761 508.958 297.431 508.674 297.224C508.39 297.01 507.965 296.899 507.397 296.891L505.822 296.868V299.559L507.397 299.582ZM406.374 316.191V310.154H407.19V314.949L411.227 310.154H411.951V316.191H411.135V311.384L407.11 316.191H406.374ZM420.015 316.26C419.524 316.26 419.087 316.18 418.704 316.019C418.328 315.858 418.006 315.613 417.738 315.283C417.47 314.953 417.267 314.547 417.129 314.064C416.991 313.573 416.922 313.006 416.922 312.362C416.922 311.787 416.975 311.285 417.083 310.855C417.19 310.418 417.339 310.043 417.531 309.728C417.723 309.414 417.945 309.15 418.198 308.935C418.459 308.713 418.739 308.536 419.038 308.406C419.344 308.268 419.659 308.164 419.981 308.095L422.695 307.463L422.833 308.222L420.28 308.797C420.119 308.835 419.923 308.889 419.693 308.958C419.471 309.027 419.241 309.13 419.003 309.268C418.773 309.406 418.558 309.598 418.359 309.843C418.16 310.089 417.999 310.407 417.876 310.798C417.761 311.181 417.704 311.66 417.704 312.235C417.704 312.358 417.707 312.458 417.715 312.534C417.723 312.603 417.73 312.68 417.738 312.764C417.753 312.841 417.765 312.956 417.773 313.109L417.416 312.81C417.5 312.343 417.673 311.936 417.934 311.591C418.194 311.239 418.52 310.967 418.911 310.775C419.31 310.576 419.751 310.476 420.234 310.476C420.793 310.476 421.292 310.599 421.729 310.844C422.166 311.082 422.507 311.415 422.752 311.844C423.005 312.274 423.132 312.772 423.132 313.339C423.132 313.899 423.001 314.401 422.741 314.846C422.488 315.291 422.127 315.639 421.66 315.892C421.192 316.138 420.644 316.26 420.015 316.26ZM420.107 315.582C420.536 315.582 420.916 315.486 421.246 315.294C421.575 315.095 421.832 314.827 422.016 314.489C422.208 314.152 422.304 313.773 422.304 313.351C422.304 312.937 422.208 312.569 422.016 312.247C421.832 311.925 421.575 311.672 421.246 311.488C420.916 311.296 420.533 311.2 420.096 311.2C419.666 311.2 419.287 311.292 418.957 311.476C418.627 311.653 418.367 311.902 418.175 312.224C417.991 312.546 417.899 312.918 417.899 313.339C417.899 313.761 417.991 314.141 418.175 314.478C418.367 314.815 418.627 315.084 418.957 315.283C419.294 315.482 419.678 315.582 420.107 315.582ZM424.882 316.191V310.154H425.698V314.949L429.735 310.154H430.459V316.191H429.643V311.384L425.618 316.191H424.882ZM434.297 316.26C434.795 316.26 435.244 316.184 435.643 316.03C436.049 315.877 436.371 315.666 436.609 315.398C436.846 315.122 436.965 314.804 436.965 314.443C436.965 313.983 436.77 313.619 436.379 313.351C435.995 313.083 435.459 312.948 434.769 312.948L434.734 313.167C435.125 313.167 435.474 313.106 435.781 312.983C436.087 312.86 436.333 312.688 436.517 312.465C436.701 312.243 436.793 311.982 436.793 311.683C436.793 311.346 436.678 311.059 436.448 310.821C436.218 310.576 435.907 310.388 435.516 310.257C435.133 310.127 434.7 310.07 434.217 310.085C433.864 310.085 433.511 310.135 433.159 310.234C432.814 310.326 432.465 310.464 432.112 310.648L432.342 311.281C432.656 311.12 432.975 311.001 433.297 310.924C433.619 310.84 433.929 310.794 434.228 310.786C434.558 310.786 434.853 310.825 435.114 310.901C435.374 310.978 435.577 311.093 435.723 311.246C435.876 311.4 435.953 311.584 435.953 311.798C435.953 311.998 435.888 312.17 435.758 312.316C435.635 312.462 435.459 312.573 435.229 312.649C434.999 312.726 434.734 312.764 434.435 312.764H433.458V313.362H434.493C434.999 313.362 435.397 313.454 435.689 313.638C435.98 313.815 436.126 314.064 436.126 314.386C436.126 314.608 436.049 314.808 435.896 314.984C435.742 315.16 435.528 315.298 435.252 315.398C434.976 315.498 434.65 315.551 434.274 315.559C433.898 315.559 433.519 315.505 433.136 315.398C432.752 315.283 432.415 315.118 432.124 314.903L431.859 315.513C432.189 315.766 432.568 315.954 432.998 316.076C433.427 316.199 433.86 316.26 434.297 316.26ZM438.819 316.191V310.154H439.635V312.822H443.442V310.154H444.258V316.191H443.442V313.523H439.635V316.191H438.819ZM449.166 316.249C448.538 316.249 447.986 316.119 447.51 315.858C447.035 315.59 446.663 315.225 446.395 314.765C446.127 314.298 445.992 313.765 445.992 313.167C445.992 312.569 446.119 312.04 446.372 311.58C446.633 311.12 446.985 310.76 447.43 310.499C447.882 310.231 448.388 310.096 448.948 310.096C449.515 310.096 450.017 310.227 450.454 310.487C450.899 310.74 451.248 311.101 451.501 311.568C451.754 312.028 451.88 312.561 451.88 313.167C451.88 313.205 451.877 313.247 451.869 313.293C451.869 313.332 451.869 313.374 451.869 313.42H446.613V312.81H451.432L451.11 313.052C451.11 312.615 451.014 312.228 450.822 311.89C450.638 311.545 450.385 311.277 450.063 311.085C449.741 310.894 449.37 310.798 448.948 310.798C448.534 310.798 448.162 310.894 447.832 311.085C447.503 311.277 447.246 311.545 447.062 311.89C446.878 312.235 446.786 312.63 446.786 313.075V313.201C446.786 313.661 446.886 314.068 447.085 314.42C447.292 314.765 447.576 315.038 447.936 315.237C448.304 315.429 448.722 315.524 449.189 315.524C449.557 315.524 449.899 315.459 450.213 315.329C450.535 315.199 450.811 314.999 451.041 314.731L451.501 315.26C451.233 315.582 450.895 315.827 450.489 315.996C450.09 316.165 449.649 316.249 449.166 316.249ZM456.218 316.249C455.62 316.249 455.083 316.119 454.608 315.858C454.14 315.59 453.772 315.225 453.504 314.765C453.236 314.298 453.101 313.765 453.101 313.167C453.101 312.561 453.236 312.028 453.504 311.568C453.772 311.108 454.14 310.748 454.608 310.487C455.083 310.227 455.62 310.096 456.218 310.096C456.732 310.096 457.195 310.196 457.609 310.395C458.023 310.595 458.349 310.894 458.587 311.292L457.977 311.706C457.77 311.4 457.514 311.174 457.207 311.028C456.9 310.882 456.567 310.809 456.206 310.809C455.777 310.809 455.39 310.909 455.045 311.108C454.7 311.3 454.428 311.572 454.228 311.925C454.029 312.278 453.929 312.692 453.929 313.167C453.929 313.642 454.029 314.056 454.228 314.409C454.428 314.762 454.7 315.038 455.045 315.237C455.39 315.429 455.777 315.524 456.206 315.524C456.567 315.524 456.9 315.452 457.207 315.306C457.514 315.16 457.77 314.938 457.977 314.639L458.587 315.053C458.349 315.444 458.023 315.743 457.609 315.95C457.195 316.149 456.732 316.249 456.218 316.249ZM459.607 313.431V312.718H462.62V313.431H459.607ZM464.469 316.191V310.154H469.897V316.191H469.081V310.648L469.288 310.867H465.079L465.286 310.648V316.191H464.469ZM471.114 316.18L471.172 315.478C471.225 315.486 471.275 315.498 471.321 315.513C471.375 315.521 471.421 315.524 471.459 315.524C471.704 315.524 471.9 315.432 472.046 315.248C472.199 315.064 472.314 314.819 472.391 314.512C472.467 314.206 472.521 313.861 472.552 313.477C472.582 313.086 472.609 312.695 472.632 312.304L472.736 310.154H477.163V316.191H476.347V310.625L476.554 310.867H473.265L473.46 310.614L473.368 312.362C473.345 312.883 473.303 313.382 473.242 313.857C473.188 314.332 473.1 314.75 472.977 315.11C472.862 315.471 472.701 315.754 472.494 315.961C472.287 316.161 472.023 316.26 471.701 316.26C471.609 316.26 471.513 316.253 471.413 316.237C471.321 316.222 471.221 316.203 471.114 316.18ZM483.233 316.191V314.857L483.199 314.639V312.408C483.199 311.894 483.053 311.499 482.762 311.223C482.478 310.947 482.053 310.809 481.485 310.809C481.094 310.809 480.722 310.875 480.37 311.005C480.017 311.135 479.718 311.308 479.473 311.522L479.105 310.913C479.411 310.652 479.779 310.453 480.209 310.315C480.638 310.169 481.09 310.096 481.566 310.096C482.348 310.096 482.95 310.292 483.371 310.683C483.801 311.066 484.015 311.653 484.015 312.442V316.191H483.233ZM481.152 316.249C480.699 316.249 480.305 316.176 479.967 316.03C479.638 315.877 479.385 315.67 479.208 315.409C479.032 315.141 478.944 314.834 478.944 314.489C478.944 314.175 479.017 313.891 479.162 313.638C479.316 313.378 479.561 313.171 479.898 313.017C480.243 312.856 480.703 312.776 481.278 312.776H483.36V313.385H481.301C480.719 313.385 480.312 313.489 480.082 313.696C479.86 313.903 479.749 314.16 479.749 314.466C479.749 314.811 479.883 315.087 480.151 315.294C480.42 315.501 480.795 315.605 481.278 315.605C481.738 315.605 482.133 315.501 482.463 315.294C482.8 315.08 483.045 314.773 483.199 314.374L483.383 314.938C483.229 315.337 482.961 315.655 482.578 315.892C482.202 316.13 481.727 316.249 481.152 316.249ZM486.189 316.191V310.154H487.005V312.822H490.812V310.154H491.628V316.191H490.812V313.523H487.005V316.191H486.189Z" fill="black"/>
<path d="M51.8912 59.1914V51.1414H57.7792V51.8659H52.7307V54.4994H55.3642C56.3148 54.4994 57.0355 54.6949 57.5262 55.0859C58.0245 55.4692 58.2737 56.0366 58.2737 56.7879C58.2737 57.5622 58.0053 58.1564 57.4687 58.5704C56.9397 58.9844 56.1768 59.1914 55.1802 59.1914H51.8912ZM52.7307 58.5129H55.1687C55.9123 58.5129 56.472 58.3711 56.8477 58.0874C57.231 57.7961 57.4227 57.3744 57.4227 56.8224C57.4227 55.7261 56.6713 55.1779 55.1687 55.1779H52.7307V58.5129ZM60.0399 59.1914V53.1539H60.8564V57.9494L64.8929 53.1539H65.6174V59.1914H64.8009V54.3844L60.7759 59.1914H60.0399ZM69.4554 59.2604C69.9537 59.2604 70.4022 59.1837 70.8009 59.0304C71.2072 58.8771 71.5292 58.6662 71.7669 58.3979C72.0045 58.1219 72.1234 57.8037 72.1234 57.4434C72.1234 56.9834 71.9279 56.6192 71.5369 56.3509C71.1535 56.0826 70.6169 55.9484 69.9269 55.9484L69.8924 56.1669C70.2834 56.1669 70.6322 56.1056 70.9389 55.9829C71.2455 55.8602 71.4909 55.6877 71.6749 55.4654C71.8589 55.2431 71.9509 54.9824 71.9509 54.6834C71.9509 54.3461 71.8359 54.0586 71.6059 53.8209C71.3759 53.5756 71.0654 53.3877 70.6744 53.2574C70.291 53.1271 69.8579 53.0696 69.3749 53.0849C69.0222 53.0849 68.6695 53.1347 68.3169 53.2344C67.9719 53.3264 67.623 53.4644 67.2704 53.6484L67.5004 54.2809C67.8147 54.1199 68.1329 54.0011 68.4549 53.9244C68.7769 53.8401 69.0874 53.7941 69.3864 53.7864C69.716 53.7864 70.0112 53.8247 70.2719 53.9014C70.5325 53.9781 70.7357 54.0931 70.8814 54.2464C71.0347 54.3997 71.1114 54.5837 71.1114 54.7984C71.1114 54.9977 71.0462 55.1702 70.9159 55.3159C70.7932 55.4616 70.6169 55.5727 70.3869 55.6494C70.1569 55.7261 69.8924 55.7644 69.5934 55.7644H68.6159V56.3624H69.6509C70.1569 56.3624 70.5555 56.4544 70.8469 56.6384C71.1382 56.8147 71.2839 57.0639 71.2839 57.3859C71.2839 57.6082 71.2072 57.8076 71.0539 57.9839C70.9005 58.1602 70.6859 58.2982 70.4099 58.3979C70.1339 58.4976 69.808 58.5512 69.4324 58.5589C69.0567 58.5589 68.6772 58.5052 68.2939 58.3979C67.9105 58.2829 67.5732 58.1181 67.2819 57.9034L67.0174 58.5129C67.347 58.7659 67.7265 58.9537 68.1559 59.0764C68.5852 59.1991 69.0184 59.2604 69.4554 59.2604ZM73.9769 59.1914V53.1539H74.7934V55.8219H78.5999V53.1539H79.4164V59.1914H78.5999V56.5234H74.7934V59.1914H73.9769ZM84.3247 59.2489C83.696 59.2489 83.144 59.1186 82.6687 58.8579C82.1934 58.5896 81.8215 58.2254 81.5532 57.7654C81.2849 57.2977 81.1507 56.7649 81.1507 56.1669C81.1507 55.5689 81.2772 55.0399 81.5302 54.5799C81.7909 54.1199 82.1435 53.7596 82.5882 53.4989C83.0405 53.2306 83.5465 53.0964 84.1062 53.0964C84.6735 53.0964 85.1757 53.2267 85.6127 53.4874C86.0574 53.7404 86.4062 54.1007 86.6592 54.5684C86.9122 55.0284 87.0387 55.5612 87.0387 56.1669C87.0387 56.2052 87.0349 56.2474 87.0272 56.2934C87.0272 56.3317 87.0272 56.3739 87.0272 56.4199H81.7717V55.8104H86.5902L86.2682 56.0519C86.2682 55.6149 86.1724 55.2277 85.9807 54.8904C85.7967 54.5454 85.5437 54.2771 85.2217 54.0854C84.8997 53.8937 84.5279 53.7979 84.1062 53.7979C83.6922 53.7979 83.3204 53.8937 82.9907 54.0854C82.661 54.2771 82.4042 54.5454 82.2202 54.8904C82.0362 55.2354 81.9442 55.6302 81.9442 56.0749V56.2014C81.9442 56.6614 82.0439 57.0677 82.2432 57.4204C82.4502 57.7654 82.7339 58.0376 83.0942 58.2369C83.4622 58.4286 83.88 58.5244 84.3477 58.5244C84.7157 58.5244 85.0569 58.4592 85.3712 58.3289C85.6932 58.1986 85.9692 57.9992 86.1992 57.7309L86.6592 58.2599C86.3909 58.5819 86.0535 58.8272 85.6472 58.9959C85.2485 59.1646 84.8077 59.2489 84.3247 59.2489ZM91.3761 59.2489C90.7781 59.2489 90.2414 59.1186 89.7661 58.8579C89.2984 58.5896 88.9304 58.2254 88.6621 57.7654C88.3937 57.2977 88.2596 56.7649 88.2596 56.1669C88.2596 55.5612 88.3937 55.0284 88.6621 54.5684C88.9304 54.1084 89.2984 53.7481 89.7661 53.4874C90.2414 53.2267 90.7781 53.0964 91.3761 53.0964C91.8897 53.0964 92.3536 53.1961 92.7676 53.3954C93.1816 53.5947 93.5074 53.8937 93.7451 54.2924L93.1356 54.7064C92.9286 54.3997 92.6717 54.1736 92.3651 54.0279C92.0584 53.8822 91.7249 53.8094 91.3646 53.8094C90.9352 53.8094 90.5481 53.9091 90.2031 54.1084C89.8581 54.3001 89.5859 54.5722 89.3866 54.9249C89.1872 55.2776 89.0876 55.6916 89.0876 56.1669C89.0876 56.6422 89.1872 57.0562 89.3866 57.4089C89.5859 57.7616 89.8581 58.0376 90.2031 58.2369C90.5481 58.4286 90.9352 58.5244 91.3646 58.5244C91.7249 58.5244 92.0584 58.4516 92.3651 58.3059C92.6717 58.1602 92.9286 57.9379 93.1356 57.6389L93.7451 58.0529C93.5074 58.4439 93.1816 58.7429 92.7676 58.9499C92.3536 59.1492 91.8897 59.2489 91.3761 59.2489ZM94.7647 56.4314V55.7184H97.7777V56.4314H94.7647ZM48.8355 75.1914V73.8574L48.801 73.6389V71.4079C48.801 70.8942 48.6554 70.4994 48.364 70.2234C48.0804 69.9474 47.6549 69.8094 47.0875 69.8094C46.6965 69.8094 46.3247 69.8746 45.972 70.0049C45.6194 70.1352 45.3204 70.3077 45.075 70.5224L44.707 69.9129C45.0137 69.6522 45.3817 69.4529 45.811 69.3149C46.2404 69.1692 46.6927 69.0964 47.168 69.0964C47.95 69.0964 48.5519 69.2919 48.9735 69.6829C49.4029 70.0662 49.6175 70.6527 49.6175 71.4424V75.1914H48.8355ZM46.754 75.2489C46.3017 75.2489 45.9069 75.1761 45.5695 75.0304C45.2399 74.8771 44.9869 74.6701 44.8105 74.4094C44.6342 74.1411 44.546 73.8344 44.546 73.4894C44.546 73.1751 44.6189 72.8914 44.7645 72.6384C44.9179 72.3777 45.1632 72.1707 45.5005 72.0174C45.8455 71.8564 46.3055 71.7759 46.8805 71.7759H48.962V72.3854H46.9035C46.3209 72.3854 45.9145 72.4889 45.6845 72.6959C45.4622 72.9029 45.351 73.1597 45.351 73.4664C45.351 73.8114 45.4852 74.0874 45.7535 74.2944C46.0219 74.5014 46.3975 74.6049 46.8805 74.6049C47.3405 74.6049 47.7354 74.5014 48.065 74.2944C48.4024 74.0797 48.6477 73.7731 48.801 73.3744L48.985 73.9379C48.8317 74.3366 48.5634 74.6547 48.18 74.8924C47.8044 75.1301 47.329 75.2489 46.754 75.2489ZM51.7911 75.1914V69.1539H52.6076V71.8219H56.4141V69.1539H57.2306V75.1914H56.4141V72.5234H52.6076V75.1914H51.7911ZM63.3004 75.1914V73.8574L63.2659 73.6389V71.4079C63.2659 70.8942 63.1202 70.4994 62.8289 70.2234C62.5452 69.9474 62.1197 69.8094 61.5524 69.8094C61.1614 69.8094 60.7896 69.8746 60.4369 70.0049C60.0842 70.1352 59.7852 70.3077 59.5399 70.5224L59.1719 69.9129C59.4786 69.6522 59.8466 69.4529 60.2759 69.3149C60.7052 69.1692 61.1576 69.0964 61.6329 69.0964C62.4149 69.0964 63.0167 69.2919 63.4384 69.6829C63.8677 70.0662 64.0824 70.6527 64.0824 71.4424V75.1914H63.3004ZM61.2189 75.2489C60.7666 75.2489 60.3717 75.1761 60.0344 75.0304C59.7047 74.8771 59.4517 74.6701 59.2754 74.4094C59.0991 74.1411 59.0109 73.8344 59.0109 73.4894C59.0109 73.1751 59.0837 72.8914 59.2294 72.6384C59.3827 72.3777 59.6281 72.1707 59.9654 72.0174C60.3104 71.8564 60.7704 71.7759 61.3454 71.7759H63.4269V72.3854H61.3684C60.7857 72.3854 60.3794 72.4889 60.1494 72.6959C59.9271 72.9029 59.8159 73.1597 59.8159 73.4664C59.8159 73.8114 59.9501 74.0874 60.2184 74.2944C60.4867 74.5014 60.8624 74.6049 61.3454 74.6049C61.8054 74.6049 62.2002 74.5014 62.5299 74.2944C62.8672 74.0797 63.1126 73.7731 63.2659 73.3744L63.4499 73.9379C63.2966 74.3366 63.0282 74.6547 62.6449 74.8924C62.2692 75.1301 61.7939 75.2489 61.2189 75.2489ZM67.406 75.1914V69.6484L67.613 69.8669H65.1175V69.1539H70.511V69.8669H68.0155L68.2225 69.6484V75.1914H67.406ZM71.6915 75.1914V69.1539H72.508V73.9494L76.5445 69.1539H77.269V75.1914H76.4525V70.3844L72.4275 75.1914H71.6915ZM80.759 75.1914V69.6484L80.966 69.8669H78.4705V69.1539H83.864V69.8669H81.3685L81.5755 69.6484V75.1914H80.759ZM85.0446 75.1914V69.1539H85.8611V73.9494L89.8976 69.1539H90.6221V75.1914H89.8056V70.3844L85.7806 75.1914H85.0446ZM97.3895 75.1914L94.9055 72.2014L95.584 71.7989L98.3555 75.1914H97.3895ZM92.962 75.1914V69.1539H93.7785V75.1914H92.962ZM93.5255 72.5004V71.7989H95.469V72.5004H93.5255ZM95.653 72.2589L94.894 72.1439L97.2975 69.1539H98.183L95.653 72.2589ZM103.281 75.1914V73.8574L103.246 73.6389V71.4079C103.246 70.8942 103.101 70.4994 102.809 70.2234C102.526 69.9474 102.1 69.8094 101.533 69.8094C101.142 69.8094 100.77 69.8746 100.417 70.0049C100.065 70.1352 99.7657 70.3077 99.5204 70.5224L99.1524 69.9129C99.459 69.6522 99.827 69.4529 100.256 69.3149C100.686 69.1692 101.138 69.0964 101.613 69.0964C102.395 69.0964 102.997 69.2919 103.419 69.6829C103.848 70.0662 104.063 70.6527 104.063 71.4424V75.1914H103.281ZM101.199 75.2489C100.747 75.2489 100.352 75.1761 100.015 75.0304C99.6852 74.8771 99.4322 74.6701 99.2559 74.4094C99.0795 74.1411 98.9914 73.8344 98.9914 73.4894C98.9914 73.1751 99.0642 72.8914 99.2099 72.6384C99.3632 72.3777 99.6085 72.1707 99.9459 72.0174C100.291 71.8564 100.751 71.7759 101.326 71.7759H103.407V72.3854H101.349C100.766 72.3854 100.36 72.4889 100.13 72.6959C99.9075 72.9029 99.7964 73.1597 99.7964 73.4664C99.7964 73.8114 99.9305 74.0874 100.199 74.2944C100.467 74.5014 100.843 74.6049 101.326 74.6049C101.786 74.6049 102.181 74.5014 102.51 74.2944C102.848 74.0797 103.093 73.7731 103.246 73.3744L103.43 73.9379C103.277 74.3366 103.009 74.6547 102.625 74.8924C102.25 75.1301 101.774 75.2489 101.199 75.2489Z" fill="black"/>
<path d="M54.5752 284.191L58.0952 276.491H58.8982L62.4182 284.191H61.5602L58.3262 276.964H58.6562L55.4222 284.191H54.5752ZM55.9612 282.134L56.2032 281.474H60.6802L60.9222 282.134H55.9612ZM66.6877 284.246C66.189 284.246 65.738 284.133 65.3347 283.905C64.9314 283.671 64.6087 283.337 64.3667 282.904C64.132 282.464 64.0147 281.929 64.0147 281.298C64.0147 280.668 64.132 280.136 64.3667 279.703C64.6014 279.263 64.9204 278.93 65.3237 278.702C65.727 278.475 66.1817 278.361 66.6877 278.361C67.2377 278.361 67.729 278.486 68.1617 278.735C68.6017 278.977 68.9464 279.322 69.1957 279.769C69.445 280.209 69.5697 280.719 69.5697 281.298C69.5697 281.885 69.445 282.398 69.1957 282.838C68.9464 283.278 68.6017 283.623 68.1617 283.872C67.729 284.122 67.2377 284.246 66.6877 284.246ZM63.7067 286.325V278.416H64.4547V280.154L64.3777 281.309L64.4877 282.475V286.325H63.7067ZM66.6327 283.553C67.0434 283.553 67.41 283.462 67.7327 283.278C68.0554 283.088 68.312 282.824 68.5027 282.486C68.6934 282.142 68.7887 281.746 68.7887 281.298C68.7887 280.851 68.6934 280.459 68.5027 280.121C68.312 279.784 68.0554 279.52 67.7327 279.329C67.41 279.139 67.0434 279.043 66.6327 279.043C66.222 279.043 65.8517 279.139 65.5217 279.329C65.199 279.52 64.9424 279.784 64.7517 280.121C64.5684 280.459 64.4767 280.851 64.4767 281.298C64.4767 281.746 64.5684 282.142 64.7517 282.486C64.9424 282.824 65.199 283.088 65.5217 283.278C65.8517 283.462 66.222 283.553 66.6327 283.553ZM70.0976 284.191L72.5396 281.023L72.5286 281.408L70.2076 278.416H71.0876L72.9906 280.891L72.6606 280.88L74.5636 278.416H75.4216L73.0786 281.441L73.0896 281.023L75.5536 284.191H74.6626L72.6496 281.551L72.9576 281.595L70.9776 284.191H70.0976ZM76.8337 284.191V278.416H77.6147V283.003L81.4757 278.416H82.1687V284.191H81.3877V279.593L77.5377 284.191H76.8337ZM85.5069 284.191V278.889L85.7049 279.098H83.3179V278.416H88.4769V279.098H86.0899L86.2879 278.889V284.191H85.5069ZM91.8126 284.246C91.2112 284.246 90.6832 284.122 90.2286 283.872C89.7739 283.616 89.4182 283.267 89.1616 282.827C88.9049 282.38 88.7766 281.87 88.7766 281.298C88.7766 280.726 88.8976 280.22 89.1396 279.78C89.3889 279.34 89.7262 278.996 90.1516 278.746C90.5842 278.49 91.0682 278.361 91.6036 278.361C92.1462 278.361 92.6266 278.486 93.0446 278.735C93.4699 278.977 93.8036 279.322 94.0456 279.769C94.2876 280.209 94.4086 280.719 94.4086 281.298C94.4086 281.335 94.4049 281.375 94.3976 281.419C94.3976 281.456 94.3976 281.496 94.3976 281.54H89.3706V280.957H93.9796L93.6716 281.188C93.6716 280.77 93.5799 280.4 93.3966 280.077C93.2206 279.747 92.9786 279.491 92.6706 279.307C92.3626 279.124 92.0069 279.032 91.6036 279.032C91.2076 279.032 90.8519 279.124 90.5366 279.307C90.2212 279.491 89.9756 279.747 89.7996 280.077C89.6236 280.407 89.5356 280.785 89.5356 281.21V281.331C89.5356 281.771 89.6309 282.16 89.8216 282.497C90.0196 282.827 90.2909 283.088 90.6356 283.278C90.9876 283.462 91.3872 283.553 91.8346 283.553C92.1866 283.553 92.5129 283.491 92.8136 283.366C93.1216 283.242 93.3856 283.051 93.6056 282.794L94.0456 283.3C93.7889 283.608 93.4662 283.843 93.0776 284.004C92.6962 284.166 92.2746 284.246 91.8126 284.246ZM100.372 284.191L97.9964 281.331L98.6454 280.946L101.296 284.191H100.372ZM96.1374 284.191V278.416H96.9184V284.191H96.1374ZM96.6764 281.617V280.946H98.5354V281.617H96.6764ZM98.7114 281.386L97.9854 281.276L100.284 278.416H101.131L98.7114 281.386ZM103.511 284.191V278.889L103.709 279.098H101.322V278.416H106.481V279.098H104.094L104.292 278.889V284.191H103.511ZM107.709 286.38C107.438 286.38 107.177 286.336 106.928 286.248C106.686 286.16 106.477 286.028 106.301 285.852L106.664 285.269C106.811 285.409 106.968 285.515 107.137 285.588C107.313 285.669 107.507 285.709 107.72 285.709C107.977 285.709 108.197 285.636 108.38 285.489C108.571 285.35 108.75 285.101 108.919 284.741L109.293 283.894L109.381 283.773L111.757 278.416H112.527L109.634 284.884C109.473 285.258 109.293 285.555 109.095 285.775C108.904 285.995 108.695 286.149 108.468 286.237C108.241 286.333 107.988 286.38 107.709 286.38ZM109.249 284.356L106.587 278.416H107.401L109.755 283.718L109.249 284.356ZM116.725 284.246C116.226 284.246 115.775 284.133 115.372 283.905C114.968 283.671 114.646 283.337 114.404 282.904C114.169 282.464 114.052 281.929 114.052 281.298C114.052 280.668 114.169 280.136 114.404 279.703C114.638 279.263 114.957 278.93 115.361 278.702C115.764 278.475 116.219 278.361 116.725 278.361C117.275 278.361 117.766 278.486 118.199 278.735C118.639 278.977 118.983 279.322 119.233 279.769C119.482 280.209 119.607 280.719 119.607 281.298C119.607 281.885 119.482 282.398 119.233 282.838C118.983 283.278 118.639 283.623 118.199 283.872C117.766 284.122 117.275 284.246 116.725 284.246ZM113.744 286.325V278.416H114.492V280.154L114.415 281.309L114.525 282.475V286.325H113.744ZM116.67 283.553C117.08 283.553 117.447 283.462 117.77 283.278C118.092 283.088 118.349 282.824 118.54 282.486C118.73 282.142 118.826 281.746 118.826 281.298C118.826 280.851 118.73 280.459 118.54 280.121C118.349 279.784 118.092 279.52 117.77 279.329C117.447 279.139 117.08 279.043 116.67 279.043C116.259 279.043 115.889 279.139 115.559 279.329C115.236 279.52 114.979 279.784 114.789 280.121C114.605 280.459 114.514 280.851 114.514 281.298C114.514 281.746 114.605 282.142 114.789 282.486C114.979 282.824 115.236 283.088 115.559 283.278C115.889 283.462 116.259 283.553 116.67 283.553ZM121.285 284.191V278.416H122.066V280.968H125.707V278.416H126.488V284.191H125.707V281.639H122.066V284.191H121.285ZM131.084 284.246C130.526 284.246 130.024 284.122 129.577 283.872C129.137 283.616 128.788 283.267 128.532 282.827C128.275 282.38 128.147 281.87 128.147 281.298C128.147 280.719 128.275 280.209 128.532 279.769C128.788 279.329 129.137 278.985 129.577 278.735C130.017 278.486 130.519 278.361 131.084 278.361C131.656 278.361 132.162 278.486 132.602 278.735C133.049 278.985 133.397 279.329 133.647 279.769C133.903 280.209 134.032 280.719 134.032 281.298C134.032 281.87 133.903 282.38 133.647 282.827C133.397 283.267 133.049 283.616 132.602 283.872C132.154 284.122 131.648 284.246 131.084 284.246ZM131.084 283.553C131.502 283.553 131.872 283.462 132.195 283.278C132.517 283.088 132.77 282.824 132.954 282.486C133.144 282.142 133.24 281.746 133.24 281.298C133.24 280.844 133.144 280.448 132.954 280.11C132.77 279.773 132.517 279.513 132.195 279.329C131.872 279.139 131.505 279.043 131.095 279.043C130.684 279.043 130.317 279.139 129.995 279.329C129.672 279.513 129.415 279.773 129.225 280.11C129.034 280.448 128.939 280.844 128.939 281.298C128.939 281.746 129.034 282.142 129.225 282.486C129.415 282.824 129.672 283.088 129.995 283.278C130.317 283.462 130.68 283.553 131.084 283.553ZM39.6281 300.191V294.416H43.7201V295.098H40.2111L40.4091 294.9V300.191H39.6281ZM47.8298 300.246C47.3311 300.246 46.8801 300.133 46.4768 299.905C46.0735 299.671 45.7508 299.337 45.5088 298.904C45.2741 298.464 45.1568 297.929 45.1568 297.298C45.1568 296.668 45.2741 296.136 45.5088 295.703C45.7435 295.263 46.0625 294.93 46.4658 294.702C46.8691 294.475 47.3238 294.361 47.8298 294.361C48.3798 294.361 48.8711 294.486 49.3038 294.735C49.7438 294.977 50.0885 295.322 50.3378 295.769C50.5871 296.209 50.7118 296.719 50.7118 297.298C50.7118 297.885 50.5871 298.398 50.3378 298.838C50.0885 299.278 49.7438 299.623 49.3038 299.872C48.8711 300.122 48.3798 300.246 47.8298 300.246ZM44.8488 302.325V294.416H45.5968V296.154L45.5198 297.309L45.6298 298.475V302.325H44.8488ZM47.7748 299.553C48.1855 299.553 48.5521 299.462 48.8748 299.278C49.1975 299.088 49.4541 298.824 49.6448 298.486C49.8355 298.142 49.9308 297.746 49.9308 297.298C49.9308 296.851 49.8355 296.459 49.6448 296.121C49.4541 295.784 49.1975 295.52 48.8748 295.329C48.5521 295.139 48.1855 295.043 47.7748 295.043C47.3641 295.043 46.9938 295.139 46.6638 295.329C46.3411 295.52 46.0845 295.784 45.8938 296.121C45.7105 296.459 45.6188 296.851 45.6188 297.298C45.6188 297.746 45.7105 298.142 45.8938 298.486C46.0845 298.824 46.3411 299.088 46.6638 299.278C46.9938 299.462 47.3641 299.553 47.7748 299.553ZM55.9436 300.191V298.915L55.9106 298.706V296.572C55.9106 296.081 55.7712 295.703 55.4926 295.439C55.2212 295.175 54.8142 295.043 54.2716 295.043C53.8976 295.043 53.5419 295.106 53.2046 295.23C52.8672 295.355 52.5812 295.52 52.3466 295.725L51.9946 295.142C52.2879 294.893 52.6399 294.702 53.0506 294.57C53.4612 294.431 53.8939 294.361 54.3486 294.361C55.0966 294.361 55.6722 294.548 56.0756 294.922C56.4862 295.289 56.6916 295.85 56.6916 296.605V300.191H55.9436ZM53.9526 300.246C53.5199 300.246 53.1422 300.177 52.8196 300.037C52.5042 299.891 52.2622 299.693 52.0936 299.443C51.9249 299.187 51.8406 298.893 51.8406 298.563C51.8406 298.263 51.9102 297.991 52.0496 297.749C52.1962 297.5 52.4309 297.302 52.7536 297.155C53.0836 297.001 53.5236 296.924 54.0736 296.924H56.0646V297.507H54.0956C53.5382 297.507 53.1496 297.606 52.9296 297.804C52.7169 298.002 52.6106 298.248 52.6106 298.541C52.6106 298.871 52.7389 299.135 52.9956 299.333C53.2522 299.531 53.6116 299.63 54.0736 299.63C54.5136 299.63 54.8912 299.531 55.2066 299.333C55.5292 299.128 55.7639 298.835 55.9106 298.453L56.0866 298.992C55.9399 299.374 55.6832 299.678 55.3166 299.905C54.9572 300.133 54.5026 300.246 53.9526 300.246ZM62.7307 299.817V295.098H59.9477L59.8817 296.385C59.867 296.774 59.8413 297.155 59.8047 297.529C59.7753 297.903 59.7203 298.248 59.6397 298.563C59.5663 298.871 59.46 299.124 59.3207 299.322C59.1813 299.513 59.0017 299.623 58.7817 299.652L58.0007 299.509C58.228 299.517 58.415 299.436 58.5617 299.267C58.7083 299.091 58.822 298.853 58.9027 298.552C58.9833 298.252 59.042 297.911 59.0787 297.529C59.1153 297.141 59.1447 296.745 59.1667 296.341L59.2437 294.416H63.5117V299.817H62.7307ZM57.7587 301.588V299.509H64.4137V301.588H63.6767V300.191H58.4957V301.588H57.7587ZM68.3117 300.246C67.7544 300.246 67.252 300.122 66.8047 299.872C66.3647 299.616 66.0164 299.267 65.7597 298.827C65.503 298.38 65.3747 297.87 65.3747 297.298C65.3747 296.719 65.503 296.209 65.7597 295.769C66.0164 295.329 66.3647 294.985 66.8047 294.735C67.2447 294.486 67.747 294.361 68.3117 294.361C68.8837 294.361 69.3897 294.486 69.8297 294.735C70.277 294.985 70.6254 295.329 70.8747 295.769C71.1314 296.209 71.2597 296.719 71.2597 297.298C71.2597 297.87 71.1314 298.38 70.8747 298.827C70.6254 299.267 70.277 299.616 69.8297 299.872C69.3824 300.122 68.8764 300.246 68.3117 300.246ZM68.3117 299.553C68.7297 299.553 69.1 299.462 69.4227 299.278C69.7454 299.088 69.9984 298.824 70.1817 298.486C70.3724 298.142 70.4677 297.746 70.4677 297.298C70.4677 296.844 70.3724 296.448 70.1817 296.11C69.9984 295.773 69.7454 295.513 69.4227 295.329C69.1 295.139 68.7334 295.043 68.3227 295.043C67.912 295.043 67.5454 295.139 67.2227 295.329C66.9 295.513 66.6434 295.773 66.4527 296.11C66.262 296.448 66.1667 296.844 66.1667 297.298C66.1667 297.746 66.262 298.142 66.4527 298.486C66.6434 298.824 66.9 299.088 67.2227 299.278C67.5454 299.462 67.9084 299.553 68.3117 299.553ZM75.3489 300.246C74.7769 300.246 74.2635 300.122 73.8089 299.872C73.3615 299.616 73.0095 299.267 72.7529 298.827C72.4962 298.38 72.3679 297.87 72.3679 297.298C72.3679 296.719 72.4962 296.209 72.7529 295.769C73.0095 295.329 73.3615 294.985 73.8089 294.735C74.2635 294.486 74.7769 294.361 75.3489 294.361C75.8402 294.361 76.2839 294.457 76.6799 294.647C77.0759 294.838 77.3875 295.124 77.6149 295.505L77.0319 295.901C76.8339 295.608 76.5882 295.392 76.2949 295.252C76.0015 295.113 75.6825 295.043 75.3379 295.043C74.9272 295.043 74.5569 295.139 74.2269 295.329C73.8969 295.513 73.6365 295.773 73.4459 296.11C73.2552 296.448 73.1599 296.844 73.1599 297.298C73.1599 297.753 73.2552 298.149 73.4459 298.486C73.6365 298.824 73.8969 299.088 74.2269 299.278C74.5569 299.462 74.9272 299.553 75.3379 299.553C75.6825 299.553 76.0015 299.484 76.2949 299.344C76.5882 299.205 76.8339 298.992 77.0319 298.706L77.6149 299.102C77.3875 299.476 77.0759 299.762 76.6799 299.96C76.2839 300.151 75.8402 300.246 75.3489 300.246ZM80.1197 300.191V294.889L80.3177 295.098H77.9307V294.416H83.0897V295.098H80.7027L80.9007 294.889V300.191H80.1197ZM87.1999 300.246C86.7012 300.246 86.2502 300.133 85.8469 299.905C85.4436 299.671 85.1209 299.337 84.8789 298.904C84.6442 298.464 84.5269 297.929 84.5269 297.298C84.5269 296.668 84.6442 296.136 84.8789 295.703C85.1136 295.263 85.4326 294.93 85.8359 294.702C86.2392 294.475 86.6939 294.361 87.1999 294.361C87.7499 294.361 88.2412 294.486 88.6739 294.735C89.1139 294.977 89.4586 295.322 89.7079 295.769C89.9572 296.209 90.0819 296.719 90.0819 297.298C90.0819 297.885 89.9572 298.398 89.7079 298.838C89.4586 299.278 89.1139 299.623 88.6739 299.872C88.2412 300.122 87.7499 300.246 87.1999 300.246ZM84.2189 302.325V294.416H84.9669V296.154L84.8899 297.309L84.9999 298.475V302.325H84.2189ZM87.1449 299.553C87.5556 299.553 87.9222 299.462 88.2449 299.278C88.5676 299.088 88.8242 298.824 89.0149 298.486C89.2056 298.142 89.3009 297.746 89.3009 297.298C89.3009 296.851 89.2056 296.459 89.0149 296.121C88.8242 295.784 88.5676 295.52 88.2449 295.329C87.9222 295.139 87.5556 295.043 87.1449 295.043C86.7342 295.043 86.3639 295.139 86.0339 295.329C85.7112 295.52 85.4546 295.784 85.2639 296.121C85.0806 296.459 84.9889 296.851 84.9889 297.298C84.9889 297.746 85.0806 298.142 85.2639 298.486C85.4546 298.824 85.7112 299.088 86.0339 299.278C86.3639 299.462 86.7342 299.553 87.1449 299.553ZM94.1359 300.246C93.5786 300.246 93.0763 300.122 92.6289 299.872C92.1889 299.616 91.8406 299.267 91.5839 298.827C91.3273 298.38 91.1989 297.87 91.1989 297.298C91.1989 296.719 91.3273 296.209 91.5839 295.769C91.8406 295.329 92.1889 294.985 92.6289 294.735C93.0689 294.486 93.5713 294.361 94.1359 294.361C94.7079 294.361 95.2139 294.486 95.6539 294.735C96.1013 294.985 96.4496 295.329 96.6989 295.769C96.9556 296.209 97.0839 296.719 97.0839 297.298C97.0839 297.87 96.9556 298.38 96.6989 298.827C96.4496 299.267 96.1013 299.616 95.6539 299.872C95.2066 300.122 94.7006 300.246 94.1359 300.246ZM94.1359 299.553C94.5539 299.553 94.9243 299.462 95.2469 299.278C95.5696 299.088 95.8226 298.824 96.0059 298.486C96.1966 298.142 96.2919 297.746 96.2919 297.298C96.2919 296.844 96.1966 296.448 96.0059 296.11C95.8226 295.773 95.5696 295.513 95.2469 295.329C94.9243 295.139 94.5576 295.043 94.1469 295.043C93.7363 295.043 93.3696 295.139 93.0469 295.329C92.7243 295.513 92.4676 295.773 92.2769 296.11C92.0863 296.448 91.9909 296.844 91.9909 297.298C91.9909 297.746 92.0863 298.142 92.2769 298.486C92.4676 298.824 92.7243 299.088 93.0469 299.278C93.3696 299.462 93.7326 299.553 94.1359 299.553ZM98.7531 300.191V294.416H99.5341V299.003L103.395 294.416H104.088V300.191H103.307V295.593L99.4571 300.191H98.7531ZM107.426 300.191V294.889L107.624 295.098H105.237V294.416H110.396V295.098H108.009L108.207 294.889V300.191H107.426ZM113.732 300.246C113.131 300.246 112.603 300.122 112.148 299.872C111.693 299.616 111.338 299.267 111.081 298.827C110.824 298.38 110.696 297.87 110.696 297.298C110.696 296.726 110.817 296.22 111.059 295.78C111.308 295.34 111.646 294.996 112.071 294.746C112.504 294.49 112.988 294.361 113.523 294.361C114.066 294.361 114.546 294.486 114.964 294.735C115.389 294.977 115.723 295.322 115.965 295.769C116.207 296.209 116.328 296.719 116.328 297.298C116.328 297.335 116.324 297.375 116.317 297.419C116.317 297.456 116.317 297.496 116.317 297.54H111.29V296.957H115.899L115.591 297.188C115.591 296.77 115.499 296.4 115.316 296.077C115.14 295.747 114.898 295.491 114.59 295.307C114.282 295.124 113.926 295.032 113.523 295.032C113.127 295.032 112.771 295.124 112.456 295.307C112.141 295.491 111.895 295.747 111.719 296.077C111.543 296.407 111.455 296.785 111.455 297.21V297.331C111.455 297.771 111.55 298.16 111.741 298.497C111.939 298.827 112.21 299.088 112.555 299.278C112.907 299.462 113.307 299.553 113.754 299.553C114.106 299.553 114.432 299.491 114.733 299.366C115.041 299.242 115.305 299.051 115.525 298.794L115.965 299.3C115.708 299.608 115.386 299.843 114.997 300.004C114.616 300.166 114.194 300.246 113.732 300.246ZM116.883 300.18L116.938 299.509C116.989 299.517 117.037 299.528 117.081 299.542C117.132 299.55 117.176 299.553 117.213 299.553C117.447 299.553 117.634 299.465 117.774 299.289C117.92 299.113 118.03 298.879 118.104 298.585C118.177 298.292 118.228 297.962 118.258 297.595C118.287 297.221 118.313 296.847 118.335 296.473L118.434 294.416H122.669V300.191H121.888V294.867L122.086 295.098H118.94L119.127 294.856L119.039 296.528C119.017 297.027 118.976 297.504 118.918 297.958C118.866 298.413 118.782 298.813 118.665 299.157C118.555 299.502 118.401 299.773 118.203 299.971C118.005 300.162 117.752 300.257 117.444 300.257C117.356 300.257 117.264 300.25 117.169 300.235C117.081 300.221 116.985 300.202 116.883 300.18ZM127.375 296.451C128.101 296.459 128.651 296.62 129.025 296.935C129.406 297.251 129.597 297.705 129.597 298.299C129.597 298.915 129.391 299.388 128.981 299.718C128.577 300.048 127.991 300.21 127.221 300.202L124.889 300.191V294.416H125.67V296.429L127.375 296.451ZM127.177 299.608C127.712 299.616 128.115 299.509 128.387 299.289C128.665 299.062 128.805 298.732 128.805 298.299C128.805 297.867 128.669 297.551 128.398 297.353C128.126 297.148 127.719 297.042 127.177 297.034L125.67 297.012V299.586L127.177 299.608ZM131.087 300.191V294.416H131.868V296.968H135.509V294.416H136.29V300.191H135.509V297.639H131.868V300.191H131.087ZM142.096 300.191V298.915L142.063 298.706V296.572C142.063 296.081 141.924 295.703 141.645 295.439C141.374 295.175 140.967 295.043 140.424 295.043C140.05 295.043 139.694 295.106 139.357 295.23C139.02 295.355 138.734 295.52 138.499 295.725L138.147 295.142C138.44 294.893 138.792 294.702 139.203 294.57C139.614 294.431 140.046 294.361 140.501 294.361C141.249 294.361 141.825 294.548 142.228 294.922C142.639 295.289 142.844 295.85 142.844 296.605V300.191H142.096ZM140.105 300.246C139.672 300.246 139.295 300.177 138.972 300.037C138.657 299.891 138.415 299.693 138.246 299.443C138.077 299.187 137.993 298.893 137.993 298.563C137.993 298.263 138.063 297.991 138.202 297.749C138.349 297.5 138.583 297.302 138.906 297.155C139.236 297.001 139.676 296.924 140.226 296.924H142.217V297.507H140.248C139.691 297.507 139.302 297.606 139.082 297.804C138.869 298.002 138.763 298.248 138.763 298.541C138.763 298.871 138.891 299.135 139.148 299.333C139.405 299.531 139.764 299.63 140.226 299.63C140.666 299.63 141.044 299.531 141.359 299.333C141.682 299.128 141.916 298.835 142.063 298.453L142.239 298.992C142.092 299.374 141.836 299.678 141.469 299.905C141.11 300.133 140.655 300.246 140.105 300.246ZM148.652 300.191V298.112L148.795 298.277H146.837C146.096 298.277 145.517 298.116 145.099 297.793C144.681 297.471 144.472 297.001 144.472 296.385C144.472 295.725 144.696 295.234 145.143 294.911C145.59 294.581 146.188 294.416 146.936 294.416H149.367V300.191H148.652ZM144.428 300.191L146.012 297.969H146.826L145.275 300.191H144.428ZM148.652 297.881V294.867L148.795 295.098H146.958C146.423 295.098 146.005 295.201 145.704 295.406C145.411 295.612 145.264 295.945 145.264 296.407C145.264 297.265 145.81 297.694 146.903 297.694H148.795L148.652 297.881ZM67.7967 316.191L65.4207 313.331L66.0697 312.946L68.7207 316.191H67.7967ZM63.5617 316.191V310.416H64.3427V316.191H63.5617ZM64.1007 313.617V312.946H65.9597V313.617H64.1007ZM66.1357 313.386L65.4097 313.276L67.7087 310.416H68.5557L66.1357 313.386ZM72.1252 316.246C71.5679 316.246 71.0655 316.122 70.6182 315.872C70.1782 315.616 69.8299 315.267 69.5732 314.827C69.3165 314.38 69.1882 313.87 69.1882 313.298C69.1882 312.719 69.3165 312.209 69.5732 311.769C69.8299 311.329 70.1782 310.985 70.6182 310.735C71.0582 310.486 71.5605 310.361 72.1252 310.361C72.6972 310.361 73.2032 310.486 73.6432 310.735C74.0905 310.985 74.4389 311.329 74.6882 311.769C74.9449 312.209 75.0732 312.719 75.0732 313.298C75.0732 313.87 74.9449 314.38 74.6882 314.827C74.4389 315.267 74.0905 315.616 73.6432 315.872C73.1959 316.122 72.6899 316.246 72.1252 316.246ZM72.1252 315.553C72.5432 315.553 72.9135 315.462 73.2362 315.278C73.5589 315.088 73.8119 314.824 73.9952 314.486C74.1859 314.142 74.2812 313.746 74.2812 313.298C74.2812 312.844 74.1859 312.448 73.9952 312.11C73.8119 311.773 73.5589 311.513 73.2362 311.329C72.9135 311.139 72.5469 311.043 72.1362 311.043C71.7255 311.043 71.3589 311.139 71.0362 311.329C70.7135 311.513 70.4569 311.773 70.2662 312.11C70.0755 312.448 69.9802 312.844 69.9802 313.298C69.9802 313.746 70.0755 314.142 70.2662 314.486C70.4569 314.824 70.7135 315.088 71.0362 315.278C71.3589 315.462 71.7219 315.553 72.1252 315.553ZM76.7423 316.191V310.416H77.5233V312.968H81.1643V310.416H81.9453V316.191H81.1643V313.639H77.5233V316.191H76.7423ZM84.1652 316.191V310.416H84.9462V315.509H88.4772V310.416H89.2582V316.191H84.1652ZM89.4562 317.588V316.125L89.6542 316.191H88.4772V315.509H90.1932V317.588H89.4562ZM94.1597 316.246C93.5584 316.246 93.0304 316.122 92.5757 315.872C92.1211 315.616 91.7654 315.267 91.5087 314.827C91.2521 314.38 91.1237 313.87 91.1237 313.298C91.1237 312.726 91.2447 312.22 91.4867 311.78C91.7361 311.34 92.0734 310.996 92.4987 310.746C92.9314 310.49 93.4154 310.361 93.9507 310.361C94.4934 310.361 94.9737 310.486 95.3917 310.735C95.8171 310.977 96.1507 311.322 96.3927 311.769C96.6347 312.209 96.7557 312.719 96.7557 313.298C96.7557 313.335 96.7521 313.375 96.7447 313.419C96.7447 313.456 96.7447 313.496 96.7447 313.54H91.7177V312.957H96.3267L96.0187 313.188C96.0187 312.77 95.9271 312.4 95.7437 312.077C95.5677 311.747 95.3257 311.491 95.0177 311.307C94.7097 311.124 94.3541 311.032 93.9507 311.032C93.5547 311.032 93.1991 311.124 92.8837 311.307C92.5684 311.491 92.3227 311.747 92.1467 312.077C91.9707 312.407 91.8827 312.785 91.8827 313.21V313.331C91.8827 313.771 91.9781 314.16 92.1687 314.497C92.3667 314.827 92.6381 315.088 92.9827 315.278C93.3347 315.462 93.7344 315.553 94.1817 315.553C94.5337 315.553 94.8601 315.491 95.1607 315.366C95.4687 315.242 95.7327 315.051 95.9527 314.794L96.3927 315.3C96.1361 315.608 95.8134 315.843 95.4247 316.004C95.0434 316.166 94.6217 316.246 94.1597 316.246ZM98.4845 316.191V310.416H103.677V316.191H102.896V310.889L103.094 311.098H99.0675L99.2655 310.889V316.191H98.4845ZM105.897 316.191V310.416H106.678V315.509H110.209V310.416H110.99V316.191H105.897ZM111.188 317.588V316.125L111.386 316.191H110.209V315.509H111.925V317.588H111.188ZM113.416 316.191V310.416H114.197V315.003L118.058 310.416H118.751V316.191H117.97V311.593L114.12 316.191H113.416ZM124.718 316.191V314.112L124.861 314.277H122.903C122.163 314.277 121.583 314.116 121.165 313.793C120.747 313.471 120.538 313.001 120.538 312.385C120.538 311.725 120.762 311.234 121.209 310.911C121.657 310.581 122.254 310.416 123.002 310.416H125.433V316.191H124.718ZM120.494 316.191L122.078 313.969H122.892L121.341 316.191H120.494ZM124.718 313.881V310.867L124.861 311.098H123.024C122.489 311.098 122.071 311.201 121.77 311.406C121.477 311.612 121.33 311.945 121.33 312.407C121.33 313.265 121.877 313.694 122.969 313.694H124.861L124.718 313.881Z" fill="black"/>
<path d="M119.5 61.1913L373.5 61.1913L369 55.1914" stroke="black"/>
<path d="M499.5 92.1914L499.5 274.691L505.5 270.191" stroke="black"/>
<path d="M502.5 336.192L184.5 336.192L189 342.191" stroke="black"/>
<path d="M420.226 57.1914L417.132 53.1779L417.822 52.7639L421.203 57.1914H420.226ZM414.717 57.1914V49.1414H415.545V57.1914H414.717ZM415.292 53.4999V52.7524H417.811V53.4999H415.292ZM417.891 53.2584L417.109 53.1204L420.111 49.1414H421.031L417.891 53.2584ZM424.732 57.2489C424.15 57.2489 423.624 57.1186 423.157 56.8579C422.697 56.5896 422.333 56.2254 422.064 55.7654C421.796 55.2977 421.662 54.7649 421.662 54.1669C421.662 53.5612 421.796 53.0284 422.064 52.5684C422.333 52.1084 422.697 51.7481 423.157 51.4874C423.617 51.2267 424.142 51.0964 424.732 51.0964C425.33 51.0964 425.859 51.2267 426.319 51.4874C426.787 51.7481 427.151 52.1084 427.412 52.5684C427.68 53.0284 427.814 53.5612 427.814 54.1669C427.814 54.7649 427.68 55.2977 427.412 55.7654C427.151 56.2254 426.787 56.5896 426.319 56.8579C425.852 57.1186 425.323 57.2489 424.732 57.2489ZM424.732 56.5244C425.169 56.5244 425.556 56.4286 425.894 56.2369C426.231 56.0376 426.496 55.7616 426.687 55.4089C426.887 55.0486 426.986 54.6346 426.986 54.1669C426.986 53.6916 426.887 53.2776 426.687 52.9249C426.496 52.5722 426.231 52.3001 425.894 52.1084C425.556 51.9091 425.173 51.8094 424.744 51.8094C424.314 51.8094 423.931 51.9091 423.594 52.1084C423.256 52.3001 422.988 52.5722 422.789 52.9249C422.589 53.2776 422.49 53.6916 422.49 54.1669C422.49 54.6346 422.589 55.0486 422.789 55.4089C422.988 55.7616 423.256 56.0376 423.594 56.2369C423.931 56.4286 424.311 56.5244 424.732 56.5244ZM429.559 57.1914V51.1539H430.376V53.8219H434.182V51.1539H434.999V57.1914H434.182V54.5234H430.376V57.1914H429.559ZM437.319 57.1914V51.1539H438.136V56.4784H441.827V51.1539H442.644V57.1914H437.319ZM442.851 58.6519V57.1224L443.058 57.1914H441.827V56.4784H443.621V58.6519H442.851ZM447.768 57.2489C447.14 57.2489 446.588 57.1186 446.112 56.8579C445.637 56.5896 445.265 56.2254 444.997 55.7654C444.728 55.2977 444.594 54.7649 444.594 54.1669C444.594 53.5689 444.721 53.0399 444.974 52.5799C445.234 52.1199 445.587 51.7596 446.032 51.4989C446.484 51.2306 446.99 51.0964 447.55 51.0964C448.117 51.0964 448.619 51.2267 449.056 51.4874C449.501 51.7404 449.85 52.1007 450.103 52.5684C450.356 53.0284 450.482 53.5612 450.482 54.1669C450.482 54.2052 450.478 54.2474 450.471 54.2934C450.471 54.3317 450.471 54.3739 450.471 54.4199H445.215V53.8104H450.034L449.712 54.0519C449.712 53.6149 449.616 53.2277 449.424 52.8904C449.24 52.5454 448.987 52.2771 448.665 52.0854C448.343 51.8937 447.971 51.7979 447.55 51.7979C447.136 51.7979 446.764 51.8937 446.434 52.0854C446.105 52.2771 445.848 52.5454 445.664 52.8904C445.48 53.2354 445.388 53.6302 445.388 54.0749V54.2014C445.388 54.6614 445.487 55.0677 445.687 55.4204C445.894 55.7654 446.177 56.0376 446.538 56.2369C446.906 56.4286 447.324 56.5244 447.791 56.5244C448.159 56.5244 448.5 56.4592 448.815 56.3289C449.137 56.1986 449.413 55.9992 449.643 55.7309L450.103 56.2599C449.834 56.5819 449.497 56.8272 449.091 56.9959C448.692 57.1646 448.251 57.2489 447.768 57.2489ZM452.29 57.1914V51.1539H457.718V57.1914H456.901V51.6484L457.108 51.8669H452.899L453.106 51.6484V57.1914H452.29ZM460.039 57.1914V51.1539H460.855V56.4784H464.547V51.1539H465.363V57.1914H460.039ZM465.57 58.6519V57.1224L465.777 57.1914H464.547V56.4784H466.341V58.6519H465.57ZM467.9 57.1914V51.1539H468.717V55.9494L472.753 51.1539H473.478V57.1914H472.661V52.3844L468.636 57.1914H467.9ZM479.716 57.1914V55.0179L479.866 55.1904H477.819C477.044 55.1904 476.439 55.0217 476.002 54.6844C475.565 54.3471 475.346 53.8564 475.346 53.2124C475.346 52.5224 475.58 52.0087 476.048 51.6714C476.515 51.3264 477.14 51.1539 477.922 51.1539H480.464V57.1914H479.716ZM475.3 57.1914L476.956 54.8684H477.807L476.186 57.1914H475.3ZM479.716 54.7764V51.6254L479.866 51.8669H477.945C477.385 51.8669 476.948 51.9742 476.634 52.1889C476.327 52.4036 476.174 52.7524 476.174 53.2354C476.174 54.1324 476.745 54.5809 477.888 54.5809H479.866L479.716 54.7764ZM389.337 73.1914V67.1539H394.765V73.1914H393.949V67.6484L394.156 67.8669H389.947L390.154 67.6484V73.1914H389.337ZM400.203 73.2489C399.681 73.2489 399.21 73.1301 398.788 72.8924C398.367 72.6471 398.029 72.2982 397.776 71.8459C397.531 71.3859 397.408 70.8262 397.408 70.1669C397.408 69.5076 397.531 68.9517 397.776 68.4994C398.022 68.0394 398.355 67.6906 398.777 67.4529C399.198 67.2152 399.674 67.0964 400.203 67.0964C400.778 67.0964 401.291 67.2267 401.744 67.4874C402.204 67.7404 402.564 68.1007 402.825 68.5684C403.085 69.0284 403.216 69.5612 403.216 70.1669C403.216 70.7802 403.085 71.3169 402.825 71.7769C402.564 72.2369 402.204 72.5972 401.744 72.8579C401.291 73.1186 400.778 73.2489 400.203 73.2489ZM397.086 75.4224V67.1539H397.868V68.9709L397.788 70.1784L397.903 71.3974V75.4224H397.086ZM400.145 72.5244C400.575 72.5244 400.958 72.4286 401.295 72.2369C401.633 72.0376 401.901 71.7616 402.1 71.4089C402.3 71.0486 402.399 70.6346 402.399 70.1669C402.399 69.6992 402.3 69.2891 402.1 68.9364C401.901 68.5837 401.633 68.3077 401.295 68.1084C400.958 67.9091 400.575 67.8094 400.145 67.8094C399.716 67.8094 399.329 67.9091 398.984 68.1084C398.646 68.3077 398.378 68.5837 398.179 68.9364C397.987 69.2891 397.891 69.6992 397.891 70.1669C397.891 70.6346 397.987 71.0486 398.179 71.4089C398.378 71.7616 398.646 72.0376 398.984 72.2369C399.329 72.4286 399.716 72.5244 400.145 72.5244ZM407.454 73.2489C406.871 73.2489 406.346 73.1186 405.879 72.8579C405.419 72.5896 405.054 72.2254 404.786 71.7654C404.518 71.2977 404.384 70.7649 404.384 70.1669C404.384 69.5612 404.518 69.0284 404.786 68.5684C405.054 68.1084 405.419 67.7481 405.879 67.4874C406.339 67.2267 406.864 67.0964 407.454 67.0964C408.052 67.0964 408.581 67.2267 409.041 67.4874C409.509 67.7481 409.873 68.1084 410.134 68.5684C410.402 69.0284 410.536 69.5612 410.536 70.1669C410.536 70.7649 410.402 71.2977 410.134 71.7654C409.873 72.2254 409.509 72.5896 409.041 72.8579C408.573 73.1186 408.044 73.2489 407.454 73.2489ZM407.454 72.5244C407.891 72.5244 408.278 72.4286 408.616 72.2369C408.953 72.0376 409.217 71.7616 409.409 71.4089C409.608 71.0486 409.708 70.6346 409.708 70.1669C409.708 69.6916 409.608 69.2776 409.409 68.9249C409.217 68.5722 408.953 68.3001 408.616 68.1084C408.278 67.9091 407.895 67.8094 407.466 67.8094C407.036 67.8094 406.653 67.9091 406.316 68.1084C405.978 68.3001 405.71 68.5722 405.511 68.9249C405.311 69.2776 405.212 69.6916 405.212 70.1669C405.212 70.6346 405.311 71.0486 405.511 71.4089C405.71 71.7616 405.978 72.0376 406.316 72.2369C406.653 72.4286 407.032 72.5244 407.454 72.5244ZM414.869 73.2489C414.24 73.2489 413.688 73.1186 413.213 72.8579C412.737 72.5896 412.365 72.2254 412.097 71.7654C411.829 71.2977 411.695 70.7649 411.695 70.1669C411.695 69.5689 411.821 69.0399 412.074 68.5799C412.335 68.1199 412.687 67.7596 413.132 67.4989C413.584 67.2306 414.09 67.0964 414.65 67.0964C415.217 67.0964 415.72 67.2267 416.157 67.4874C416.601 67.7404 416.95 68.1007 417.203 68.5684C417.456 69.0284 417.583 69.5612 417.583 70.1669C417.583 70.2052 417.579 70.2474 417.571 70.2934C417.571 70.3317 417.571 70.3739 417.571 70.4199H412.316V69.8104H417.134L416.812 70.0519C416.812 69.6149 416.716 69.2277 416.525 68.8904C416.341 68.5454 416.088 68.2771 415.766 68.0854C415.444 67.8937 415.072 67.7979 414.65 67.7979C414.236 67.7979 413.864 67.8937 413.535 68.0854C413.205 68.2771 412.948 68.5454 412.764 68.8904C412.58 69.2354 412.488 69.6302 412.488 70.0749V70.2014C412.488 70.6614 412.588 71.0677 412.787 71.4204C412.994 71.7654 413.278 72.0376 413.638 72.2369C414.006 72.4286 414.424 72.5244 414.892 72.5244C415.26 72.5244 415.601 72.4592 415.915 72.3289C416.237 72.1986 416.513 71.9992 416.743 71.7309L417.203 72.2599C416.935 72.5819 416.597 72.8272 416.191 72.9959C415.792 73.1646 415.352 73.2489 414.869 73.2489ZM423.818 73.1914L421.334 70.2014L422.012 69.7989L424.784 73.1914H423.818ZM419.39 73.1914V67.1539H420.207V73.1914H419.39ZM419.954 70.5004V69.7989H421.897V70.5004H419.954ZM422.081 70.2589L421.322 70.1439L423.726 67.1539H424.611L422.081 70.2589ZM427.099 73.1914V67.6484L427.306 67.8669H424.81V67.1539H430.204V67.8669H427.708L427.915 67.6484V73.1914H427.099ZM435.133 73.1914V71.8574L435.099 71.6389V69.4079C435.099 68.8942 434.953 68.4994 434.662 68.2234C434.378 67.9474 433.952 67.8094 433.385 67.8094C432.994 67.8094 432.622 67.8746 432.27 68.0049C431.917 68.1352 431.618 68.3077 431.373 68.5224L431.005 67.9129C431.311 67.6522 431.679 67.4529 432.109 67.3149C432.538 67.1692 432.99 67.0964 433.466 67.0964C434.248 67.0964 434.849 67.2919 435.271 67.6829C435.7 68.0662 435.915 68.6527 435.915 69.4424V73.1914H435.133ZM433.052 73.2489C432.599 73.2489 432.204 73.1761 431.867 73.0304C431.537 72.8771 431.284 72.6701 431.108 72.4094C430.932 72.1411 430.844 71.8344 430.844 71.4894C430.844 71.1751 430.916 70.8914 431.062 70.6384C431.215 70.3777 431.461 70.1707 431.798 70.0174C432.143 69.8564 432.603 69.7759 433.178 69.7759H435.26V70.3854H433.201C432.618 70.3854 432.212 70.4889 431.982 70.6959C431.76 70.9029 431.649 71.1597 431.649 71.4664C431.649 71.8114 431.783 72.0874 432.051 72.2944C432.319 72.5014 432.695 72.6049 433.178 72.6049C433.638 72.6049 434.033 72.5014 434.363 72.2944C434.7 72.0797 434.945 71.7731 435.099 71.3744L435.283 71.9379C435.129 72.3366 434.861 72.6547 434.478 72.8924C434.102 73.1301 433.627 73.2489 433.052 73.2489ZM441.099 73.1914V67.1539H441.915V71.9494L445.952 67.1539H446.676V73.1914H445.86V68.3844L441.835 73.1914H441.099ZM454.74 73.2604C454.249 73.2604 453.812 73.1799 453.429 73.0189C453.053 72.8579 452.731 72.6126 452.463 72.2829C452.194 71.9532 451.991 71.5469 451.853 71.0639C451.715 70.5732 451.646 70.0059 451.646 69.3619C451.646 68.7869 451.7 68.2847 451.807 67.8554C451.915 67.4184 452.064 67.0427 452.256 66.7284C452.447 66.4141 452.67 66.1496 452.923 65.9349C453.183 65.7126 453.463 65.5362 453.762 65.4059C454.069 65.2679 454.383 65.1644 454.705 65.0954L457.419 64.4629L457.557 65.2219L455.004 65.7969C454.843 65.8352 454.648 65.8889 454.418 65.9579C454.195 66.0269 453.965 66.1304 453.728 66.2684C453.498 66.4064 453.283 66.5981 453.084 66.8434C452.884 67.0887 452.723 67.4069 452.601 67.7979C452.486 68.1812 452.428 68.6604 452.428 69.2354C452.428 69.3581 452.432 69.4577 452.44 69.5344C452.447 69.6034 452.455 69.6801 452.463 69.7644C452.478 69.8411 452.49 69.9561 452.497 70.1094L452.141 69.8104C452.225 69.3427 452.398 68.9364 452.658 68.5914C452.919 68.2387 453.245 67.9666 453.636 67.7749C454.034 67.5756 454.475 67.4759 454.958 67.4759C455.518 67.4759 456.016 67.5986 456.453 67.8439C456.89 68.0816 457.231 68.4151 457.477 68.8444C457.73 69.2737 457.856 69.7721 457.856 70.3394C457.856 70.8991 457.726 71.4012 457.465 71.8459C457.212 72.2906 456.852 72.6394 456.384 72.8924C455.917 73.1377 455.368 73.2604 454.74 73.2604ZM454.832 72.5819C455.261 72.5819 455.641 72.4861 455.97 72.2944C456.3 72.0951 456.557 71.8267 456.741 71.4894C456.932 71.1521 457.028 70.7726 457.028 70.3509C457.028 69.9369 456.932 69.5689 456.741 69.2469C456.557 68.9249 456.3 68.6719 455.97 68.4879C455.641 68.2962 455.257 68.2004 454.82 68.2004C454.391 68.2004 454.011 68.2924 453.682 68.4764C453.352 68.6527 453.091 68.9019 452.9 69.2239C452.716 69.5459 452.624 69.9177 452.624 70.3394C452.624 70.7611 452.716 71.1406 452.9 71.4779C453.091 71.8152 453.352 72.0836 453.682 72.2829C454.019 72.4822 454.402 72.5819 454.832 72.5819ZM462.723 73.2489C462.201 73.2489 461.73 73.1301 461.308 72.8924C460.887 72.6471 460.549 72.2982 460.296 71.8459C460.051 71.3859 459.928 70.8262 459.928 70.1669C459.928 69.5076 460.051 68.9517 460.296 68.4994C460.542 68.0394 460.875 67.6906 461.297 67.4529C461.718 67.2152 462.194 67.0964 462.723 67.0964C463.298 67.0964 463.811 67.2267 464.264 67.4874C464.724 67.7404 465.084 68.1007 465.345 68.5684C465.605 69.0284 465.736 69.5612 465.736 70.1669C465.736 70.7802 465.605 71.3169 465.345 71.7769C465.084 72.2369 464.724 72.5972 464.264 72.8579C463.811 73.1186 463.298 73.2489 462.723 73.2489ZM459.606 75.4224V67.1539H460.388V68.9709L460.308 70.1784L460.423 71.3974V75.4224H459.606ZM462.665 72.5244C463.095 72.5244 463.478 72.4286 463.815 72.2369C464.153 72.0376 464.421 71.7616 464.62 71.4089C464.82 71.0486 464.919 70.6346 464.919 70.1669C464.919 69.6992 464.82 69.2891 464.62 68.9364C464.421 68.5837 464.153 68.3077 463.815 68.1084C463.478 67.9091 463.095 67.8094 462.665 67.8094C462.236 67.8094 461.849 67.9091 461.504 68.1084C461.166 68.3077 460.898 68.5837 460.699 68.9364C460.507 69.2891 460.411 69.6992 460.411 70.1669C460.411 70.6346 460.507 71.0486 460.699 71.4089C460.898 71.7616 461.166 72.0376 461.504 72.2369C461.849 72.4286 462.236 72.5244 462.665 72.5244ZM470.078 73.2489C469.449 73.2489 468.897 73.1186 468.422 72.8579C467.946 72.5896 467.574 72.2254 467.306 71.7654C467.038 71.2977 466.904 70.7649 466.904 70.1669C466.904 69.5689 467.03 69.0399 467.283 68.5799C467.544 68.1199 467.896 67.7596 468.341 67.4989C468.793 67.2306 469.299 67.0964 469.859 67.0964C470.426 67.0964 470.929 67.2267 471.366 67.4874C471.81 67.7404 472.159 68.1007 472.412 68.5684C472.665 69.0284 472.792 69.5612 472.792 70.1669C472.792 70.2052 472.788 70.2474 472.78 70.2934C472.78 70.3317 472.78 70.3739 472.78 70.4199H467.525V69.8104H472.343L472.021 70.0519C472.021 69.6149 471.925 69.2277 471.734 68.8904C471.55 68.5454 471.297 68.2771 470.975 68.0854C470.653 67.8937 470.281 67.7979 469.859 67.7979C469.445 67.7979 469.073 67.8937 468.744 68.0854C468.414 68.2771 468.157 68.5454 467.973 68.8904C467.789 69.2354 467.697 69.6302 467.697 70.0749V70.2014C467.697 70.6614 467.797 71.0677 467.996 71.4204C468.203 71.7654 468.487 72.0376 468.847 72.2369C469.215 72.4286 469.633 72.5244 470.101 72.5244C470.469 72.5244 470.81 72.4592 471.124 72.3289C471.446 72.1986 471.722 71.9992 471.952 71.7309L472.412 72.2599C472.144 72.5819 471.806 72.8272 471.4 72.9959C471.001 73.1646 470.561 73.2489 470.078 73.2489ZM474.599 73.1914V67.1539H475.416V69.8219H479.222V67.1539H480.039V73.1914H479.222V70.5234H475.416V73.1914H474.599ZM486.499 72.8004V67.8669H483.59L483.521 69.2124C483.505 69.6187 483.479 70.0174 483.44 70.4084C483.41 70.7994 483.352 71.1597 483.268 71.4894C483.191 71.8114 483.08 72.0759 482.934 72.2829C482.789 72.4822 482.601 72.5972 482.371 72.6279L481.554 72.4784C481.792 72.4861 481.987 72.4017 482.141 72.2254C482.294 72.0414 482.413 71.7922 482.497 71.4779C482.582 71.1636 482.643 70.8071 482.681 70.4084C482.72 70.0021 482.75 69.5881 482.773 69.1664L482.854 67.1539H487.316V72.8004H486.499ZM481.301 74.6519V72.4784H488.259V74.6519H487.488V73.1914H482.072V74.6519H481.301ZM489.85 73.1914V67.1539H490.666V71.9494L494.703 67.1539H495.427V73.1914H494.611V68.3844L490.586 73.1914H489.85ZM497.767 73.1914V67.1539H498.584V69.8219H502.39V67.1539H503.207V73.1914H502.39V70.5234H498.584V73.1914H497.767ZM505.528 73.1914V67.1539H509.806V67.8669H506.137L506.344 67.6599V73.1914H505.528Z" fill="black"/>
<circle cx="137" cy="61.6914" r="12.5" fill="#D3FFDD"/>
<circle cx="138" cy="62.6914" r="19.5" fill="#D3FFDD"/>
<circle cx="137.633" cy="62.3245" r="9.77294" fill="black"/>
<path d="M137.572 66.9914V57.8914L138.37 58.7174H135.5V57.1914H139.392V66.9914H137.572Z" fill="#D3FFDD"/>
<circle cx="339" cy="61.6914" r="19.5" fill="#D3FFDD"/>
<circle cx="339.273" cy="61.9643" r="9.77294" fill="black"/>
<circle cx="500" cy="239.191" r="19.5" fill="#D3FFDD"/>
<circle cx="500.273" cy="239.464" r="9.77294" fill="black"/>
<circle cx="156" cy="335.691" r="19.5" fill="#D3FFDD"/>
<circle cx="156.273" cy="335.964" r="9.77294" fill="black"/>
<path d="M335.848 66.1914V65.0886L339.432 61.7421C339.733 61.4632 339.956 61.2182 340.102 61.0069C340.249 60.7956 340.343 60.6013 340.386 60.4238C340.438 60.2379 340.463 60.0646 340.463 59.9041C340.463 59.4984 340.322 59.1858 340.038 58.9661C339.754 58.7379 339.338 58.6238 338.788 58.6238C338.349 58.6238 337.95 58.6999 337.589 58.852C337.236 59.0041 336.931 59.2365 336.673 59.5492L335.5 58.6618C335.853 58.197 336.325 57.8379 336.918 57.5844C337.52 57.3224 338.19 57.1914 338.929 57.1914C339.583 57.1914 340.15 57.297 340.631 57.5083C341.121 57.7111 341.495 58.0027 341.753 58.383C342.019 58.7632 342.152 59.2153 342.152 59.7393C342.152 60.0266 342.114 60.3139 342.036 60.6013C341.959 60.8801 341.813 61.1759 341.598 61.4886C341.383 61.8013 341.069 62.152 340.657 62.5407L337.576 65.4182L337.228 64.797H342.5V66.1914H335.848Z" fill="#D3FFDD"/>
<path d="M500.182 244.631C499.491 244.631 498.815 244.533 498.152 244.337C497.499 244.132 496.948 243.852 496.5 243.497L497.284 242.083C497.639 242.373 498.068 242.606 498.572 242.783C499.076 242.961 499.603 243.049 500.154 243.049C500.807 243.049 501.316 242.919 501.68 242.657C502.044 242.387 502.226 242.023 502.226 241.565C502.226 241.117 502.058 240.763 501.722 240.501C501.386 240.24 500.845 240.109 500.098 240.109H499.202V238.863L502.002 235.531L502.24 236.217H496.976V234.691H503.654V235.909L500.854 239.241L499.902 238.681H500.448C501.652 238.681 502.553 238.952 503.15 239.493C503.757 240.025 504.06 240.711 504.06 241.551C504.06 242.102 503.92 242.611 503.64 243.077C503.36 243.544 502.931 243.922 502.352 244.211C501.783 244.491 501.059 244.631 500.182 244.631Z" fill="#D3FFDD"/>
<path d="M151.5 338.765V337.505L156.33 331.191H158.276L153.516 337.505L152.606 337.225H160.376V338.765H151.5ZM156.876 340.991V338.765L156.932 337.225V335.251H158.64V340.991H156.876Z" fill="#D3FFDD"/>
</svg>
