<svg width="262" height="158" viewBox="0 0 262 158" fill="none" xmlns="http://www.w3.org/2000/svg">
<g clip-path="url(#clip0_234_16586)">
<rect x="0.5" y="0.105469" width="261" height="157" rx="4" fill="#F7F5FF"/>
<path d="M-35 78.1055H297" stroke="black" stroke-dasharray="4 4"/>
<path d="M131 -56.8945L131 156.105" stroke="black"/>
<path d="M190.5 78.1055C190.5 111.531 164.073 138.605 131.5 138.605C98.9269 138.605 72.5 111.531 72.5 78.1055C72.5 44.6804 98.9269 17.6055 131.5 17.6055C164.073 17.6055 190.5 44.6804 190.5 78.1055Z" fill="#F7F5FF" stroke="black"/>
<circle cx="191" cy="78.1055" r="6" fill="black"/>
<circle cx="73" cy="78.1055" r="6" fill="black"/>
<path d="M130.807 110.555C126.187 110.555 121.867 109.775 117.847 108.215C113.887 106.655 110.797 104.615 108.577 102.095L110.917 98.5855C112.837 100.805 115.537 102.665 119.017 104.165C122.557 105.605 126.487 106.325 130.807 106.325C136.447 106.325 140.737 105.065 143.677 102.545C146.677 100.025 148.177 96.6355 148.177 92.3755C148.177 88.1755 146.677 84.8155 143.677 82.2955C140.737 79.7155 136.117 78.4255 129.817 78.4255H125.857V75.0955L145.927 49.4455L146.557 51.2455H110.917V47.1055H150.427V50.3455L130.447 75.9955L128.467 74.5555H130.447C137.947 74.5555 143.557 76.2055 147.277 79.5055C150.997 82.8055 152.857 87.0955 152.857 92.3755C152.857 95.8555 152.017 98.9755 150.337 101.735C148.717 104.495 146.257 106.655 142.957 108.215C139.717 109.775 135.667 110.555 130.807 110.555Z" fill="#242424"/>
</g>
<defs>
<clipPath id="clip0_234_16586">
<rect x="0.5" y="0.105469" width="261" height="157" rx="4" fill="white"/>
</clipPath>
</defs>
</svg>
