<svg width="362" height="158" viewBox="0 0 362 158" fill="none" xmlns="http://www.w3.org/2000/svg">
<g clip-path="url(#clip0_234_17903)">
<rect x="0.833252" y="0.105469" width="361" height="157" rx="4" fill="#F7F5FF"/>
<g clip-path="url(#clip1_234_17903)">
<path d="M127.512 154.462L163.314 107.252L204.297 136.955L181.675 171.498L154.531 151.034L143.051 165.925L127.512 154.462Z" fill="#F9F8F8"/>
<path d="M117.138 87.5066H136.07L167.96 45.4951H185.694L209.313 14.608L183.849 -2.78412L117.138 87.5066Z" fill="#F9F8F8"/>
<path d="M232.365 59.3307L231.367 96.5098L289.215 95.9417L322.087 107.887L326.286 99.6284L301.644 80.7041L301.035 59.2207L232.365 59.3307Z" fill="#F9F8F8"/>
<path d="M61.9431 133.877L76.1379 115.844L64.5708 107.011L68.119 87.5067L48.6513 70.8649L23.2954 104.653L61.9431 133.877Z" fill="#F9F8F8"/>
<path d="M61.9431 135.59L97.3736 88.0964C97.6504 87.7253 98.0864 87.5067 98.5496 87.5067H116.398C116.864 87.5067 117.301 87.2858 117.578 86.9115L183.849 -2.78411C184.126 -3.15841 184.564 -3.37927 185.029 -3.37927H242.574" stroke="#E5E5E5" stroke-miterlimit="10"/>
<path d="M180.401 81.9422L300.55 80.2721C300.865 80.2677 301.173 80.3647 301.429 80.5489L322.922 96.04C323.172 96.2201 323.472 96.317 323.78 96.317H369.046C369.666 96.317 370.22 96.7068 370.428 97.2905L378.38 119.574C378.471 119.83 378.632 120.056 378.845 120.226L393.652 132.065C394.269 132.558 394.384 133.452 393.912 134.085L377.567 156.008C377.291 156.38 376.855 156.598 376.391 156.598H338.931C338.454 156.598 338.007 156.831 337.732 157.221L317.713 185.653C317.438 186.043 316.99 186.276 316.513 186.276H275.58C275.274 186.276 274.975 186.18 274.726 186.001L268.557 181.638" stroke="#E5E5E5" stroke-miterlimit="10"/>
<path d="M95.4936 36.963V8.99478C95.4936 8.18514 94.8368 7.52881 94.0267 7.52881H38.9683C38.6264 7.52881 38.2953 7.64814 38.0321 7.86619L15.7563 26.3218C15.4201 26.6003 15.2256 27.014 15.2256 27.4504V100.496C15.2256 101 15.4848 101.468 15.9119 101.737L22.4172 105.823" stroke="#E5E5E5" stroke-miterlimit="10"/>
<path d="M15.2256 47.7731L67.7274 87.2125C67.9815 87.4034 68.2908 87.5066 68.6088 87.5066H135.594C135.904 87.5066 136.205 87.6044 136.455 87.7859L204.297 136.955C204.45 137.066 204.58 137.205 204.68 137.365L211.265 147.895C211.411 148.128 211.488 148.398 211.488 148.672V179.552" stroke="#E5E5E5" stroke-miterlimit="10"/>
<path d="M379.802 153.01L316.545 105.951C316.43 105.866 316.304 105.798 316.171 105.75L289.215 95.9418C289.054 95.8833 288.884 95.8533 288.713 95.8533H232.589C232.097 95.8533 231.638 96.0999 231.367 96.5099L182.23 170.661L176.338 179.552" stroke="#E5E5E5" stroke-miterlimit="10"/>
<path d="M192.673 179.552L116.988 124.126C116.602 123.844 116.379 123.391 116.389 122.913L117.138 87.5067" stroke="#E5E5E5" stroke-miterlimit="10"/>
<path d="M269.685 16.4046V31.557C269.685 31.9708 269.861 32.3654 270.167 32.6433L277.588 39.3637C277.895 39.6416 278.07 40.0362 278.07 40.4501V79.5959C278.07 79.9148 277.966 80.2251 277.774 80.4796L230.359 143.202C230.157 143.469 229.87 143.659 229.544 143.74L211.488 148.252" stroke="#E5E5E5" stroke-miterlimit="10"/>
<path d="M184.289 -3.37927L235.802 33.6486C236.256 33.9744 236.484 34.5292 236.393 35.0797L232.385 59.1123C232.373 59.1845 232.366 59.2575 232.365 59.3307L231.814 95.0834C231.806 95.5654 232.036 96.0204 232.429 96.3L290.596 137.703L319.696 156.366C319.933 156.518 320.208 156.599 320.489 156.599H338.17" stroke="#E5E5E5" stroke-miterlimit="10"/>
<path d="M196.704 93.7732L143.283 165.409" stroke="#E5E5E5" stroke-miterlimit="10"/>
<path d="M68.1188 87.5067L64.5706 107.011C64.4705 107.561 64.6924 108.12 65.1426 108.452L161.523 179.552" stroke="#E5E5E5" stroke-miterlimit="10"/>
<path d="M209.313 14.608L186.873 44.9014C186.596 45.2748 186.159 45.4951 185.694 45.4951H167.96C167.495 45.4951 167.058 45.7151 166.781 46.0882L136.07 87.5066" stroke="#E5E5E5" stroke-miterlimit="10"/>
<path d="M117.138 87.5067L64.1575 51.4937C63.756 51.2208 63.5156 50.7669 63.5156 50.2815V7.52881" stroke="#E5E5E5" stroke-miterlimit="10"/>
<path d="M374.209 107.887L338.17 156.599" stroke="#E5E5E5" stroke-miterlimit="10"/>
<path d="M301.035 80.2653L227.959 179.552" stroke="#E5E5E5" stroke-miterlimit="10"/>
<path d="M236.542 34.1808L269.685 32.2069" stroke="#E5E5E5" stroke-miterlimit="10"/>
<path d="M301.035 39.2815L278.07 39.8002" stroke="#E5E5E5" stroke-miterlimit="10"/>
<path d="M78.6057 148.139L92.2246 129.139C92.4383 128.841 92.7562 128.634 93.1154 128.558L116.373 123.676" stroke="#E5E5E5" stroke-miterlimit="10"/>
<path d="M381.167 19.5L351.146 58.6336C350.869 59.0032 350.434 59.2207 349.972 59.2207H232.848C232.535 59.2207 232.231 59.1211 231.979 58.9363L147.087 -3.37927" stroke="black" stroke-miterlimit="10"/>
<path d="M73.2228 228.936L241.71 -2.19317C242.187 -2.84805 243.105 -2.9917 243.76 -2.5139L300.434 38.8423C300.812 39.1183 301.035 39.5582 301.035 40.0262V79.5151C301.035 79.9862 301.262 80.4286 301.644 80.7041L326.286 99.6284C326.946 100.104 327.093 101.024 326.614 101.681L267.603 182.584L255.948 198.563C255.478 199.208 254.578 199.358 253.924 198.902L228.337 179.815C228.091 179.644 227.798 179.552 227.498 179.552H120.807C120.489 179.552 120.179 179.448 119.924 179.257L23.5861 106.703C22.9402 106.217 22.8101 105.299 23.2954 104.653L73.4845 37.7735C73.7582 37.4087 74.1862 37.192 74.6425 37.1872L117.512 36.7362C117.827 36.7329 118.134 36.8307 118.389 37.0153L257.608 137.913C257.933 138.149 258.148 138.508 258.201 138.906L267.629 182.566" stroke="black" stroke-miterlimit="10"/>
<path d="M181.298 89.3052C184.611 89.3052 187.298 86.6189 187.298 83.3052C187.298 79.9915 184.611 77.3052 181.298 77.3052C177.984 77.3052 175.298 79.9915 175.298 83.3052C175.298 86.6189 177.984 89.3052 181.298 89.3052Z" fill="black" stroke="#F7F5FF" stroke-width="2" stroke-miterlimit="10"/>
<circle cx="181" cy="83" r="67.5" stroke="black" stroke-dasharray="4 4"/>
<circle cx="181" cy="83" r="37.5" stroke="black" stroke-dasharray="4 4"/>
</g>
</g>
<defs>
<clipPath id="clip0_234_17903">
<rect x="0.833252" y="0.105469" width="361" height="157" rx="4" fill="white"/>
</clipPath>
<clipPath id="clip1_234_17903">
<rect width="398" height="313" fill="white" transform="translate(-3.3335 -21)"/>
</clipPath>
</defs>
</svg>
