<svg width="208" height="115" viewBox="0 0 208 115" fill="none" xmlns="http://www.w3.org/2000/svg">
<g clip-path="url(#clip0_304_376)">
<rect x="0.5" y="0.568359" width="207" height="114" rx="4" fill="#F7F5FF"/>
<path d="M-24.5 57.5684H218.5" stroke="black" stroke-dasharray="4 4"/>
<path d="M96.5 -41.4316L96.5 114.568" stroke="black"/>
<path d="M140 57.5684C140 82.1611 120.732 102.068 97 102.068C73.2676 102.068 54 82.1611 54 57.5684C54 32.9756 73.2676 13.0684 97 13.0684C120.732 13.0684 140 32.9756 140 57.5684Z" fill="#F7F5FF" stroke="black"/>
<ellipse cx="140.5" cy="57.0684" rx="4" ry="4.5" fill="black"/>
<circle cx="54" cy="57.0684" r="4.5" fill="black"/>
<path d="M96.522 76.8284C93.8526 76.8284 91.3566 76.3777 89.034 75.4764C86.746 74.575 84.9606 73.3964 83.678 71.9404L85.03 69.9124C86.1393 71.195 87.6993 72.2697 89.71 73.1364C91.7553 73.9684 94.026 74.3844 96.522 74.3844C99.7806 74.3844 102.259 73.6564 103.958 72.2004C105.691 70.7444 106.558 68.7857 106.558 66.3244C106.558 63.8977 105.691 61.9564 103.958 60.5004C102.259 59.0097 99.59 58.2644 95.95 58.2644H93.662V56.3404L105.258 41.5204L105.622 42.5604H85.03V40.1684H107.858V42.0404L96.314 56.8604L95.17 56.0284H96.314C100.647 56.0284 103.889 56.9817 106.038 58.8884C108.187 60.795 109.262 63.2737 109.262 66.3244C109.262 68.335 108.777 70.1377 107.806 71.7324C106.87 73.327 105.449 74.575 103.542 75.4764C101.67 76.3777 99.33 76.8284 96.522 76.8284Z" fill="black"/>
</g>
<defs>
<clipPath id="clip0_304_376">
<rect x="0.5" y="0.568359" width="207" height="114" rx="4" fill="white"/>
</clipPath>
</defs>
</svg>
