<svg width="362" height="158" viewBox="0 0 362 158" fill="none" xmlns="http://www.w3.org/2000/svg">
<g clip-path="url(#clip0_234_17791)">
<rect x="0.166504" y="0.105469" width="361" height="157" rx="4" fill="#F7F5FF"/>
<g clip-path="url(#clip1_234_17791)">
<path d="M128.873 149.659L164.135 103.203L204.5 132.432L182.22 166.423L155.485 146.286L144.178 160.939L128.873 149.659Z" fill="#F7F5FF"/>
<path d="M118.656 83.7733H137.302L168.711 42.4329H186.178L209.441 12.0392L184.361 -5.07507L118.656 83.7733Z" fill="#F9F5FC"/>
<path d="M232.145 56.0475L231.162 92.6327L288.138 92.0737L320.515 103.828L324.651 95.7015L300.38 77.0795L299.78 55.9393L232.145 56.0475Z" fill="#F9F5FC"/>
<path d="M64.2926 129.403L78.2734 111.658L66.8806 102.966L70.3754 83.7733L51.2011 67.3975L26.2275 100.646L64.2926 129.403Z" fill="#F9F5FC"/>
<path d="M64.2925 131.089L99.1888 84.3536C99.4615 83.9884 99.8909 83.7733 100.347 83.7733H117.926C118.385 83.7733 118.816 83.556 119.089 83.1877L184.361 -5.07512C184.633 -5.44343 185.064 -5.66077 185.523 -5.66077H242.201" stroke="#E5E5E5" stroke-miterlimit="10"/>
<path d="M180.965 78.2978L299.303 76.6543C299.613 76.65 299.916 76.7455 300.168 76.9267L321.337 92.1704C321.583 92.3476 321.879 92.4429 322.182 92.4429H366.766C367.377 92.4429 367.921 92.8265 368.127 93.4009L375.958 115.328C376.049 115.58 376.207 115.803 376.417 115.97L391.001 127.62C391.609 128.105 391.722 128.985 391.257 129.608L375.159 151.181C374.886 151.546 374.456 151.761 374 151.761H337.105C336.635 151.761 336.194 151.99 335.923 152.374L316.206 180.352C315.936 180.736 315.495 180.964 315.025 180.964H274.709C274.407 180.964 274.113 180.87 273.867 180.694L267.791 176.401" stroke="#E5E5E5" stroke-miterlimit="10"/>
<path d="M97.3372 34.037V6.51561C97.3372 5.71891 96.6904 5.07306 95.8925 5.07306H41.664C41.3273 5.07306 41.0012 5.19048 40.742 5.40505L18.802 23.5659C18.4709 23.8399 18.2793 24.247 18.2793 24.6764V96.5547C18.2793 97.0508 18.5346 97.5121 18.9552 97.776L25.3625 101.797" stroke="#E5E5E5" stroke-miterlimit="10"/>
<path d="M18.2793 44.6744L69.9896 83.4839C70.2399 83.6717 70.5446 83.7733 70.8577 83.7733H136.833C137.138 83.7733 137.435 83.8695 137.682 84.0481L204.5 132.432C204.651 132.541 204.779 132.678 204.877 132.835L211.363 143.197C211.507 143.427 211.583 143.691 211.583 143.962V174.348" stroke="#E5E5E5" stroke-miterlimit="10"/>
<path d="M377.36 148.231L315.056 101.923C314.944 101.839 314.819 101.773 314.688 101.725L288.138 92.0737C287.98 92.0161 287.813 91.9866 287.644 91.9866H232.366C231.882 91.9866 231.43 92.2292 231.162 92.6327L182.766 165.599L176.963 174.348" stroke="#E5E5E5" stroke-miterlimit="10"/>
<path d="M193.052 174.348L118.508 119.808C118.128 119.53 117.907 119.084 117.917 118.614L118.656 83.7733" stroke="#E5E5E5" stroke-miterlimit="10"/>
<path d="M268.903 13.8071V28.7174C268.903 29.1246 269.076 29.5129 269.378 29.7864L276.687 36.3995C276.989 36.6729 277.162 37.0612 277.162 37.4684V75.9889C277.162 76.3027 277.059 76.6081 276.87 76.8585L230.17 138.579C229.971 138.842 229.687 139.029 229.367 139.109L211.583 143.548" stroke="#E5E5E5" stroke-miterlimit="10"/>
<path d="M184.794 -5.66077L235.531 30.7756C235.977 31.0962 236.203 31.6422 236.112 32.1839L232.165 55.8325C232.153 55.9036 232.146 55.9754 232.145 56.0474L231.602 91.229C231.595 91.7034 231.822 92.151 232.209 92.4262L289.498 133.167L318.16 151.533C318.393 151.682 318.664 151.761 318.94 151.761H336.355" stroke="#E5E5E5" stroke-miterlimit="10"/>
<path d="M197.022 89.9397L144.406 160.431" stroke="#E5E5E5" stroke-miterlimit="10"/>
<path d="M70.375 83.7733L66.8803 102.966C66.7817 103.507 67.0003 104.057 67.4437 104.384L162.371 174.348" stroke="#E5E5E5" stroke-miterlimit="10"/>
<path d="M209.441 12.0392L187.339 41.8486C187.067 42.2161 186.636 42.4328 186.178 42.4328H168.711C168.253 42.4328 167.823 42.6494 167.55 43.0165L137.302 83.7733" stroke="#E5E5E5" stroke-miterlimit="10"/>
<path d="M118.656 83.7733L66.4735 48.3356C66.078 48.067 65.8413 47.6204 65.8413 47.1428V5.07306" stroke="#E5E5E5" stroke-miterlimit="10"/>
<path d="M371.851 103.828L336.355 151.761" stroke="#E5E5E5" stroke-miterlimit="10"/>
<path d="M299.78 76.6476L227.806 174.348" stroke="#E5E5E5" stroke-miterlimit="10"/>
<path d="M236.26 31.2992L268.903 29.3569" stroke="#E5E5E5" stroke-miterlimit="10"/>
<path d="M299.78 36.3185L277.162 36.8289" stroke="#E5E5E5" stroke-miterlimit="10"/>
<path d="M80.7039 143.437L94.1174 124.741C94.3279 124.448 94.641 124.244 94.9948 124.169L117.901 119.364" stroke="#E5E5E5" stroke-miterlimit="10"/>
<path d="M378.704 16.853L349.136 55.3614C348.863 55.7251 348.435 55.9392 347.98 55.9392H232.621C232.313 55.9392 232.013 55.8412 231.765 55.6593L148.153 -5.66077" stroke="black" stroke-miterlimit="10"/>
<path d="M75.4022 222.944L241.349 -4.49357C241.819 -5.13799 242.724 -5.27934 243.369 -4.80918L299.188 35.8863C299.56 36.1579 299.78 36.5908 299.78 37.0514V75.9095C299.78 76.373 300.004 76.8083 300.38 77.0795L324.651 95.7015C325.3 96.1692 325.445 97.0752 324.973 97.7213L266.852 177.332L255.372 193.056C254.909 193.69 254.024 193.838 253.379 193.389L228.178 174.607C227.936 174.439 227.647 174.348 227.352 174.348H122.269C121.956 174.348 121.65 174.246 121.4 174.058L26.5138 102.663C25.8776 102.185 25.7495 101.282 26.2275 100.646L75.6599 34.8346C75.9296 34.4757 76.3511 34.2624 76.8005 34.2577L119.024 33.8139C119.334 33.8106 119.636 33.9069 119.887 34.0886L257.007 133.374C257.328 133.606 257.539 133.96 257.591 134.352L266.878 177.314" stroke="black" stroke-miterlimit="10"/>
<path d="M323.056 101.971C326.319 101.971 328.965 99.3279 328.965 96.0671C328.965 92.8063 326.319 90.163 323.056 90.163C319.792 90.163 317.146 92.8063 317.146 96.0671C317.146 99.3279 319.792 101.971 323.056 101.971Z" fill="black" stroke="#F7F5FF" stroke-width="2" stroke-miterlimit="10"/>
<path d="M181.848 85.5431C185.112 85.5431 187.758 82.8997 187.758 79.639C187.758 76.3782 185.112 73.7348 181.848 73.7348C178.584 73.7348 175.938 76.3782 175.938 79.639C175.938 82.8997 178.584 85.5431 181.848 85.5431Z" fill="black" stroke="#F7F5FF" stroke-width="2" stroke-miterlimit="10"/>
<path d="M138.875 141.332C142.138 141.332 144.784 138.689 144.784 135.428C144.784 132.167 142.138 129.524 138.875 129.524C135.611 129.524 132.965 132.167 132.965 135.428C132.965 138.689 135.611 141.332 138.875 141.332Z" fill="black" stroke="#F7F5FF" stroke-width="2" stroke-miterlimit="10"/>
<path d="M258.05 140.348C261.314 140.348 263.96 137.705 263.96 134.444C263.96 131.183 261.314 128.54 258.05 128.54C254.787 128.54 252.141 131.183 252.141 134.444C252.141 137.705 254.787 140.348 258.05 140.348Z" fill="black" stroke="#F7F5FF" stroke-width="2" stroke-miterlimit="10"/>
<path d="M67.1454 54.9713C70.4091 54.9713 73.0549 52.3279 73.0549 49.0671C73.0549 45.8063 70.4091 43.163 67.1454 43.163C63.8816 43.163 61.2358 45.8063 61.2358 49.0671C61.2358 52.3279 63.8816 54.9713 67.1454 54.9713Z" fill="black" stroke="#F7F5FF" stroke-width="2" stroke-miterlimit="10"/>
<path d="M210.638 46.3016C213.902 46.3016 216.547 43.6582 216.547 40.3974C216.547 37.1367 213.902 34.4933 210.638 34.4933C207.374 34.4933 204.728 37.1367 204.728 40.3974C204.728 43.6582 207.374 46.3016 210.638 46.3016Z" fill="black" stroke="#F7F5FF" stroke-width="2" stroke-miterlimit="10"/>
</g>
</g>
<defs>
<clipPath id="clip0_234_17791">
<rect x="0.166504" y="0.105469" width="361" height="157" rx="4" fill="white"/>
</clipPath>
<clipPath id="clip1_234_17791">
<rect width="392" height="308" fill="white" transform="translate(0 -23)"/>
</clipPath>
</defs>
</svg>
