<svg width="553" height="360" viewBox="0 0 553 360" fill="none" xmlns="http://www.w3.org/2000/svg">
<g clip-path="url(#clip0_119_5026)">
<path d="M512.4 152.6C512.3 152 512.2 151.4 512.1 150.9C510 138.5 506.6 126.6 502 115.2C501.8 114.6 501.5 114 501.3 113.5C496.2 101.4 489.8 89.9998 482.3 79.4998C481.9 78.8998 481.5 78.2998 481 77.7998C471.5 64.9998 460.4 53.5998 447.8 43.7998C447 43.1998 446.3 42.5998 445.5 42.0998C416.9 20.4998 381.3 7.7998 342.8 7.7998C318.5 7.7998 295.3 12.8998 274.3 22.0998C267 18.8998 259.5 16.1998 251.8 14.0998C251.2 13.8998 250.6 13.7998 250.1 13.5998C236 9.7998 221.2 7.7998 205.9 7.7998C197.2 7.7998 188.7 8.4998 180.4 9.6998C179.8 9.7998 179.2 9.8998 178.7 9.9998C166.3 11.9998 154.4 15.2998 143 19.7998C142.4 19.9998 141.8 20.2998 141.3 20.4998C129.2 25.3998 117.9 31.6998 107.3 39.0998C106.7 39.4998 106.1 39.8998 105.6 40.2998C92.8999 49.4998 81.3999 60.3998 71.5999 72.6998C71 73.3998 70.4 74.1998 69.9 74.8998C47.5 103.9 34.2 140.2 34.2 179.6C34.2 219 47.5 255.3 69.9 284.3C70.5 285 71.0999 285.8 71.5999 286.5C81.3999 298.8 92.7999 309.7 105.6 318.9C106.2 319.3 106.8 319.7 107.3 320.1C117.8 327.5 129.2 333.7 141.3 338.7C141.9 338.9 142.5 339.2 143 339.4C154.4 343.9 166.3 347.2 178.7 349.2C179.3 349.3 179.9 349.4 180.4 349.5C188.7 350.7 197.2 351.4 205.9 351.4C221.2 351.4 236 349.4 250.1 345.6C250.7 345.4 251.3 345.3 251.8 345.1C259.6 342.9 267.1 340.2 274.4 337.1C295.4 346.3 318.6 351.4 342.9 351.4C375.8 351.4 406.6 342.1 432.8 325.9C433.7 325.3 434.7 324.7 435.6 324.2C450.1 314.9 463.1 303.4 474.2 290.2C474.7 289.6 475.2 289 475.7 288.5C483 279.6 489.4 270 494.8 259.8C495.1 259.2 495.4 258.6 495.7 258.1C501.2 247.4 505.6 236 508.8 224.1C509 223.5 509.1 222.9 509.3 222.4C512.8 208.8 514.7 194.5 514.7 179.7C514.6 170.4 513.8 161.4 512.4 152.6ZM510.4 150.8H375.2C373.1 138.4 369.7 126.5 365.1 115.1H500.2C504.8 126.5 508.3 138.4 510.4 150.8ZM335.4 289.5H335.2C328.1 288.2 322.2 287.1 316.2 286C315.3 285.8 314.9 285.7 314.7 285.5C314.6 285.3 314.6 284.8 314.9 283.9C316.9 276.6 318.7 269.9 320.5 263.4C320.7 262.6 320.9 262 321.2 261.9C321.5 261.8 322 261.9 322.7 262.1C330 264.2 337.5 266.3 344.1 268.2C344.4 268.3 344.7 268.4 345.1 268.6C345.3 268.7 345.4 268.7 345.6 268.8C345.4 269.5 345.2 270.1 345.1 270.7C344.7 272.2 344.3 273.6 343.8 275C343.2 276.8 342.6 278.7 342 280.5L341.7 281.4C339.7 284.2 337.6 286.9 335.4 289.5ZM310.1 313.7C308.9 314.6 307.8 315.5 306.6 316.4C306.5 316.5 306.4 316.6 306.3 316.6C305.7 317 305.1 317.5 304.5 317.9C305 316.5 305.5 315.1 306 313.8V313.7C306.6 312.1 306.6 312.1 308.3 312.1C309.4 312.1 310.5 312.2 311.6 312.2H311.9C311.7 312.3 311.6 312.5 311.4 312.6C310.9 313.1 310.5 313.4 310.1 313.7ZM197.8 90.9998C198.8 91.3998 199.7 91.6998 200.7 92.0998C202.7 92.8998 204.6 93.5998 206.6 94.3998C208.3 94.9998 208.3 94.9998 208 96.7998C207.1 103.9 206.1 111.4 205.1 119C204.6 122.4 204.1 125.9 203.6 129.2C203.4 130.7 203.1 132.3 202.9 133.8V134.1C202.9 134.3 202.8 134.5 202.8 134.8C202.6 136 202.5 136.8 202.2 137C201.9 137.2 201.1 137 199.9 136.7L199.3 136.5C197 135.9 194.7 135.3 192.4 134.6C188.6 133.5 184.9 132.5 181.1 131.4L179.9 131.1C181.5 125.7 183.4 120.4 185.5 115.2C185.7 114.6 186 114 186.2 113.5C189.5 105.6 193.4 98.0998 197.8 90.9998ZM206.8 77.6998C208.3 75.6998 209.9 73.6998 211.5 71.6998L211.4 72.5998C211 75.5998 210.6 78.6998 210.1 81.6998C209.7 84.3998 209.3 87.0998 208.9 89.8998C208.8 90.2998 208.7 90.7998 208.6 91.2998C208.6 91.4998 208.5 91.6998 208.5 91.9998C208.3 91.8998 208.1 91.8998 207.8 91.7998C207.3 91.6998 206.9 91.4998 206.5 91.3998L199.3 88.6998C201.3 85.5998 203.3 82.5998 205.5 79.5998C206 78.7998 206.4 78.2998 206.8 77.6998ZM230.4 52.1998C236.4 55.2998 242.7 58.6998 250.1 62.7998C251.9 63.7998 251.9 63.7998 251.5 65.7998C249.1 78.4998 246.8 91.2998 244.4 104C244.3 104.5 244.2 104.9 244 105.5C243.9 105.7 243.9 105.9 243.8 106.2C243.6 106.2 243.5 106.1 243.4 106.1C243 106 242.7 106 242.4 105.8C231.2 101.3 221.5 97.2998 212.7 93.6998C211.1 92.9998 211.1 92.9998 211.3 91.1998L211.8 87.2998C212.5 81.1998 213.3 74.8998 214.2 68.6998C219.1 62.8998 224.5 57.3998 230.4 52.1998ZM274.3 23.9998C278.2 25.6998 282 27.5998 285.7 29.4998C286.3 29.7998 286.9 30.0998 287.4 30.3998C290.5 32.0998 293.6 33.9998 296.7 35.8998L295.3 41.6998C294.6 44.6998 293.8 47.6998 293.1 50.6998C292.3 53.9998 291.5 57.1998 290.7 60.4998C289.4 65.6998 288.2 70.7998 286.9 75.9998L286.7 76.8998C286.6 77.3998 286.4 77.8998 286.2 78.4998C286.1 78.6998 286.1 78.9998 286 79.2998C285.8 79.1998 285.6 79.0998 285.4 79.0998C284.9 78.8998 284.6 78.7998 284.2 78.5998C276.5 74.3998 266.5 68.7998 256.5 63.1998C254.5 62.0998 254.5 62.0998 255 59.8998C256.9 50.1998 258.7 40.4998 260.6 30.7998C265.1 28.2998 269.7 25.9998 274.3 23.9998ZM372.2 144.5C372.4 145.3 372.5 146.1 372.7 146.9L372 147.8C371.6 148.4 371.1 148.9 370.7 149.5C370.1 150.2 369.5 150.5 368.4 150.6C364.5 150.7 360.7 150.8 357.1 151C355.5 151.1 353.9 151.2 352.4 151.4C351.3 151.5 350.3 151.6 349.2 151.7C348.7 151.7 348.2 151.7 347.6 151.7C347.4 151.7 347.2 151.7 347 151.7C347.1 151.6 347.1 151.5 347.1 151.4C347.3 151.1 347.4 150.9 347.5 150.7C348.6 149.2 349.6 147.7 350.7 146.2C352.6 143.5 354.6 140.8 356.5 138.1C357 137.3 357.6 136.9 358.6 136.9C362.6 137 366.5 137.1 370.5 137.2C371.1 139.6 371.7 142 372.2 144.5C372.2 144.4 372.2 144.5 372.2 144.5ZM373.4 150.5C373 150.5 372.6 150.5 372.2 150.5C372.2 150.4 372.3 150.3 372.3 150.2C372.4 149.9 372.5 149.7 372.6 149.5L373.1 148.9C373.2 149.5 373.3 150 373.4 150.5ZM375.5 169.8C375.7 172.9 375.8 176 375.8 179.1C375.8 180.4 375.8 181.6 375.7 182.9L373 188.4C372.9 188.7 372.7 188.9 372.6 189.2C372.3 190 371.8 190.2 371.1 189.9C370.7 189.7 370.2 189.6 369.8 189.5L369.3 189.4C363.2 187.6 357.1 186.2 351 185.2C350.5 185.1 350.1 185 349.6 184.9C349.5 184.9 349.5 184.8 349.4 184.7L349.3 184.6C349.3 184.5 349.4 184.4 349.4 184.3C349.5 184 349.6 183.7 349.8 183.4C351 181.3 352.3 179.2 353.5 177.2C355.1 174.6 356.6 172 358.2 169.4C358.8 168.4 359.4 168.1 360.6 168.3C362 168.5 363.4 168.5 364.7 168.6C366.1 168.7 367.6 168.8 369.1 168.9C371.3 169.2 373.4 169.5 375.5 169.8ZM349.8 267.7C349.5 267.6 349.3 267.5 349 267.4C348.9 267.4 348.9 267.3 348.8 267.3C348.9 264.7 354.6 246.2 356 243.7L362.2 245.9C359 253.5 355.2 260.9 350.9 267.9L349.8 267.7ZM280.7 332C278.3 332 275.9 332 273.2 331.9C272.9 331.9 272.6 331.9 272.3 331.8C272 331.8 271.8 331.7 271.7 331.5C271.6 331.4 271.6 331.2 271.6 330.9C271.7 330.5 271.8 330.1 271.9 329.6L277 310.7C277 310.6 277.1 310.5 277.1 310.4C277.1 310.2 277.2 310 277.3 309.8C277.7 308.7 277.8 308.6 279 308.8C279.9 308.9 280.9 309.1 281.8 309.2C283.4 309.4 285 309.7 286.6 309.8C290 310.2 293.4 310.6 296.9 311C298.9 311.2 301 311.5 303 311.7C303.3 311.7 303.5 311.8 303.8 311.9C303.9 311.9 304 311.9 304.1 312C304.1 312.1 304.1 312.2 304.1 312.4C304.1 312.7 304 313 303.9 313.3C303.1 315.4 302.4 317.6 301.6 319.7L301.5 319.9C297 323 292.3 325.9 287.4 328.6C286.8 328.9 286.2 329.2 285.7 329.5C284.1 330.3 282.6 331.1 281 331.9L280.7 332ZM277.6 333.7C276.5 334.2 275.5 334.7 274.4 335.2C273.5 334.8 272.6 334.4 271.6 334C271.9 333.9 272.4 333.9 273.1 333.9C274.1 333.9 275 333.8 276 333.8L277.6 333.7ZM303 309.9C297.1 309.2 291.2 308.4 285.3 307.7L280.5 307.1H280.3C280.1 307.1 279.8 307 279.6 307C278.9 306.9 278.5 306.7 278.4 306.5C278.3 306.3 278.3 305.9 278.5 305.2C280.6 297 282.4 289.8 284.2 283C284.5 281.8 284.6 281.5 285.3 281.5C285.6 281.5 286 281.6 286.5 281.7C294.3 283.4 302.1 285.1 309.9 286.9C310.3 287 310.7 287.1 311.1 287.2C311.3 287.3 311.4 287.3 311.6 287.4C311.6 287.6 311.5 287.7 311.5 287.9C311.4 288.3 311.4 288.7 311.3 289.1C309.5 295.3 307.6 301.9 305.7 308.4C305 310.1 305 310.1 303 309.9ZM284.8 271.2L283.4 276.2L283.3 276.5C283.2 276.8 283.2 277 283.1 277.2C282.7 278.3 282.7 278.3 281.4 278.1C279.3 277.7 277.2 277.3 275.1 276.9L269 275.7C265 274.9 261 274.2 257 273.4C256.6 273.3 256.2 273.2 255.7 273.1C255.5 273.1 255.4 273 255.2 273C255.2 272.9 255.2 272.8 255.2 272.7C255.2 272.4 255.2 272.1 255.3 271.8C257.8 263.9 259.9 257.3 262.1 250.5C262.7 248.8 262.8 248.8 264.5 249C273.2 250 281 251.3 288.3 253C288.6 253.1 288.9 253.2 289.3 253.3C289.4 253.3 289.6 253.4 289.8 253.5C289.6 254.2 289.5 254.8 289.3 255.4C288.9 256.8 288.6 258.1 288.2 259.5C287 263.5 285.9 267.3 284.8 271.2ZM192 257.9C192 257.8 191.9 257.8 191.9 257.7C194.3 256.9 196.6 256 199 255.2C199.3 255.1 199.6 255 200.1 254.9C200.2 254.9 200.3 254.9 200.5 254.8C200.4 254.9 200.4 255 200.3 255.1C200 255.5 199.8 255.8 199.6 256.1C198.6 257.6 197.5 259 196.5 260.5L194.8 262.9C194.2 261.8 193.6 260.7 193 259.7C192.6 259.1 192.3 258.5 192 257.9ZM191.3 256.6C190.3 254.6 189.3 252.6 188.4 250.5L188.5 250.4L188.6 250.3H189.3L188.9 250C190.1 249.1 191.3 248.3 192.6 247.6C194.9 246.3 197.3 245.2 199.7 244.2C199.9 244.1 200.2 244 200.4 243.9L201.4 243.5C202.8 242.9 204.4 242.2 205.8 241.5C207.4 240.7 209.1 240 210.8 239.4C211.5 239.1 212.1 238.9 212.8 238.6C213.3 238.4 213.9 238.2 214.7 238.1C214.5 238.4 214.4 238.6 214.2 238.8C212.7 240.5 211.3 242.2 209.8 244C207.6 246.6 205.3 249.2 203.1 251.9C202.5 252.6 201.8 253.1 200.7 253.4C197.5 254.3 194.4 255.4 191.3 256.6ZM178.7 224C178.5 223.4 178.4 222.8 178.2 222.3C177.4 219.3 176.7 216.3 176.1 213.2C178.8 213.1 181.5 213 184.3 212.9C184.8 212.9 185.4 212.9 186 212.9C186.2 212.9 186.4 212.9 186.6 212.9C186.6 213 186.6 213.1 186.6 213.2C186.6 213.5 186.5 213.8 186.4 214C184.5 220 182.6 225.4 180.6 230.3C179.9 228.2 179.3 226.1 178.7 224ZM185.9 210.5C182.4 210.6 178.9 210.8 175.8 210.9C174.4 203.5 173.5 196 173.1 188.3C173.1 187.7 173.1 187.1 173 186.6C172.9 184.3 172.8 182 172.8 179.6C172.8 178.7 172.8 177.9 172.8 177C176.3 177.5 179.2 177.9 181.9 178.3C184 178.6 186.1 178.8 188.2 179.1C190 179.3 191.8 179.5 193.5 179.8C194.2 179.9 194.6 180 194.8 180.2C194.9 180.4 194.9 180.8 194.7 181.5C192.8 191 190.5 200.2 187.9 208.8C187.6 210 187.1 210.4 185.9 210.5ZM175.3 150.8C176.3 144.9 177.6 139.2 179.2 133.5L180.7 133.9C182.8 134.5 184.9 135 187 135.6C190.2 136.5 193.4 137.4 196.6 138.3L200.3 139.3C202 139.8 202.1 139.9 201.8 141.6C200.5 150.8 198.6 163 196 175.3C195.6 177.4 195.6 177.4 193.3 177.1C187.9 176.4 182.6 175.7 177.2 175L172.9 174.4C173.1 166.9 173.8 159.6 175 152.4C175.1 152 175.2 151.4 175.3 150.8ZM245 112.6V112.4C245.3 111.2 245.4 110.5 245.8 110.3C245.9 110.3 246 110.2 246.1 110.2C246.5 110.2 247.1 110.4 248.1 110.8C254 113 259.9 115.1 265.7 117.3L272.9 119.9C273 119.9 273.1 120 273.3 120L273.6 120.1C275.4 120.8 275.4 120.8 274.9 122.5L274.2 125C273 129.3 271.7 133.8 270.4 138.2C269.6 141 268.6 143.8 267.7 146.6C267.3 147.7 267 148.8 266.6 149.9V150C266.3 150.8 266.2 151.3 265.4 151.2C264.4 151 263.4 150.9 262.5 150.8C260.3 150.5 258.1 150.1 255.9 149.7C252.1 149 248.2 148.2 244.5 147.4C243.1 147.1 241.8 146.8 240.4 146.6C239.9 146.5 239.5 146.4 239 146.2C238.4 146 238.1 145.7 238.2 145.1C238.3 144.7 238.3 144.4 238.4 144C240.6 133.6 242.8 123.1 245 112.6ZM298.8 37.2998C308.7 43.7998 317.9 51.2998 326.2 59.6998L325.2 62.7998C322.3 72.2998 319.3 81.6998 316.4 91.1998C316.2 91.9998 315.9 92.6998 315.6 93.4998C315.5 93.7998 315.4 94.1998 315.2 94.5998C315 94.4998 314.8 94.3998 314.6 94.3998C314.1 94.1998 313.8 94.0998 313.4 93.8998L310.5 92.3998C303.8 88.9998 296.8 85.3998 290 81.8998C287.9 80.7998 287.9 80.7998 288.5 78.5998C291.4 66.6998 294.4 54.5998 297.1 43.3998L298.8 37.2998ZM365.2 120.5L363 124.2C361.1 127.4 359.1 130.7 357.2 133.9C356.6 134.9 355.9 135.3 354.8 135.2C352.1 135 349.4 134.8 346.7 134.5C344 134.3 341.2 134.1 338.5 133.8C337.5 133.7 336.4 133.6 335.3 133.4C334.8 133.3 334.4 133.3 333.9 133.2C333.9 133 334 132.9 334 132.8C334.1 132.4 334.2 132.1 334.3 131.8C337.4 124.9 340.5 118.1 343.6 111.2C344.3 109.7 344.3 109.7 345.7 110.1C351.6 111.9 357.5 113.8 363.5 115.7C364 117.3 364.6 118.9 365.2 120.5ZM366 122.7C367.5 127 368.8 131.3 370 135.7H369.2C366.6 135.6 364 135.6 361.4 135.5C360.7 135.5 360.1 135.4 359.4 135.3C359.1 135.3 358.9 135.2 358.6 135.2C358.6 135.1 358.7 135 358.7 134.9C358.8 134.6 358.9 134.4 359 134.2C360.8 131.2 362.7 128.1 364.5 125.1L366 122.7ZM307.2 130.2C307.8 130.3 308.4 130.5 309 130.6C309.6 130.8 310.3 130.9 310.9 131C315.6 131.9 320.2 132.8 324.9 133.7L327.6 134.2C328.2 134.3 328.8 134.4 329.5 134.5L330.3 134.6C330.3 134.7 330.3 134.8 330.3 134.9C330.3 135.2 330.2 135.4 330.2 135.5C328 139.4 325.8 143.4 323.6 147.3L320.7 152.4C320.3 153.2 319.7 153.5 318.9 153.5C318.6 153.5 318.3 153.6 318 153.6C317.7 153.6 317.4 153.7 317.2 153.7C311.1 153.8 304.6 153.9 297.9 154C297.4 154 297 153.9 296.4 153.8C296.2 153.8 295.9 153.7 295.7 153.7L296.1 152.8C296.4 152.1 296.6 151.5 296.8 151L304.8 131.7C304.8 131.6 304.9 131.5 304.9 131.4C304.9 131.3 305 131.2 305 131.2C305.5 129.9 305.5 129.8 307.2 130.2ZM306.7 127.8C307.1 125.1 315.4 100.7 316.8 98.1998L342.1 109C342.1 109.1 342 109.3 342 109.4C341.9 109.8 341.8 110.2 341.7 110.5C338.7 117.2 335.5 124.4 332.3 131.4C331.6 132.9 331.6 132.9 330 132.7H329.8C323.4 131.8 316.8 130.4 308.9 128.4C308.4 128.3 307.8 128.1 307.3 128L306.7 127.8ZM296.9 156C301.5 156 306.2 155.9 310.7 155.8L313.5 155.7C314.6 155.7 315.8 155.6 317 155.5C317.5 155.5 318 155.4 318.5 155.4C318.5 155.5 318.4 155.7 318.4 155.8C318.3 156.1 318.2 156.4 318.1 156.5C316.9 158.3 315.6 160.1 314.3 162C312.3 164.8 310.3 167.8 308.4 170.7C307.8 171.6 306.9 171.8 305.8 172C301 172.8 296.2 173.7 291.4 174.5L288 175C287.1 175.2 286.2 175.3 285.2 175.5L283.9 175.7C284 175.6 284 175.4 284.1 175.3C284.3 174.9 284.4 174.6 284.6 174.4C285.5 172.8 286.3 171.3 287.2 169.7C289.3 165.9 291.5 162 293.5 158.1C294.3 156.5 295.2 156 296.9 156ZM273.1 191.5C274.2 190 275.2 188.6 276.1 187.2C277.8 184.7 279.8 181.8 281.7 178.9C282.4 177.8 283.2 177.3 284.4 177.1C288.8 176.3 293.2 175.5 297.5 174.7C299.7 174.3 301.9 173.9 304.1 173.5C304.6 173.4 305.1 173.3 305.7 173.3C305.9 173.3 306.1 173.3 306.3 173.2C306.3 173.3 306.2 173.3 306.2 173.4C306 173.7 305.9 173.9 305.7 174.1C304.7 175.4 303.7 176.7 302.7 178C300.7 180.7 298.5 183.5 296.5 186.2C295.9 187 295.1 187.5 294 187.7C288.9 188.9 283.8 190.1 278.8 191.3C276.9 191.8 275 192.2 273.1 192.7C272.8 192.8 272.6 192.8 272.2 192.9C272.1 192.9 272 192.9 271.9 193C272.3 192.6 272.7 192 273.1 191.5ZM270.5 192.5C269.9 193.4 269 194 267.7 194.3C263.1 195.5 258.4 196.8 253.9 198.1C252.1 198.6 250.3 199.1 248.5 199.6C248.1 199.7 247.6 199.8 247.1 199.9C246.9 199.9 246.8 200 246.6 200C246.6 199.9 246.7 199.8 246.7 199.7C246.8 199.4 246.9 199.1 247 198.8C248.3 196.5 249.5 194.2 250.8 192C252.6 188.7 254.5 185.4 256.3 182C256.8 181.2 257.3 180.8 258.2 180.7C263.1 180.1 268.1 179.4 272.9 178.7C275.1 178.4 277.2 178.1 279.4 177.8C279.5 177.8 279.6 177.8 279.7 177.8C279.8 177.8 279.9 177.8 280 177.8C280.1 177.8 280.2 177.8 280.3 177.8C280.2 177.9 280.2 178 280.2 178.1C280.1 178.4 280 178.7 279.8 178.9C278.5 180.8 277.2 182.7 275.9 184.6C274.1 187.4 272.3 189.9 270.5 192.5ZM299.6 184.8C300.7 183.4 301.7 182.1 302.7 180.8L303.8 179.4C305.1 177.7 306.4 176 307.7 174.2C308.4 173.2 309.2 172.7 310.3 172.6C314.1 172.1 318 171.5 321.7 170.9C324.1 170.5 326.5 170.2 328.9 169.8C329.1 169.8 329.4 169.8 329.7 169.8C329.9 169.8 330.2 169.8 330.4 169.8C330.6 169.8 330.8 169.8 331 169.8C330.9 169.9 330.9 170 330.8 170.1C330.6 170.5 330.4 170.8 330.2 171.1C329.3 172.3 328.4 173.6 327.5 174.8C325.6 177.4 323.6 180.2 321.8 182.9C321.1 183.9 320.3 184.4 319.2 184.5C313.2 184.9 306.9 185.7 299.2 187.1C298.9 187.1 298.7 187.2 298.3 187.2C298.2 187.2 298.1 187.2 298 187.2L299.6 184.8ZM292.2 156.5C292 156.9 291.9 157.3 291.7 157.6C290.6 159.6 289.6 161.5 288.5 163.5C286.6 167 284.6 170.7 282.7 174.3C282 175.6 281.1 176.2 279.6 176.4C275.8 176.9 272 177.4 268.1 177.8C265.6 178.1 263.1 178.4 260.6 178.7C260 178.8 259.4 178.8 258.7 178.9C258.4 178.9 258.2 178.9 257.9 179C258 178.8 258 178.6 258.1 178.5C258.3 178 258.4 177.7 258.5 177.3C260.4 172.5 262.2 167.7 264.1 162.9L266.9 155.7L267 155.5C267.1 155.3 267.2 155 267.3 154.8C267.5 154.1 267.9 153.8 268.7 153.8C268.8 153.8 269 153.8 269.1 153.8L270.4 154C272.2 154.2 274.2 154.5 276 154.6C279 154.8 282.1 155.1 285 155.3C286.8 155.4 288.5 155.6 290.3 155.7C290.7 155.7 291.2 155.8 291.7 155.9C291.9 155.9 292.1 156 292.3 156C292.3 156.2 292.2 156.4 292.2 156.5ZM265.3 154.2C265.2 154.6 265.1 154.9 265 155.2C262 164 259.3 171.1 256.5 177.5C255.9 178.9 255 179.5 253.6 179.5C248.1 179.6 242.5 179.7 237.1 179.8L230.9 179.9H230.7C230.4 179.9 230.2 179.9 230 179.9C229.6 179.8 229.3 179.7 229.2 179.6C229.1 179.5 229.1 179.2 229.2 178.8C229.4 177.9 229.7 177 230 176.1C230.2 175.4 230.4 174.8 230.5 174.1C232.1 168.2 233.7 162.2 235.2 156.3L236.6 151C236.7 150.7 236.7 150.4 236.8 150.2C237.1 149.1 237.2 148.8 237.8 148.8C238 148.8 238.4 148.9 238.8 148.9L248.7 150.6C253.6 151.5 258.5 152.3 263.4 153.2C263.8 153.3 264.3 153.4 264.7 153.5C264.9 153.6 265.1 153.6 265.3 153.7C265.4 153.8 265.4 154 265.3 154.2ZM230.4 182C237.2 181.9 243.2 181.8 248.8 181.6C249.6 181.6 250.5 181.5 251.3 181.5C251.9 181.5 252.5 181.4 253.1 181.4C253.4 181.4 253.7 181.4 254.1 181.4C254.2 181.4 254.4 181.4 254.5 181.4C254.5 181.5 254.4 181.7 254.4 181.8C254.3 182.2 254.2 182.5 254.1 182.8C251.3 188.7 248.3 194.3 244.9 199.6C244.3 200.5 243.7 201 242.9 201.2C238.4 202.2 233.8 203.3 229.3 204.3C226.2 205 223 205.8 219.9 206.5C219.7 206.5 219.6 206.5 219.3 206.5C219.2 206.5 219.2 206.5 219.1 206.5C219.1 206.4 219.2 206.3 219.2 206.2C219.3 205.9 219.4 205.6 219.5 205.3C220.7 202.2 221.8 199.1 223 196C224.5 192 226 188 227.6 183.9C228.3 182 228.3 182 230.4 182ZM244.2 203.5C244.9 202.5 245.7 201.9 246.7 201.6C250.8 200.5 254.9 199.3 258.9 198.1C261.4 197.4 263.9 196.7 266.5 195.9C266.8 195.8 267.1 195.8 267.5 195.7C267.6 195.7 267.7 195.7 267.8 195.7C267.8 195.8 267.7 195.9 267.7 195.9C267.5 196.2 267.4 196.5 267.2 196.7C265.8 198.6 264.3 200.4 262.9 202.3C261 204.7 259.1 207.2 257.2 209.6C256.7 210.3 256 210.8 255 211.1C250.4 212.6 245.6 214.2 241.1 215.8C238.9 216.5 236.8 217.3 234.6 218C234.4 218.1 234.1 218.1 233.8 218.2C233.7 218.2 233.7 218.2 233.6 218.2C233.6 218.1 233.7 218.1 233.7 218C233.9 217.7 234 217.4 234.2 217.2C235.3 215.7 236.3 214.3 237.4 212.8C239.6 209.9 242 206.7 244.2 203.5ZM250.7 214L253.3 213.1C253.6 213 253.9 213 254.3 212.9C254.4 212.9 254.4 212.9 254.5 212.9C254.5 213 254.4 213 254.4 213.1C254.2 213.4 254 213.7 253.8 213.9C252.6 215.5 251.3 217.1 250.1 218.7C248.1 221.3 246.1 223.9 244.1 226.4C243.5 227.2 242.9 227.6 242.1 227.8C235.2 229.5 228.1 231.6 220.4 234.4C220.2 234.5 220 234.5 219.7 234.6H219.6C219.6 234.6 219.6 234.5 219.7 234.5C219.9 234.2 220 234 220.2 233.8L222 231.7C224.8 228.4 227.7 225 230.6 221.7C231.3 220.9 232.1 220.3 232.9 220C238.8 218 244.8 216 250.7 214ZM246.1 226.7C246.2 226.4 246.2 226.2 246.4 226C249.7 221.7 253.2 217.1 256.6 212.7C256.9 212.3 257.6 211.9 258.2 211.7C265.4 209.6 273 207.9 281.4 206.6C281.5 206.6 281.5 206.6 281.6 206.7C281.6 206.8 281.5 206.8 281.5 206.9C281.3 207.2 281.2 207.5 281 207.8C280.2 209.2 279.3 210.6 278.5 212C276.5 215.2 274.5 218.6 272.6 221.9C271.9 223.2 271 223.7 269.5 223.8C262.2 224.2 254.8 225.2 246.6 226.9C246.5 226.9 246.3 226.9 246.1 227H246C246.1 226.8 246.1 226.7 246.1 226.7ZM281.1 205.2C274.5 206.2 267.8 207.7 260.4 209.7C260 209.8 259.6 209.9 259.2 210C259.1 210 259 210.1 258.8 210.1C258.8 210.1 258.8 210 258.9 210C259.1 209.7 259.2 209.5 259.3 209.3C260.5 207.8 261.7 206.3 262.8 204.8C265 202 267.2 199.2 269.3 196.4C270 195.4 270.8 194.9 271.9 194.6C275.9 193.6 279.8 192.7 283.8 191.7C286.6 191 289.4 190.3 292.3 189.6C292.7 189.5 293.1 189.5 293.6 189.4C293.8 189.4 293.9 189.4 294.1 189.4C294 189.6 293.9 189.7 293.8 189.8C293.5 190.2 293.3 190.6 293.1 190.9C292.2 192.1 291.3 193.4 290.4 194.6C288.3 197.4 286.2 200.4 284.2 203.3C283.4 204.4 282.5 205 281.1 205.2ZM285.8 204.1C285.8 203.8 285.9 203.6 286 203.5C287.6 201.2 289.2 199 290.8 196.7C292.5 194.3 294.2 191.9 295.9 189.5C296.4 188.8 297.1 188.6 297.9 188.5C301.9 187.9 306.6 187.2 311.3 186.5C313.2 186.2 315.1 186 317 185.9H317.3C317.7 185.9 318.2 185.9 318.7 185.9C318.9 185.9 319.1 185.9 319.3 185.9C319.2 186 319.2 186.2 319.1 186.3C319 186.6 318.9 186.9 318.7 187.1C317.7 188.7 316.8 190.3 315.8 192C313.8 195.3 311.8 198.7 309.9 202C309.4 202.9 308.8 203.3 307.7 203.3C303 203.4 298.4 203.5 294.1 203.7C292.8 203.8 291.5 203.9 290.3 204C289.6 204.1 289 204.2 288.3 204.2C287.7 204.3 287.1 204.3 286.5 204.3C286.3 204.3 286.1 204.3 285.8 204.3C285.8 204.3 285.8 204.2 285.8 204.1ZM311.7 202.9C311.8 202.6 311.9 202.3 312 202C313.5 199.5 315 196.9 316.4 194.4C317.9 191.8 319.4 189.3 320.9 186.7C321.4 185.8 322.2 185.4 323.4 185.3C330.8 185.2 337.5 185.2 344.3 186C344.6 186 344.9 186.1 345.3 186.2C345.4 186.2 345.6 186.3 345.7 186.3C345.6 186.5 345.6 186.7 345.5 186.8C345.3 187.2 345.2 187.5 345.1 187.9C344.2 189.9 343.3 191.9 342.4 193.9C340.7 197.7 339 201.4 337.3 205.3C336.5 207 336.5 207 334.8 206.6C326.7 204.8 320.1 203.8 313.9 203.4C313.4 203.4 312.9 203.3 312.4 203.2C312.2 203.2 312 203.1 311.8 203.1C311.6 203.2 311.7 203 311.7 202.9ZM338.9 207.2C339 206.9 339.1 206.6 339.2 206.3C341.7 200.8 344.5 194.4 347.3 188.1C347.9 186.8 348 186.6 349.7 186.9C356.2 187.8 362.9 189.4 370 191.7C370.3 191.8 370.6 191.9 370.9 192.1C371 192.2 371.2 192.2 371.3 192.3L362.5 215.3L338.7 207.6C338.8 207.4 338.8 207.3 338.9 207.2ZM347.8 183.1C347.2 184.1 346.7 184.6 345.4 184.5C341.5 184.1 337.5 183.9 333.5 183.8C333 183.8 332.5 183.8 332.1 183.8C330.6 183.8 329.1 183.9 327.6 183.9C326.7 183.9 325.7 184 324.8 184C324.4 184 324 184 323.5 184H323C323.1 183.8 323.2 183.7 323.2 183.6C323.4 183.2 323.6 182.9 323.8 182.6C325.3 180.5 326.8 178.4 328.2 176.4C329.6 174.4 331 172.5 332.4 170.5C333 169.6 333.7 169.2 334.5 169.2C335.4 169.1 336.2 169 337.1 168.9C338.1 168.8 339.1 168.7 340.2 168.6C344.3 168.4 348.5 168.4 352.5 168.3L355.9 168.2C356 168.2 356.2 168.2 356.5 168.3C356.6 168.3 356.6 168.3 356.7 168.3L356.5 168.7C356.3 169.1 356.1 169.4 355.9 169.8C355.1 171.1 354.3 172.4 353.5 173.7C351.6 176.7 349.7 179.9 347.8 183.1ZM333.5 166.5C332.8 167.5 331.8 168 330.5 168.2C326.6 168.7 322.9 169.2 319.1 169.7C317.2 170 315.3 170.3 313.5 170.6C312.6 170.7 311.6 170.9 310.7 171C310.6 171 310.4 171 310.2 171H310.1L310.3 170.7C310.5 170.4 310.7 170.1 310.9 169.8C311.8 168.5 312.7 167.3 313.5 166C315.6 163 317.8 159.9 319.8 156.8C320.6 155.5 321.6 155 323.2 154.9C326.3 154.7 329.5 154.5 332.6 154.2C333.9 154.1 335.1 154 336.4 153.9L337.3 153.8C338.9 153.7 340.5 153.5 342.1 153.4C342.2 153.4 342.2 153.4 342.3 153.4C342.5 153.4 342.7 153.4 343 153.5C343.1 153.5 343.2 153.5 343.3 153.5C343.3 153.6 343.2 153.6 343.2 153.7C343.1 154 343 154.2 342.8 154.4C341.8 155.8 340.7 157.2 339.6 158.5C337.5 161.2 335.5 163.9 333.5 166.5ZM342.7 152.1C339.9 152.3 337 152.5 334.2 152.8C332.7 152.9 331.2 153.1 329.7 153.2C327.5 153.4 325.3 153.5 323.3 153.6C323 153.6 322.8 153.6 322.4 153.5C322.3 153.5 322.2 153.5 322.1 153.5C322.2 153.4 322.2 153.3 322.3 153.2C322.5 152.9 322.6 152.6 322.7 152.4C323.7 150.6 324.8 148.8 325.8 147C327.7 143.6 329.7 140.3 331.6 136.9C332.6 135.2 332.6 135.2 334.4 135.3H334.6C338.8 135.7 343 136 347.1 136.3C349 136.4 350.8 136.6 352.7 136.7C353.4 136.8 354 136.8 354.6 136.9C354.6 136.9 354.7 137 354.8 137L354.9 137.1C354.9 137.2 354.8 137.3 354.8 137.4C354.7 137.7 354.5 138 354.4 138.2C353.2 139.8 352.1 141.5 350.9 143.1C349.1 145.6 347.3 148.2 345.5 150.8C344.8 151.6 344 152 342.7 152.1ZM362.2 113.5C357.5 112 352.7 110.3 348.1 108.8L347 108.4C346.6 108.3 346.2 108.1 345.7 107.9C345.5 107.8 345.3 107.7 345.1 107.6C347.5 101.4 349.5 96.2998 351.3 91.6998C355.5 98.6998 359.3 106 362.5 113.6C362.4 113.6 362.3 113.6 362.2 113.5ZM348.8 92.4998C347.1 96.7998 345.4 101.1 343.7 105.5C343.6 105.8 343.4 106.1 343.3 106.4C343.2 106.5 343.2 106.7 343.1 106.8C342.9 106.8 342.8 106.7 342.7 106.7C342.4 106.6 342.1 106.6 341.9 106.5C334.3 103.2 326.4 99.7998 318.7 96.3998C317.3 95.7998 317.3 95.6998 317.8 94.1998C320.9 84.1998 324 74.1998 327.2 64.1998L328.1 61.4998C336.4 70.0998 343.8 79.4998 350.1 89.5998L348.8 92.4998ZM289.4 84.1998C297.3 88.1998 305.1 92.1998 313 96.1998C314.5 96.9998 314.6 97.0998 314.1 98.4998C311 107.6 307.8 117 304.8 125.7C304.7 126 304.6 126.3 304.4 126.6C304.3 126.7 304.3 126.9 304.2 127C304 127 303.8 126.9 303.7 126.9C303.2 126.8 302.8 126.7 302.4 126.6C294.5 124.2 287.3 122 280 119.7C278.3 119.2 278.3 119.2 278.7 117.4C280.6 110 282.5 102.6 284.4 95.1998L285.9 89.4998C286.3 88.0998 286.6 86.6998 287 85.2998C287.1 84.8998 287.3 84.4998 287.5 83.9998C287.6 83.7998 287.6 83.5998 287.7 83.3998C287.9 83.4998 288.1 83.4998 288.2 83.5998C288.6 83.8998 289 83.9998 289.4 84.1998ZM279 122.1C280.4 122.5 281.9 123 283.3 123.4C284.9 123.9 286.5 124.4 288 124.9C290.7 125.7 293.3 126.4 296 127.2C297.8 127.7 299.6 128.2 301.5 128.8C301.9 128.9 302.3 129.1 302.8 129.3C303 129.4 303.2 129.5 303.4 129.5C303.3 129.7 303.3 129.9 303.3 130C303.2 130.5 303.1 130.9 302.9 131.3C301.8 133.9 300.8 136.5 299.7 139.1C297.9 143.4 296.1 147.9 294.3 152.4C293.8 153.7 293 154.2 291.7 154.1C288.7 153.8 285.7 153.6 282.8 153.4C280.6 153.2 278.3 153 276.1 152.8C274.8 152.7 273.5 152.5 272.2 152.3L271.2 152.2C270.7 152.1 270.1 152 269.5 151.9C269.3 151.9 269 151.8 268.7 151.8C268.7 151.6 268.8 151.4 268.8 151.2C268.9 150.7 269 150.4 269.1 150C271.1 143.2 273.2 136.4 275.3 129.6L277 124.1L277.1 123.8C277.2 123.6 277.2 123.4 277.3 123.2C277.6 121.8 277.7 121.7 279 122.1ZM243 111.1C240.8 121.8 238.5 132.4 236.3 143.1C236.2 143.6 236 144.1 235.9 144.7C235.8 144.9 235.8 145.2 235.7 145.5C234.9 145.3 234.2 145.2 233.5 145.1C231.9 144.8 230.3 144.5 228.8 144.1C223.5 142.8 218.1 141.4 212.8 140L207 138.5C206.8 138.5 206.6 138.4 206.4 138.3H206.3C204.8 137.8 204.7 137.7 204.9 136.3L205.1 134.8C206.6 123.6 208.1 112.3 209.7 101.1C209.9 99.9998 210.1 98.8998 210.3 97.6998C210.4 97.1998 210.5 96.6998 210.6 96.1998C210.8 96.2998 211 96.2998 211.2 96.3998C211.7 96.4998 212.1 96.5998 212.5 96.7998C222.2 100.7 231.9 104.6 241.6 108.5C243.3 109 243.4 109.3 243 111.1ZM205.7 140.8C207.2 141.2 208.7 141.5 210.2 141.9C211.5 142.2 212.7 142.5 214 142.9C218.3 144 222.7 145 227.1 146.1L233 147.5C233.5 147.6 234 147.7 234.5 147.9C235.1 148.1 235.4 148.4 235.2 149C234.9 150.3 234.6 151.7 234.3 153C232.3 162 230.1 170.1 227.6 177.8C227 179.6 227 179.6 225.2 179.6C224.5 179.6 223.7 179.6 223 179.6H221.8V179.7L200.4 177.9C200.3 177.9 200.2 177.9 200 177.9C199.1 177.8 198.6 177.6 198.4 177.4C198.2 177.1 198.3 176.6 198.4 175.7L198.9 172.6C199.3 170.5 199.7 168.4 200 166.2C201 160.2 202.1 154.3 203.1 148.3L204.1 142.5C204.1 142.4 204.1 142.3 204.1 142.2C204.1 142 204.2 141.8 204.2 141.6C204.4 140.7 204.6 140.6 205.7 140.8ZM190 209.8C190 209.5 190.1 209.1 190.1 208.8C191.8 202.2 193.4 195.5 195.1 188.9L196.8 182.2C197.3 180.2 197.4 180.1 199.4 180.3C201.8 180.5 204.2 180.7 206.5 180.8C209.8 181.1 213.2 181.3 216.5 181.6C217.6 181.7 218.8 181.7 219.9 181.7C220.8 181.7 221.6 181.7 222.5 181.8C223.2 181.8 224 181.9 224.8 182C225.1 182 225.4 182.1 225.8 182.1C225.8 182.3 225.7 182.5 225.7 182.6C225.6 183 225.6 183.2 225.5 183.5C222.9 191.7 220.2 199 217.2 205.7C216.7 206.7 216.2 207.2 215.2 207.4C207 208.8 198.6 209.7 190.2 210.3C190.1 210.3 190 210.3 189.9 210.2C189.8 210.2 189.8 210.2 189.7 210.2C190 210 190 209.9 190 209.8ZM217.2 210.1C217.7 209.1 218.3 208.5 219.2 208.3C224.3 207.1 229.4 205.9 234.4 204.7C236.8 204.1 239.1 203.6 241.5 203C241.8 202.9 242.1 202.9 242.5 202.8C242.6 202.8 242.7 202.8 242.8 202.8C242.7 202.9 242.7 203 242.6 203.1C242.4 203.5 242.2 203.8 242 204.1C240.4 206.3 238.8 208.5 237.2 210.7C235.4 213.2 233.5 215.7 231.7 218.2C231.1 219 230.3 219.6 229.3 220C224.6 221.8 219.9 223.6 215.2 225.4C212.7 226.3 210.2 227.3 207.7 228.2C207.5 228.3 207.2 228.4 206.8 228.5C206.7 228.5 206.6 228.5 206.6 228.6C206.6 228.5 206.7 228.4 206.7 228.4C206.8 228.1 207 227.8 207.1 227.6C210.8 222.3 214.2 216.4 217.2 210.1ZM207 230C211.4 228.3 215.9 226.6 220.3 224.9C222.7 224 225.1 223 227.5 222.1C227.8 222 228.1 221.9 228.6 221.8C228.7 221.8 228.8 221.7 228.9 221.7C228.8 221.8 228.8 221.9 228.7 222C228.4 222.4 228.2 222.7 228 222.9L226.3 224.9C223.6 228.1 220.7 231.4 217.9 234.6C217.3 235.3 216.5 235.9 215.6 236.3C210 238.8 204.2 241.3 198.6 243.7L194.1 245.6C193.8 245.7 193.5 245.9 193 246L192.8 246.1C192.9 245.9 193 245.8 193.1 245.6C194.2 244.2 195.4 242.8 196.5 241.4C198.9 238.4 201.5 235.3 203.9 232.3C204.8 231.2 205.8 230.4 207 230ZM205 251.6C205.3 251.2 205.5 250.9 205.8 250.5L206.9 249.2C210.1 245.4 213.5 241.5 216.8 237.6C217.3 237 218 236.6 218.7 236.3C225.7 233.7 233 231.4 240.5 229.6C240.7 229.5 241 229.5 241.4 229.5C241.5 229.5 241.7 229.5 241.8 229.5L241.4 230.1C241.1 230.6 240.9 230.9 240.6 231.3C239.8 232.6 239 233.8 238.1 235.1C236 238.4 233.8 241.7 231.7 245.1C230.8 246.6 229.7 247.1 228.3 247.3C222.6 248.2 217.6 249.1 213.1 250C211.4 250.3 209.7 250.8 208.1 251.2C207.3 251.4 206.5 251.6 205.8 251.8C205.5 251.9 205.2 251.9 204.8 251.9C204.9 251.8 205 251.7 205 251.6ZM233.4 246C233.6 245.5 233.8 245.2 234 244.9C235.6 242.4 237.2 239.9 238.8 237.5C240.4 235 242 232.5 243.6 230.1C244.2 229.2 244.9 228.7 246 228.5C253.7 226.9 261 225.9 268.2 225.5C268.7 225.5 269.2 225.5 269.8 225.5C270 225.5 270.2 225.5 270.5 225.5C270.4 225.7 270.4 225.8 270.3 226C270.1 226.4 270 226.8 269.8 227.2C268.9 229.2 268.1 231.1 267.2 233.1C265.5 237 263.7 240.9 262 244.7L261.9 244.9C261.1 246.8 261.1 246.8 259.1 246.6C253.2 246.2 246.9 246.1 238.7 246.3C237.5 246.3 236.3 246.4 234.9 246.5C234.3 246.5 233.8 246.6 233.2 246.6C233.2 246.3 233.3 246.1 233.4 246ZM289.3 251.2C286.3 250.6 282.2 249.8 278.1 249.1C275.5 248.7 272.8 248.3 270.2 247.9C268.8 247.7 267.4 247.5 266 247.3C265.5 247.2 264.9 247.1 264.4 247C264.2 247 263.9 246.9 263.7 246.9C263.7 246.7 263.8 246.6 263.8 246.4C263.9 246 264 245.7 264.1 245.3C266.4 239.1 269.1 232.8 272.2 226.7C272.7 225.7 273.3 225.3 274.5 225.3C281.7 225.2 289 225.7 296.7 226.9C297.1 227 297.5 227.1 297.9 227.2C298.1 227.2 298.2 227.3 298.4 227.3C298.4 227.5 298.3 227.6 298.3 227.8C298.2 228.2 298.1 228.6 298 228.9C296.2 234.3 294.4 239.7 292.5 245.1L290.9 249.9C290.8 250.1 290.8 250.3 290.7 250.5C290.4 251.1 290.1 251.3 289.3 251.2ZM297.5 225C290.1 223.9 282.6 223.4 275.2 223.5C275 223.5 274.7 223.5 274.5 223.5C274.4 223.5 274.3 223.5 274.2 223.5C274.2 223.4 274.2 223.3 274.2 223.2C274.2 222.9 274.3 222.7 274.4 222.5C276.6 218.8 278.7 215.2 280.9 211.6L283.4 207.4C283.8 206.7 284.4 206.3 285.2 206.2C292.6 205.2 300 204.9 307.1 205.1C307.3 205.1 307.5 205.2 307.8 205.2C307.9 205.2 308 205.2 308.1 205.3C308 205.4 308 205.6 307.9 205.7C307.7 206.1 307.6 206.5 307.4 206.8C306.5 208.9 305.5 211 304.6 213C303 216.5 301.5 219.9 300 223.4C299.3 225.1 299.2 225.3 297.5 225ZM301.8 225.1C301.9 224.7 301.9 224.4 302.1 224.1C303.2 221.7 304.2 219.2 305.3 216.8C306.8 213.3 308.4 209.8 309.9 206.3C310.3 205.3 311 205.1 312.1 205.2C318.8 205.6 325.6 206.6 332.2 208.2C332.5 208.3 332.7 208.3 333 208.4C333.9 208.6 334.8 208.7 335.6 209.4L327.7 231.7L301.8 225.4C301.7 225.3 301.8 225.2 301.8 225.1ZM337.9 209.8C338 209.8 338.1 209.8 338.2 209.8C338.6 209.8 338.9 209.9 339.3 210C346.1 211.8 353.2 214.1 360.3 216.8C361.8 217.4 361.8 217.4 361.4 218.7C359.2 225.4 357 232.1 354.6 239.6C354.5 239.8 354.4 240 354.3 240.2C354.3 240.3 354.2 240.3 354.2 240.4C352 240 332.3 233.4 330.1 232.4C330.4 229.4 336.2 212.9 337.9 209.8ZM357.3 241.9C357.1 241.8 356.9 241.7 356.8 241.6L356.7 241.5C356.8 239.2 362.4 221.6 364 218.5C364.8 218.6 367.2 219.4 370.7 220.7C368.7 228.6 366.1 236.4 363.1 243.9L357.3 241.9ZM364.7 216.1C364.8 215.9 364.8 215.7 364.9 215.5C365 215 365.1 214.6 365.3 214.2C368 207.1 370.4 200.7 372.8 194.3C373.4 192.7 373.4 192.7 375 193.2L375.2 193.3C374.5 201.9 373.1 210.4 371.1 218.7L364.7 216.1ZM374.3 190.7C374.5 190.1 374.8 189.6 375 189C375.2 188.5 375.4 188.1 375.6 187.7C375.5 188.8 375.5 190 375.4 191.1L374.3 190.7ZM358.8 165.5C358.1 166.4 357.5 166.8 356.5 166.7C354.8 166.7 352.9 166.6 351 166.7C348.2 166.8 345.4 167 342.6 167.2C341.2 167.3 339.8 167.4 338.4 167.4C337.6 167.4 336.7 167.5 335.8 167.5H334.8C334.9 167.4 334.9 167.3 334.9 167.3C335.1 167 335.3 166.7 335.4 166.5C336.4 165.2 337.4 163.9 338.4 162.6C340.5 159.9 342.6 157.2 344.6 154.4C345.2 153.5 346 153.2 347.1 153.1C350.1 152.9 353.1 152.7 356.1 152.5C358.7 152.3 361.3 152.2 363.9 152C364.9 151.9 365.9 152 367 152C367.4 152 367.9 152 368.3 152C368.2 152.1 368.2 152.2 368.2 152.3C368 152.6 367.9 152.9 367.7 153.1C366.6 154.6 365.5 156.1 364.4 157.6C362.6 160.2 360.7 162.8 358.8 165.5ZM255.7 65.7998C267 71.9998 275.7 76.6998 283.9 81.1998C285.5 82.0998 285.5 82.0998 285.1 83.7998C282.3 94.8998 279.4 106 276.5 117.1C276.4 117.4 276.3 117.6 276.2 117.9C276.2 118 276.1 118.1 276.1 118.2C276 118.2 275.9 118.2 275.7 118.1C275.4 118.1 275.1 118 274.8 117.9C266.8 114.9 257.2 111.4 247.5 107.7C246.1 107.2 246.1 107.2 246.4 105.7L246.5 104.9C247.3 99.9998 248.2 94.8998 249.1 89.9998C250.2 84.1998 251.4 78.2998 252.5 72.5998L253.6 66.9998C253.7 66.5998 253.8 66.1998 253.9 65.7998C254 65.5998 254 65.3998 254.1 65.1998C254.3 65.2998 254.4 65.2998 254.6 65.3998C255 65.5998 255.4 65.6998 255.7 65.7998ZM181.4 232.8C183.9 227.1 186.2 221.1 188.2 214.8C188.8 213.1 189.7 212.4 191.6 212.2C197.3 211.6 203.2 210.9 208.3 210.3C209.6 210.1 210.9 209.9 212.2 209.7C213 209.6 213.7 209.4 214.5 209.3C214.7 209.3 214.9 209.3 215.2 209.3C215.3 209.3 215.4 209.3 215.5 209.3C215.5 209.4 215.4 209.5 215.4 209.6C215.3 209.9 215.2 210.2 215.1 210.4C212.1 216.8 208.6 223 204.6 228.8C204.2 229.4 203.5 229.9 202.8 230.1C196 232.5 188.9 234.8 182.6 236.9C182.3 235.5 181.8 234.2 181.4 232.8ZM196.4 233.9L202 232C202.1 232 202.3 231.9 202.5 231.9C202.5 231.9 202.5 231.9 202.6 231.9V232C202.5 232.2 202.4 232.4 202.3 232.6C198.6 237.2 194.7 242 190.9 246.6C190.4 247.2 189.8 247.7 189.1 248C188.6 248.2 188.1 248.5 187.7 248.7C186.2 245.3 184.8 241.9 183.5 238.3C187.7 236.8 192 235.4 196.4 233.9ZM213.2 289.4C212.9 289.1 212.6 288.7 212.3 288.4C208 283.2 203.9 277.7 200.2 272C200.5 272 200.8 272 201.1 271.9C204.6 271.7 208.1 271.7 211.5 271.6C212.9 271.6 214.4 271.5 215.8 271.5C216.2 271.5 216.6 271.5 216.9 271.5C217.8 271.5 218.4 271.5 218.6 271.8C218.8 272 218.6 272.6 218.3 273.5C216.6 278.8 214.9 284.1 213.2 289.4ZM218.1 269.6L216.3 269.7C211 269.9 205.5 270.1 200.1 270.3C199.8 270.3 199.5 270.3 199.2 270.4C198 268.5 196.8 266.5 195.6 264.5L202.3 254.9C202.8 254.2 203.4 253.8 204.5 253.5C211.6 251.4 219.2 249.9 228.5 248.7C228.7 248.7 229 248.7 229.2 248.7L229.3 248.8C229.3 248.8 229.3 248.8 229.4 248.9L229.2 249.3C229 249.7 228.8 250.1 228.6 250.6L226.3 255.4C224.4 259.5 222.4 263.7 220.4 267.9L220.3 268C219.8 269.5 219.8 269.5 218.1 269.6ZM222.5 269.2C222.6 268.8 222.7 268.4 222.8 268C225.2 261.6 228 255.5 231.1 249.7C231.7 248.6 232.4 248.2 233.6 248.1C235.7 248.1 237.9 248 240 247.9C243.2 247.8 246.6 247.7 249.9 247.7H250C252.6 247.7 255.2 247.9 257.7 248.2L258.4 248.3C259.3 248.4 260 248.5 260.1 248.7C260.3 249 260.1 249.6 259.7 250.6C258.1 255.4 256.3 260.6 254.6 265.7C254.3 266.7 254 267.7 253.7 268.7C253.4 269.6 253.2 270.4 252.9 271.3C252.5 272.5 252.5 272.5 251.1 272.4L246.4 271.8C241.6 271.2 236.6 270.6 231.6 270.1C229.9 269.9 228.2 269.8 226.5 269.7C225.7 269.7 224.9 269.6 224 269.6C223.6 269.6 223.3 269.5 222.9 269.5H222.4C222.5 269.5 222.5 269.3 222.5 269.2ZM253.5 278.1L253.9 276.9C254.2 275.8 254.3 275.4 254.9 275.4C255.2 275.4 255.5 275.5 256 275.6C262.2 276.8 268.3 278 274.5 279.1L280.3 280.2H280.5C280.7 280.2 280.9 280.3 281 280.3C282.2 280.6 282.2 280.7 281.9 281.9C281.1 285.1 280.3 288.4 279.5 291.4C278.4 295.9 277.2 300.4 276.1 304.9V305.1C275.9 305.9 275.8 306.3 275.3 306.2C274.4 306.1 273.5 305.9 272.6 305.8C270.8 305.5 269 305.3 267.3 305C263.1 304.3 258.9 303.6 254.8 303L249.6 302.1H249.4C249.2 302.1 249 302 248.9 302C247.6 301.7 247.6 301.6 247.9 300.3L248.1 299.4C249.1 295.2 250.1 290.9 251.2 286.6C251.9 283.8 252.7 280.9 253.5 278.1ZM248.5 304.2C254.9 305.2 261.4 306.2 267.6 307.2L269.6 307.5C270.8 307.7 272 307.9 273.4 308.1L275.1 308.4C275.1 308.6 275 308.8 275 309C274.9 309.4 274.9 309.8 274.8 310.1C273.4 315.6 271.9 321 270.5 326.5L269.6 329.8C269.5 330 269.5 330.3 269.4 330.5C268.9 331.8 268.9 331.8 267.6 331.8C267.4 331.8 267.3 331.8 267.1 331.8C263.4 330 259.8 328 256.3 325.9C255.3 325.3 254.4 324.7 253.4 324.2C250.1 322.2 246.9 320 243.8 317.8L244.4 315.3C245.1 312.1 245.9 308.9 246.6 305.6C246.9 304 246.9 304 248.5 304.2ZM244 305.5C243.3 308.4 242.7 311.4 242 314.3L241.6 316C235.3 311.3 229.3 306.2 223.7 300.6C226.4 300.9 229.1 301.2 231.8 301.6C235.6 302.1 239.5 302.7 242.6 303.2C243.5 303.3 243.9 303.5 244.1 303.7C244.3 304.1 244.2 304.6 244 305.5ZM314.3 310.3C314.2 310.4 314.1 310.5 314 310.5H313.8H312.8C311.6 310.5 310.4 310.4 309 310.3C308.4 310.3 307.9 310.2 307.3 310.2C307.3 310 307.4 309.8 307.4 309.6C307.5 309.2 307.6 308.8 307.7 308.5C309.6 302.1 311.5 295.8 313.4 289.4C313.9 287.6 313.9 287.6 315.8 288C318.7 288.5 321.6 289 324.5 289.5C327.7 290.1 330.8 290.6 334 291.2C327.9 298.1 321.3 304.5 314.3 310.3ZM312.3 285C312.1 285 311.9 284.9 311.6 284.9C311.1 284.8 310.6 284.8 310.1 284.7C303.2 283.2 296.3 281.6 289.4 280.1L287.1 279.6C286.9 279.6 286.7 279.5 286.5 279.4H286.4C285.3 279.1 285.2 279 285.5 277.9C285.9 276 286.5 273.9 287 271.9C288.5 266.6 289.9 261.4 291.6 255.6C291.7 255.3 291.8 255 292 254.7C292.1 254.6 292.1 254.5 292.2 254.3C295.7 254.5 315.9 259.9 319 261.3C317.1 267.8 314.9 276.3 312.3 285ZM316.7 258.2C314.7 257.7 312.7 257.1 310.8 256.6C307.6 255.8 304.3 254.9 301.1 254.1L294.7 252.4C294.6 252.4 294.4 252.3 294.3 252.3C294.2 252.3 294.1 252.2 294 252.2C293.3 252 293 251.9 292.9 251.7C292.8 251.5 292.9 251.1 293.1 250.5L293.2 250.1C294.2 246.6 295.3 243.1 296.5 239.6C297.6 236.3 298.8 233 300 229.8L300.2 229.2C300.6 228.2 300.7 227.9 301.3 227.9C301.5 227.9 301.9 228 302.3 228C309.5 229.2 317.1 231.1 325.4 233.6C327 234.1 327 234.1 326.5 235.8C324.4 243 322.2 250.2 320 257.4C319.9 257.7 319.8 258.1 319.6 258.5C319.5 258.7 319.5 258.8 319.4 259L316.7 258.2ZM321.9 259.1C321.9 258.8 322 258.4 322.1 258.1C324 251.6 326.3 244 328.6 236.1C328.8 235.4 329 235 329.2 234.8C329.4 234.7 329.7 234.7 330.3 234.9C336.7 237 343.2 239.3 349.5 241.4L352.8 242.5C352.9 242.5 353 242.6 353.1 242.7C353.2 242.7 353.2 242.8 353.3 242.8C353.3 242.9 353.3 243 353.3 243.1C353.3 243.4 353.3 243.7 353.2 244C351.3 250.4 349.2 257.1 346.7 265.2C346.6 265.5 346.5 265.8 346.3 266.1C346.3 266.2 346.2 266.3 346.2 266.4C343.6 266.1 324.7 260.6 321.8 259.4C321.9 259.3 321.9 259.2 321.9 259.1ZM347.2 271.1C347.3 270.9 347.4 270.6 347.4 270.4C347.6 269.6 348 269.4 349 269.6L349.7 269.8C348.4 271.9 347 274 345.6 276L347.2 271.1ZM375.4 168C371.7 167.5 368.4 167.2 365.2 167C364.1 166.9 362.9 166.8 361.7 166.7C361.2 166.6 360.7 166.6 360.2 166.5C360.2 166.4 360.3 166.3 360.3 166.2C360.4 165.9 360.5 165.7 360.6 165.5C362.5 162.9 364.4 160.3 366.3 157.7C367.4 156.1 368.6 154.6 369.7 153C370.3 152.2 370.9 151.8 371.9 151.8C372.2 151.8 372.5 151.8 372.8 151.8H373.5C373.6 152.4 373.7 153 373.8 153.7C374.6 158.5 375.1 163.2 375.4 168ZM240.2 41.9998H243.1C247.9 38.4998 252.9 35.2998 258 32.2998C257 37.3998 256 42.4998 255 47.5998L252.9 58.4998C252.8 58.9998 252.7 59.4998 252.5 60.0998C252.4 60.2998 252.4 60.4998 252.3 60.7998C252.1 60.6998 252 60.6998 251.9 60.5998C251.5 60.3998 251.2 60.2998 250.9 60.0998C245.8 57.4998 240.8 54.7998 235.7 52.1998L232.4 50.4998C235.1 48.1998 237.9 45.8998 240.7 43.7998C241.5 43.1998 242.3 42.5998 243.1 42.0998H240.2V41.9998ZM230.8 49.5998C233 47.6998 235.2 45.8998 237.5 44.0998C235.2 45.7998 232.9 47.6998 230.8 49.5998ZM228.7 51.2998C224.3 55.1998 220.1 59.3998 216.1 63.7998C220 59.3998 224.2 55.2998 228.7 51.2998ZM212 68.3998C209.4 71.3998 207 74.4998 204.7 77.6998C204.3 78.2998 203.8 78.8998 203.4 79.3998C201.4 82.1998 199.5 84.9998 197.7 87.8998C201.9 81.0998 206.8 74.4998 212 68.3998ZM196.1 90.2998C195.9 90.6998 195.7 90.9998 195.5 91.3998C195.7 91.0998 195.9 90.6998 196.1 90.2998ZM190.7 99.8998C190.9 99.4998 191.1 99.0998 191.4 98.6998C191.2 99.0998 190.9 99.4998 190.7 99.8998ZM193.1 95.5998C193.7 94.4998 194.4 93.3998 195 92.1998C194.4 93.2998 193.7 94.4998 193.1 95.5998ZM214.9 291.4C216.7 285 218.5 279.3 220.6 274L220.7 273.8C220.8 273.5 221 273.1 221.1 272.7C221.3 271.9 221.8 271.6 222.7 271.7C233.1 272.4 242.2 273.3 250.4 274.7C250.7 274.7 251 274.8 251.3 274.9C251.4 274.9 251.5 275 251.6 275.1C251.6 275.1 251.7 275.2 251.8 275.2C251.8 275.3 251.8 275.5 251.7 275.6C251.6 276 251.6 276.4 251.5 276.8C250.1 282.2 248.7 287.6 247.3 293L245.7 299.2C245.6 299.4 245.6 299.6 245.5 299.8L245.4 300.3C245.2 301.2 244.8 301.4 243.9 301.3C239.3 300.6 234.6 300 230.6 299.5C227.1 299 224.1 298.7 221.4 298.3C219.1 296 217 293.7 214.9 291.4ZM499.4 113.4H364.3C359.2 101.3 352.8 89.8998 345.3 79.3998H480.1C487.8 89.8998 494.3 101.3 499.4 113.4ZM478.8 77.6998H344C334.5 64.8998 323.4 53.4998 310.8 43.6998H444.9C457.8 53.3998 469.2 64.7998 478.8 77.6998ZM342.8 9.5998C380 9.5998 414.5 21.5998 442.6 41.9998H308.5C301.8 36.9998 294.8 32.4998 287.5 28.4998C286.9 28.1998 286.3 27.8998 285.8 27.5998C282.8 25.9998 279.7 24.4998 276.6 23.0998C296.9 14.3998 319.3 9.5998 342.8 9.5998ZM271.9 22.8998C271.9 22.9998 271.9 22.9998 271.9 22.8998C268.1 24.5998 264.5 26.3998 260.9 28.2998C260.2 28.6998 259.5 29.0998 258.8 29.4998C256.4 30.7998 254.1 32.1998 251.8 33.5998V15.8998C258.7 17.7998 265.4 20.1998 271.9 22.8998ZM250 34.7998C243 39.2998 236.4 44.1998 230.2 49.5998C229.6 50.0998 229.1 50.5998 228.5 51.0998C224.1 54.9998 220 59.0998 216.1 63.2998V9.8998C227.8 10.5998 239.1 12.4998 250.1 15.3998V34.7998H250ZM205.8 9.5998C208.6 9.5998 211.5 9.6998 214.3 9.7998V65.1998C214.3 65.1998 214.3 65.1998 214.3 65.2998C213.7 65.9998 213 66.7998 212.4 67.4998C206.8 73.9998 201.7 80.7998 197.2 88.0998C196.8 88.7998 196.4 89.4998 195.9 90.0998C189.6 100.5 184.4 111.5 180.4 123V11.4998C188.7 10.1998 197.2 9.5998 205.8 9.5998ZM35.7999 179.6C35.7999 141.4 48.4 106.2 69.8 77.7998V281.5C48.5 253 35.7999 217.7 35.7999 179.6ZM71.5 283.7V75.4998C81.2 62.9998 92.7 51.8998 105.5 42.4998V316.8C92.7 307.3 81.2999 296.2 71.5 283.7ZM107.2 318V41.0998C117.7 33.5998 129.1 27.2998 141.2 22.2998V336.7C129.1 331.8 117.7 325.5 107.2 318ZM142.9 337.5V21.5998C154.3 17.0998 166.2 13.6998 178.6 11.6998V128.2C178.3 129 178.1 129.8 177.8 130.7C177.6 131.4 177.4 132.1 177.2 132.8C173.4 146.2 171.3 160.2 170.9 174.5C170.9 175.2 170.9 175.8 170.9 176.5C170.9 177.4 170.9 178.2 170.9 179.1C170.9 190 171.9 200.7 173.9 211.2C174 211.8 174.1 212.4 174.3 213C175.5 218.8 176.9 224.5 178.7 230V347.3C166.2 345.4 154.3 342 142.9 337.5ZM180.4 347.6V235.4C180.7 236.2 180.9 237 181.2 237.7C181.3 238 181.4 238.4 181.6 238.7C181.8 239.2 182 239.6 182.1 240.1C182.6 241.3 183.1 242.6 183.6 243.8C183.7 244 183.8 244.2 183.8 244.4C185.7 249 187.8 253.5 190 258C190.3 258.6 190.6 259.2 190.9 259.7C196.3 269.9 202.7 279.6 210 288.4C210.5 289 211 289.6 211.5 290.1C212.4 291.2 213.4 292.2 214.3 293.3V349.3C211.5 349.4 208.7 349.5 205.8 349.5C197.2 349.6 188.7 348.9 180.4 347.6ZM216.1 349.2V295.3C226.1 306.3 237.5 315.9 250.1 324V343.7C239.1 346.7 227.7 348.5 216.1 349.2ZM251.8 343.2V325.1C252.2 325.3 252.6 325.6 253 325.8C259.2 329.6 265.6 333 272.2 336C265.6 338.9 258.8 341.3 251.8 343.2ZM342.8 349.6C319.3 349.6 296.9 344.8 276.5 336.1C279.6 334.7 282.7 333.2 285.7 331.6C286.3 331.3 286.9 331 287.4 330.7C290.2 329.2 292.9 327.6 295.6 325.9H429.2C404 340.9 374.4 349.6 342.8 349.6ZM432.2 324.1H298.5C313 314.8 326 303.3 337.1 290.1H471.8C460.5 303.4 447.1 314.8 432.2 324.1ZM473.3 288.4H338.6C345.9 279.5 352.3 269.9 357.7 259.7H492.7C487.2 269.9 480.7 279.5 473.3 288.4ZM493.7 257.9H358.7C364.2 247.2 368.6 235.8 371.8 223.9H507C503.7 235.8 499.2 247.2 493.7 257.9ZM507.4 222.2H372.2C375 211.3 376.8 199.9 377.3 188.2H512.6C512 199.9 510.2 211.3 507.4 222.2ZM377.4 186.5C377.5 184.2 377.6 181.9 377.6 179.5C377.6 170.3 376.9 161.3 375.5 152.5H510.7C512.1 161.3 512.9 170.3 512.9 179.5C512.9 181.8 512.8 184.2 512.7 186.5H377.4Z" fill="black"/>
<path d="M0 0V360H552.9V0H0ZM509.2 222.2C509.1 222.8 508.9 223.4 508.7 223.9C505.5 235.8 501.1 247.1 495.6 257.9C495.3 258.5 495 259.1 494.7 259.6C489.3 269.8 482.9 279.5 475.6 288.3C475.1 288.9 474.6 289.5 474.1 290C463 303.1 450 314.6 435.5 324C434.6 324.6 433.7 325.2 432.7 325.7C406.5 341.8 375.7 351.2 342.8 351.2C318.5 351.2 295.3 346.1 274.3 336.9C267 340.1 259.5 342.8 251.7 344.9C251.1 345.1 250.5 345.2 250 345.4C235.9 349.2 221.1 351.2 205.8 351.2C197.1 351.2 188.6 350.5 180.3 349.3C179.7 349.2 179.1 349.1 178.6 349C166.2 347 154.3 343.7 142.9 339.2C142.3 339 141.7 338.7 141.2 338.5C129.1 333.6 117.8 327.3 107.2 319.9C106.6 319.5 106 319.1 105.5 318.7C92.8 309.5 81.3 298.6 71.5 286.3C70.9 285.6 70.3 284.8 69.8 284.1C47.4 255.1 34.1 218.8 34.1 179.4C34.1 140 47.4 103.7 69.8 74.7C70.4 74 71 73.2 71.5 72.5C81.3 60.2 92.7 49.3 105.5 40.1C106.1 39.7 106.7 39.3 107.2 38.9C117.7 31.5 129.1 25.3 141.2 20.3C141.8 20.1 142.4 19.8 142.9 19.6C154.3 15.1 166.2 11.8 178.6 9.8C179.2 9.7 179.8 9.6 180.3 9.5C188.6 8.3 197.1 7.6 205.8 7.6C221.1 7.6 235.9 9.6 250 13.4C250.6 13.6 251.2 13.7 251.7 13.9C259.4 16.1 267 18.7 274.2 21.9C295.2 12.7 318.4 7.6 342.7 7.6C381.2 7.6 416.7 20.3 445.4 41.8C446.2 42.4 446.9 43 447.7 43.5C460.3 53.2 471.4 64.7 480.9 77.5C481.3 78.1 481.8 78.7 482.2 79.2C489.8 89.7 496.2 101.1 501.2 113.2C501.4 113.8 501.7 114.4 501.9 114.9C506.5 126.3 509.9 138.2 512 150.6C512.1 151.2 512.2 151.8 512.3 152.3C513.7 161.1 514.4 170.1 514.4 179.3C514.6 194.3 512.7 208.6 509.2 222.2Z" fill="#D3FFDD"/>
</g>
<defs>
<clipPath id="clip0_119_5026">
<rect width="552.9" height="360" rx="4" fill="white"/>
</clipPath>
</defs>
</svg>
