<svg width="73" height="28" viewBox="0 0 73 28" fill="none" xmlns="http://www.w3.org/2000/svg">
<g clip-path="url(#clip0_119_7476)">
<path d="M12.5764 1.48389H14.9528V20.1192H12.5764V17.8305C11.3998 19.5865 9.68123 20.4668 7.4114 20.4668C5.49826 20.4668 3.85842 19.8032 2.51968 18.4444C1.18095 17.0856 0.5 15.4107 0.5 13.465C0.5 11.5239 1.18095 9.8716 2.51968 8.51277C3.85842 7.15395 5.49826 6.46324 7.4114 6.46324C9.67659 6.46324 11.3998 7.34355 12.5764 9.09964V1.48389ZM11.1821 16.8734C12.1132 15.9434 12.5764 14.8239 12.5764 13.465C12.5764 12.1062 12.1132 10.9912 11.1821 10.0838C10.251 9.15381 9.10682 8.69786 7.7125 8.69786C6.34597 8.69786 5.19716 9.1493 4.2707 10.0838C3.3396 10.9912 2.87637 12.1062 2.87637 13.465C2.87637 14.8239 3.3396 15.9389 4.2707 16.8734C5.20179 17.7763 6.34597 18.2322 7.7125 18.2322C9.10682 18.2322 10.251 17.7763 11.1821 16.8734Z" fill="white"/>
<path d="M20.2243 14.5301C20.6875 16.9001 22.5729 18.2815 25.167 18.2815C26.969 18.2815 28.2799 17.6405 29.0998 16.3404L31.1195 17.4599C29.7808 19.4553 27.7889 20.4665 25.1114 20.4665C22.9527 20.4665 21.1786 19.8029 19.812 18.4982C18.4733 17.1665 17.7924 15.4916 17.7924 13.4647C17.7924 11.4693 18.4501 9.78999 19.7842 8.45825C21.123 7.1265 22.8416 6.46289 24.9493 6.46289C26.9412 6.46289 28.581 7.15359 29.841 8.5395C31.1241 9.89833 31.7541 11.5461 31.7541 13.4918C31.7541 13.8394 31.7263 14.1825 31.6707 14.5301H20.2243ZM20.2243 12.5076H29.35C28.9423 9.97959 27.1357 8.64785 24.9539 8.64785C22.4061 8.64785 20.632 10.1647 20.2243 12.5076Z" fill="white"/>
<path d="M56.4073 2.84249C56.4073 1.98927 57.116 1.27148 58.0193 1.27148C58.8948 1.27148 59.6036 1.98927 59.6036 2.84249C59.6036 3.6957 58.8948 4.38641 58.0193 4.38641C57.116 4.38641 56.4073 3.6957 56.4073 2.84249ZM56.8149 20.119V6.81063H59.1913V20.1235H56.8149V20.119Z" fill="white"/>
<path d="M67.5526 12.3993C69.6835 12.8507 72.5231 13.6227 72.4953 16.4713C72.4953 17.6676 72.0042 18.6562 71.0454 19.374C70.0911 20.0918 68.8867 20.4665 67.3858 20.4665C64.7362 20.4665 62.7396 19.2431 61.9475 17.3516L63.995 16.2049C64.4304 17.4825 65.7182 18.2815 67.3812 18.2815C68.9377 18.2815 70.0865 17.7218 70.0865 16.4713C70.0865 15.433 68.8867 14.8461 67.3812 14.503C65.2226 13.9432 62.4385 13.2525 62.4385 10.431C62.4385 9.28438 62.9018 8.32733 63.8051 7.58246C64.7315 6.83759 65.8803 6.46289 67.2747 6.46289C69.4889 6.46289 71.3187 7.5012 72.1895 9.23021L70.1976 10.3227C69.7066 9.17603 68.7246 8.62077 67.2747 8.62077C65.9359 8.62077 64.8427 9.26181 64.8427 10.4039C64.8473 11.4423 66.0471 12.002 67.5526 12.3993Z" fill="white"/>
<path d="M44.6598 9.97513L45.9615 6.81055H43.4091L44.6598 9.97513Z" fill="white"/>
<path d="M48.7084 20.1189L54.1745 6.81055H51.6036L47.3141 17.6451L43.0292 6.81055H40.4583L45.9244 20.1189H48.7084Z" fill="white"/>
<path d="M41.7646 10.9231L39.1056 17.6451L34.8161 6.81055H32.2498L37.7113 20.1189H40.4953L43.0199 13.9794L41.7646 10.9231Z" fill="white"/>
</g>
<defs>
<clipPath id="clip0_119_7476">
<rect width="72" height="28" fill="white" transform="translate(0.5)"/>
</clipPath>
</defs>
</svg>
