<svg width="360" height="187" viewBox="0 0 360 187" fill="none" xmlns="http://www.w3.org/2000/svg">
<g clip-path="url(#clip0_119_6069)">
<rect width="360" height="187" rx="4" fill="#D3FFDD"/>
<path d="M27 93L84 93" stroke="black" stroke-dasharray="4 4"/>
<mask id="mask0_119_6069" style="mask-type:alpha" maskUnits="userSpaceOnUse" x="83" y="-8" width="204" height="203">
<circle cx="184.95" cy="93.4999" r="101.302" transform="rotate(-180 184.95 93.4999)" fill="#D9D9D9"/>
</mask>
<g mask="url(#mask0_119_6069)">
<path d="M83.6476 25.5061L286.252 25.5061" stroke="black"/>
<path d="M83.6476 59.2102L286.252 59.2102" stroke="black"/>
<path d="M84 92.9143L184.975 92.9143" stroke="black" stroke-dasharray="4 4"/>
<path d="M185.651 92.9143L286.627 92.9143" stroke="black"/>
<path d="M83.6476 126.619L286.252 126.619" stroke="black"/>
<path d="M83.6476 160.323L286.252 160.323" stroke="black"/>
</g>
<mask id="mask1_119_6069" style="mask-type:alpha" maskUnits="userSpaceOnUse" x="184" y="-8" width="203" height="203">
<circle cx="285.666" cy="93.4999" r="101.302" transform="rotate(-180 285.666 93.4999)" fill="#D9D9D9"/>
</mask>
<g mask="url(#mask1_119_6069)">
<path d="M317.544 -8.3877L317.544 194.217" stroke="black"/>
<path d="M348.39 -8.38794L348.39 194.216" stroke="black"/>
<path d="M285.896 -8.3877L285.896 194.217" stroke="black"/>
<path d="M254.052 -8.38794L254.052 194.216" stroke="black"/>
<path d="M204.122 -8.38794L204.122 194.216" stroke="black"/>
</g>
<path d="M280 93L360 93" stroke="black" stroke-dasharray="4 4"/>
<path d="M185.061 -16L185.061 203" stroke="black"/>
<path d="M10 93L232 6" stroke="black" stroke-dasharray="4 4"/>
<path fill-rule="evenodd" clip-rule="evenodd" d="M235.157 5.21948C265.725 22.7661 286.313 55.7312 286.313 93.5052C286.313 131.279 265.725 164.244 235.157 181.791C204.589 164.244 184 131.279 184 93.5052C184 55.7312 204.589 22.7661 235.157 5.21948Z" fill="black"/>
<path fill-rule="evenodd" clip-rule="evenodd" d="M235.651 6.33496C205.385 23.708 185 56.3471 185 93.7475C185 131.148 205.385 163.787 235.651 181.16C265.917 163.787 286.302 131.148 286.302 93.7477C286.302 56.3472 265.916 23.7079 235.651 6.33496Z" fill="#D3FFDD"/>
<mask id="mask2_119_6069" style="mask-type:alpha" maskUnits="userSpaceOnUse" x="185" y="6" width="102" height="176">
<path fill-rule="evenodd" clip-rule="evenodd" d="M235.856 6C266.24 23.4405 286.704 56.2066 286.704 93.7524C286.704 131.298 266.24 164.064 235.856 181.505C205.473 164.064 185.009 131.298 185.009 93.7523C185.009 56.2066 205.473 23.4405 235.856 6Z" fill="#ACDCFF"/>
</mask>
<g mask="url(#mask2_119_6069)">
<path d="M249.119 -2.16968C243.653 29.637 224.569 101.103 191.967 132.512" stroke="black"/>
<path d="M213.337 9.26074C210.19 35.435 199.422 94.5423 181.53 121.578" stroke="black"/>
<path d="M272.975 18.7031C270.987 30.2993 262.439 60.0518 244.15 86.2922C221.289 119.093 202.901 137.481 194.949 160.839" stroke="black"/>
<path d="M288.878 40.0732C288.878 45.3743 282.417 63.9282 256.574 95.7349C230.731 127.542 220.295 165.312 218.307 180.221" stroke="black"/>
<path d="M295.338 68.4011C288.049 78.175 271.483 103.289 263.531 125.554C255.58 147.818 249.947 167.3 248.125 174.258" stroke="black"/>
<path d="M193.458 147.421C212.177 146.095 253.692 146.626 269.993 159.348" stroke="black"/>
<path d="M190.973 136.487C210.355 129.695 255.977 120.186 283.411 136.487" stroke="black"/>
<path d="M186.5 128.536C208.864 118.265 261.246 100.804 291.86 113.129" stroke="black"/>
<path d="M166.124 110.147C173.247 111.638 195.545 111.936 227.749 101.202C259.954 90.4669 294.842 90.4338 308.26 91.7591" stroke="black"/>
<path d="M166.621 83.3104C178.217 86.4579 210.256 90.8645 245.641 83.3104C281.025 75.7563 303.787 76.8497 310.745 78.3406" stroke="black"/>
<path d="M168.609 45.5403C193.127 55.4799 253.096 72.1783 296.83 59.4557" stroke="black"/>
<path d="M194.452 10.7515C212.343 21.3537 257.966 42.7569 297.327 43.5521" stroke="black"/>
</g>
<path d="M232 181L10 94" stroke="black" stroke-dasharray="4 4"/>
<circle cx="18.5" cy="92.5" r="12.5" fill="#D3FFDD"/>
<circle cx="19" cy="93" r="6" fill="black"/>
<path d="M184.566 93.5002C184.566 37.6994 229.801 -7.53612 285.602 -7.53611C341.403 -7.53611 386.639 37.6994 386.639 93.5003C386.639 149.301 341.403 194.537 285.602 194.537C229.801 194.537 184.566 149.301 184.566 93.5002Z" stroke="black"/>
<path d="M84.025 93.5002C84.025 37.6994 129.261 -7.53612 185.061 -7.53611C240.862 -7.53611 286.098 37.6994 286.098 93.5003C286.098 149.301 240.862 194.537 185.061 194.537C129.261 194.537 84.025 149.301 84.025 93.5002Z" stroke="black"/>
<circle cx="286.5" cy="92.5" r="12.5" fill="#D3FFDD"/>
<circle cx="287" cy="93" r="6" fill="black"/>
</g>
<defs>
<clipPath id="clip0_119_6069">
<rect width="360" height="187" rx="4" fill="white"/>
</clipPath>
</defs>
</svg>
